<?xml version="1.0" encoding="UTF-8" standalone="no"?>
<!DOCTYPE svg PUBLIC "-//W3C//DTD SVG 1.1//EN"
 "http://www.w3.org/Graphics/SVG/1.1/DTD/svg11.dtd">
<!-- Generated by graphviz version 2.40.1 (20161225.0304)
 -->
<!-- Title: %3 Pages: 1 -->
<svg width="195pt" height="339pt"
 viewBox="0.00 0.00 195.00 339.00" xmlns="http://www.w3.org/2000/svg" xmlns:xlink="http://www.w3.org/1999/xlink">
<g id="graph0" class="graph" transform="scale(1 1) rotate(0) translate(4 335)">
<title>%3</title>
<polygon fill="#ffffff" stroke="transparent" points="-4,4 -4,-335 191,-335 191,4 -4,4"/>
<g id="clust1" class="cluster">
<title>cluster_top_Port</title>
<polygon fill="#e0e0e0" stroke="#e0e0e0" points="8,-99 8,-209 45,-209 45,-99 8,-99"/>
</g>
<g id="clust2" class="cluster">
<title>cluster_RandomComp0_inst</title>
<polygon fill="#d0d0d0" stroke="#d0d0d0" points="57,-211 57,-323 187,-323 187,-211 57,-211"/>
<text text-anchor="middle" x="122" y="-307.8" font-family="Times,serif" font-size="14.00" fill="#000000">RandomComp0_inst</text>
</g>
<g id="clust3" class="cluster">
<title>cluster_RandomComp0_inst_Port</title>
<polygon fill="#e0e0e0" stroke="#e0e0e0" points="103,-219 103,-292 140,-292 140,-219 103,-219"/>
</g>
<g id="clust4" class="cluster">
<title>cluster_RandomComp1_inst</title>
<polygon fill="#d0d0d0" stroke="#d0d0d0" points="57,-128 57,-203 187,-203 187,-128 57,-128"/>
<text text-anchor="middle" x="122" y="-187.8" font-family="Times,serif" font-size="14.00" fill="#000000">RandomComp1_inst</text>
</g>
<g id="clust5" class="cluster">
<title>cluster_RandomComp1_inst_Port</title>
<polygon fill="#e0e0e0" stroke="#e0e0e0" points="103,-136 103,-172 140,-172 140,-136 103,-136"/>
</g>
<g id="clust6" class="cluster">
<title>cluster_RandomComp2_inst</title>
<polygon fill="#d0d0d0" stroke="#d0d0d0" points="57,-8 57,-120 187,-120 187,-8 57,-8"/>
<text text-anchor="middle" x="122" y="-104.8" font-family="Times,serif" font-size="14.00" fill="#000000">RandomComp2_inst</text>
</g>
<g id="clust7" class="cluster">
<title>cluster_RandomComp2_inst_Port</title>
<polygon fill="#e0e0e0" stroke="#e0e0e0" points="103,-16 103,-89 140,-89 140,-16 103,-16"/>
</g>
<!-- top_Port_clk -->
<g id="node1" class="node">
<title>top_Port_clk</title>
<polygon fill="#ff8181" stroke="#000000" points="37,-163.5 16,-163.5 16,-144.5 37,-144.5 37,-163.5"/>
<text text-anchor="middle" x="26.5" y="-150.3" font-family="Times,serif" font-size="14.00" fill="#000000">clk</text>
</g>
<!-- RandomComp0_inst_Port_clk -->
<g id="node4" class="node">
<title>RandomComp0_inst_Port_clk</title>
<polygon fill="#ff8181" stroke="#000000" points="132,-246.5 111,-246.5 111,-227.5 132,-227.5 132,-246.5"/>
<text text-anchor="middle" x="121.5" y="-233.3" font-family="Times,serif" font-size="14.00" fill="#000000">clk</text>
</g>
<!-- top_Port_clk&#45;&gt;RandomComp0_inst_Port_clk -->
<g id="edge1" class="edge">
<title>top_Port_clk&#45;&gt;RandomComp0_inst_Port_clk</title>
<path fill="none" stroke="#000000" d="M37.0383,-158.75C54.3719,-158.75 87,-158.75 87,-158.75 87,-158.75 87,-237 87,-237 87,-237 100.9614,-237 100.9614,-237"/>
<polygon fill="#000000" stroke="#000000" points="100.9614,-240.5001 110.9614,-237 100.9614,-233.5001 100.9614,-240.5001"/>
</g>
<!-- RandomComp1_inst_Port_clk -->
<g id="node6" class="node">
<title>RandomComp1_inst_Port_clk</title>
<polygon fill="#ff8181" stroke="#000000" points="132,-163.5 111,-163.5 111,-144.5 132,-144.5 132,-163.5"/>
<text text-anchor="middle" x="121.5" y="-150.3" font-family="Times,serif" font-size="14.00" fill="#000000">clk</text>
</g>
<!-- top_Port_clk&#45;&gt;RandomComp1_inst_Port_clk -->
<g id="edge2" class="edge">
<title>top_Port_clk&#45;&gt;RandomComp1_inst_Port_clk</title>
<path fill="none" stroke="#000000" d="M37.0296,-154C37.0296,-154 100.9232,-154 100.9232,-154"/>
<polygon fill="#000000" stroke="#000000" points="100.9232,-157.5001 110.9232,-154 100.9232,-150.5001 100.9232,-157.5001"/>
</g>
<!-- RandomComp2_inst_Port_clk -->
<g id="node7" class="node">
<title>RandomComp2_inst_Port_clk</title>
<polygon fill="#ff8181" stroke="#000000" points="132,-80.5 111,-80.5 111,-61.5 132,-61.5 132,-80.5"/>
<text text-anchor="middle" x="121.5" y="-67.3" font-family="Times,serif" font-size="14.00" fill="#000000">clk</text>
</g>
<!-- top_Port_clk&#45;&gt;RandomComp2_inst_Port_clk -->
<g id="edge3" class="edge">
<title>top_Port_clk&#45;&gt;RandomComp2_inst_Port_clk</title>
<path fill="none" stroke="#000000" d="M37.3441,-149.25C47.784,-149.25 62,-149.25 62,-149.25 62,-149.25 62,-71 62,-71 62,-71 100.8626,-71 100.8626,-71"/>
<polygon fill="#000000" stroke="#000000" points="100.8626,-74.5001 110.8626,-71 100.8626,-67.5001 100.8626,-74.5001"/>
</g>
<!-- top_Port_o0 -->
<g id="node2" class="node">
<title>top_Port_o0</title>
<polygon fill="#ff8181" stroke="#000000" points="35.5,-200.5 17.5,-200.5 17.5,-181.5 35.5,-181.5 35.5,-200.5"/>
<text text-anchor="middle" x="26.5" y="-187.3" font-family="Times,serif" font-size="14.00" fill="#000000">o0</text>
</g>
<!-- top_Port_o1 -->
<g id="node3" class="node">
<title>top_Port_o1</title>
<polygon fill="#ff8181" stroke="#000000" points="35.5,-126.5 17.5,-126.5 17.5,-107.5 35.5,-107.5 35.5,-126.5"/>
<text text-anchor="middle" x="26.5" y="-113.3" font-family="Times,serif" font-size="14.00" fill="#000000">o1</text>
</g>
<!-- RandomComp0_inst_Port_o -->
<g id="node5" class="node">
<title>RandomComp0_inst_Port_o</title>
<polygon fill="#ff8181" stroke="#000000" points="127,-283.5 116,-283.5 116,-264.5 127,-264.5 127,-283.5"/>
<text text-anchor="middle" x="121.5" y="-270.3" font-family="Times,serif" font-size="14.00" fill="#000000">o</text>
</g>
<!-- RandomComp0_inst_Port_o&#45;&gt;top_Port_o0 -->
<g id="edge4" class="edge">
<title>RandomComp0_inst_Port_o&#45;&gt;top_Port_o0</title>
<path fill="none" stroke="#000000" d="M115.8716,-274C95.5275,-274 27,-274 27,-274 27,-274 27,-210.5212 27,-210.5212"/>
<polygon fill="#000000" stroke="#000000" points="30.5001,-210.5211 27,-200.5212 23.5001,-210.5212 30.5001,-210.5211"/>
</g>
<!-- RandomComp2_inst_Port_o -->
<g id="node8" class="node">
<title>RandomComp2_inst_Port_o</title>
<polygon fill="#ff8181" stroke="#000000" points="127,-43.5 116,-43.5 116,-24.5 127,-24.5 127,-43.5"/>
<text text-anchor="middle" x="121.5" y="-30.3" font-family="Times,serif" font-size="14.00" fill="#000000">o</text>
</g>
<!-- RandomComp2_inst_Port_o&#45;&gt;top_Port_o1 -->
<g id="edge5" class="edge">
<title>RandomComp2_inst_Port_o&#45;&gt;top_Port_o1</title>
<path fill="none" stroke="#000000" d="M115.8716,-34C95.5275,-34 27,-34 27,-34 27,-34 27,-97.4788 27,-97.4788"/>
<polygon fill="#000000" stroke="#000000" points="23.5001,-97.4788 27,-107.4788 30.5001,-97.4789 23.5001,-97.4788"/>
</g>
</g>
</svg>
