<svg xmlns="http://www.w3.org/2000/svg" xmlns:xlink="http://www.w3.org/1999/xlink" xmlns:lucid="lucid" width="989" height="562"><g transform="translate(-77 -159)" lucid:page-tab-id="0_0"><path d="M520 360h480v260H520z" stroke="#b2b2b2" stroke-width="2" fill="#e5e5e5"/><use xlink:href="#a" transform="matrix(1,0,0,1,525,365) translate(0 21.77734375)"/><path d="M100 280h280v420H100z" stroke="#999" stroke-width="2" fill="#e5e5e5"/><use xlink:href="#b" transform="matrix(1,0,0,1,105,285) translate(232.53255208333331 21.77734375)"/><path d="M260 362c0 4.42-26.86 8-60 8s-60-3.58-60-8v-64c0-4.42 26.86-8 60-8s60 3.58 60 8z" stroke="#3aa6dd" stroke-width="2" fill="#99d2f2"/><path d="M260 298c0 4.42-26.86 8-60 8s-60-3.58-60-8" stroke="#3aa6dd" stroke-width="2" fill="none"/><use xlink:href="#c" transform="matrix(1,0,0,1,145,311) translate(31.215277777777782 22.106336805555557)"/><use xlink:href="#d" transform="matrix(1,0,0,1,145,311) translate(2.3307291666666643 48.77734375)"/><path d="M140 180h120v80c-20.04-13.36-32.52-13.36-40.08-13.36-12 0-27.96 13.36-39.96 13.36-7.44 0-20.04 0-39.96-13.36z" stroke="#ef8d22" stroke-width="2" fill="#ffc374"/><use xlink:href="#e" transform="matrix(1,0,0,1,145,185) translate(31.215277777777782 23.606336805555557)"/><use xlink:href="#f" transform="matrix(1,0,0,1,145,185) translate(21.574435763888893 50.27734375)"/><path d="M762.75 220c0 22.1-26.86 40-60 40s-60-17.9-60-40 26.86-40 60-40 60 17.9 60 40z" stroke="#7ab648" stroke-width="2" fill="#a3d977"/><use xlink:href="#g" transform="matrix(1,0,0,1,647.75,185) translate(19.539930555555557 30.106336805555557)"/><use xlink:href="#h" transform="matrix(1,0,0,1,647.75,185) translate(11.939019097222221 56.77734375)"/><path d="M640 400h125.5v160H640z" stroke="#7ab648" stroke-width="2" fill="#a3d977"/><use xlink:href="#i" transform="matrix(1,0,0,1,645,405) translate(14.939019097222214 70.10633680555556)"/><use xlink:href="#j" transform="matrix(1,0,0,1,645,405) translate(23.049913194444443 96.77734375)"/><path d="M261 220h360.9" stroke="#7ab648" stroke-width="3" fill="none"/><path d="M261 221.5h-1v-3h1zM636.9 220l-14.27 4.64v-9.28z" fill="#7ab648"/><path d="M641.75 220l-20.62 6.7v-13.4zm-17.62 2.57l7.9-2.57-7.9-2.57zM704.25 379.15h-3V322.2h3zm0-83.63h-3V261h3zM702.75 260l1.5-.05V261h-3v-1.06zM702.75 394.15l-4.64-14.27h9.3z" fill="#7ab648"/><path d="M702.75 399l-6.7-20.62h13.4zm-2.57-17.62l2.57 7.9 2.57-7.9z" fill="#7ab648"/><use xlink:href="#k" transform="matrix(1,0,0,1,644.5034722222222,295.52128999431045) translate(0 21.77734375)"/><use xlink:href="#l" transform="matrix(1,0,0,1,644.5034722222222,295.52128999431045) translate(50.65104166666667 21.77734375)"/><use xlink:href="#m" transform="matrix(1,0,0,1,644.5034722222222,295.52128999431045) translate(67.87109375 21.77734375)"/><path d="M200 289v-34.86" fill="none"/><path d="M200 289v-5.23m0-6.97v-10.46m0-6.97v-5.23" stroke="#3aa6dd" stroke-width="3" fill="none"/><path d="M201.5 290.06L200 290l-1.5.05V289h3zM201.5 254.14h-3v-.45l3-1.3z" fill="#3aa6dd"/><path d="M556.06 453.64c13.22 0 23.94 17.9 23.94 40s-10.72 40-23.94 40H364.58c-13.2 0-23.93-17.9-23.93-40s10.72-40 23.93-40z" stroke="#3aa6dd" stroke-width="2" fill="#99d2f2"/><path d="M556.06 533.64c-13.2 0-23.93-17.9-23.93-40s10.72-40 23.93-40" stroke="#3aa6dd" stroke-width="2" fill="none"/><use xlink:href="#n" transform="matrix(1,0,0,1,345.64966809264865,458.64302994561984) translate(7.433376736111114 30.606336805555557)"/><use xlink:href="#o" transform="matrix(1,0,0,1,345.64966809264865,458.64302994561984) translate(104.66644965277779 30.606336805555557)"/><use xlink:href="#p" transform="matrix(1,0,0,1,345.64966809264865,458.64302994561984) translate(25.684244791666657 57.27734375)"/><use xlink:href="#q" transform="matrix(1,0,0,1,345.64966809264865,458.64302994561984) translate(82.38997395833333 57.27734375)"/><use xlink:href="#r" transform="matrix(1,0,0,1,345.64966809264865,458.64302994561984) translate(135.04839409722223 57.27734375)"/><path d="M980 480c0 44.18-35.82 80-80 80s-80-35.82-80-80 35.82-80 80-80 80 35.82 80 80z" stroke="#ef8d22" stroke-width="2" fill="#ffc374"/><use xlink:href="#s" transform="matrix(1,0,0,1,825,405) translate(26.882595486111107 70.10633680555556)"/><use xlink:href="#t" transform="matrix(1,0,0,1,825,405) translate(37.527126736111114 96.77734375)"/><path d="M766.5 480h29.4" stroke="#000" stroke-width="5" fill="none"/><path d="M766.5 482.5h-1v-5h1zM810.9 480l-14.26 4.64v-9.28z"/><path d="M819 480l-24.86 8.08v-16.16zm-19.86 1.2l3.68-1.2-3.68-1.2z"/><path d="M280 490c0 44.18-35.82 80-80 80s-80-35.82-80-80 35.82-80 80-80 80 35.82 80 80z" stroke="#ef8d22" stroke-width="2" fill="#ffc374"/><use xlink:href="#u" transform="matrix(1,0,0,1,125,415) translate(30.42534722222222 83.44184027777777)"/><path d="M200 409v-14.9" stroke="#000" stroke-width="5" fill="none"/><path d="M202.5 410.08L200 410h-.68l-1.82.07V409h5zM204.64 393.36h-9.28L200 379.1z"/><path d="M208.08 395.86h-16.16L200 371zm-9.27-5h2.4l-1.2-3.68z"/><path d="M842.1 423.4h-37.8v-.2h-17.95" fill="none"/><path d="M842.1 423.4h-7m-13.98 0h-13.98m-13.8-.2h-7" stroke="#000" stroke-width="3" fill="none"/><path d="M845 421.9l-2.9 2.93v-2.92h2.9zM785.62 427.85l-14.27-4.64 14.27-4.62z"/><path d="M787.12 429.9l-20.62-6.7 20.62-6.7zm-10.9-6.7l7.9 2.6v-5.16z"/><use xlink:href="#v" transform="matrix(1,0,0,1,790.1822352759303,366.0647448962779) translate(0 21.77734375)"/><use xlink:href="#w" transform="matrix(1,0,0,1,790.1822352759303,366.0647448962779) translate(0 48.44835069444444)"/><path d="M400 320h120v80H400z" stroke="#000" stroke-opacity="0" fill="#fff" fill-opacity="0"/><use xlink:href="#x" transform="matrix(1,0,0,1,405,325) translate(44.40972222222222 22.1796875)"/><use xlink:href="#y" transform="matrix(1,0,0,1,405,325) translate(1.2847222222222143 40.5390625)"/><use xlink:href="#z" transform="matrix(1,0,0,1,405,325) translate(13.5546875 58.8984375)"/><path d="M860 260h200v63H860z" stroke="#000" stroke-opacity="0" fill="#fff" fill-opacity="0"/><use xlink:href="#A" transform="matrix(1,0,0,1,865,265) translate(1.40625 14.21875)"/><use xlink:href="#B" transform="matrix(1,0,0,1,865,265) translate(53.36805555555556 14.21875)"/><use xlink:href="#C" transform="matrix(1,0,0,1,865,265) translate(78.36805555555556 14.21875)"/><use xlink:href="#D" transform="matrix(1,0,0,1,865,265) translate(145.59027777777777 14.21875)"/><use xlink:href="#E" transform="matrix(1,0,0,1,865,265) translate(10.789930555555571 32.578125)"/><use xlink:href="#F" transform="matrix(1,0,0,1,865,265) translate(119.86111111111111 32.578125)"/><use xlink:href="#G" transform="matrix(1,0,0,1,865,265) translate(10.277777777777771 50.9375)"/><use xlink:href="#H" transform="matrix(1,0,0,1,865,265) translate(45.90277777777777 50.9375)"/><use xlink:href="#I" transform="matrix(1,0,0,1,865,265) translate(88.92361111111111 50.9375)"/><path d="M400 360l-5.24.16-4.77.43-4.44.66-4.25.9-4.17 1.17-4.26 1.47-4.57 1.9-5.34 2.6-7.86 4.44-21.9 13.16" fill="none"/><path d="M400 360l-3.14.1m-4.17.24l-2.7.25-3.53.52m-4.1.82l-1.06.23-4.17 1.16-.8.27m-3.94 1.4l-4.1 1.7-1.66.8m-3.75 1.83l-5.47 3.1m-3.62 2.1l-5.36 3.22m-3.6 2.15l-5.36 3.23m-3.58 2.15l-2.7 1.62" stroke="#666" stroke-width="2" fill="none"/><path d="M400 360l-.1-1h.1z" fill="#666"/><path d="M319.9 393.78l10.55-10.67 4.25 8.24z" stroke="#666" stroke-width="2" fill="#666"/><path d="M960 323l-.05 2.52-.15 2.3-.22 2.1-.28 1.93-.34 1.8-.4 1.67-.44 1.58-.48 1.48-.52 1.4-.57 1.35-.6 1.3-.65 1.22-.68 1.2-.74 1.15-.78 1.12-.83 1.1-.9 1.07-.94 1.05-1.03 1.05-1.1 1.03-1.2 1.03-1.3 1.03-1.42 1.02-1.56 1.05-1.74 1.05-1.96 1.07-2.2 1.1-2.56 1.13-3 1.18-3.6 1.26-4.53 1.37-6.1 1.56-9.95 2.07-42.43 7.9-8 2.05-5.7 1.72" fill="none"/><path d="M960 323l-.05 2.52-.04.6m-.36 4.1l-.24 1.63-.34 1.8-.4 1.67-.27 1m-1.37 3.9l-.38.9-.6 1.3-.65 1.23-.68 1.2-.57.88m-2.47 3.32l-.2.24-.95 1.05-1.03 1.05-1.1 1.03-1.14.98m-3.32 2.5l-1.02.67-1.74 1.05-1.96 1.07-.64.3m-3.76 1.76l-.36.17-3 1.18-2.45.86m-3.94 1.24l-1.73.53-4.28 1.1m-4.03.92l-6.1 1.28m-4.05.8l-6.1 1.13m-4.1.76l-6.1 1.14m-4.07.76l-6.1 1.14m-4.1.76l-6.1 1.13m-4.06.8l-6.02 1.55m-4 1.14l-2.96.9" stroke="#666" stroke-width="2" fill="none"/><path d="M961 323.15l-1-.15h1z" fill="#666"/><path d="M837.16 385.63l11.5-9.62 3.47 8.6z" stroke="#666" stroke-width="2" fill="#666"/><path d="M740 640h237v80H740z" stroke="#000" stroke-opacity="0" fill="#fff" fill-opacity="0"/><use xlink:href="#J" transform="matrix(1,0,0,1,745.0000000000001,645) translate(25.609375 21.6796875)"/><use xlink:href="#K" transform="matrix(1,0,0,1,745.0000000000001,645) translate(92.75347222222223 21.6796875)"/><use xlink:href="#L" transform="matrix(1,0,0,1,745.0000000000001,645) translate(167.25 21.6796875)"/><use xlink:href="#M" transform="matrix(1,0,0,1,745.0000000000001,645) translate(190.80034722222223 21.6796875)"/><use xlink:href="#N" transform="matrix(1,0,0,1,745.0000000000001,645) translate(7.349826388888886 40.0390625)"/><use xlink:href="#L" transform="matrix(1,0,0,1,745.0000000000001,645) translate(91.33420138888889 40.0390625)"/><use xlink:href="#O" transform="matrix(1,0,0,1,745.0000000000001,645) translate(114.88454861111111 40.0390625)"/><use xlink:href="#P" transform="matrix(1,0,0,1,745.0000000000001,645) translate(160.38802083333334 40.0390625)"/><use xlink:href="#Q" transform="matrix(1,0,0,1,745.0000000000001,645) translate(8.113715277777771 58.3984375)"/><use xlink:href="#G" transform="matrix(1,0,0,1,745.0000000000001,645) translate(93.04427083333333 58.3984375)"/><use xlink:href="#R" transform="matrix(1,0,0,1,745.0000000000001,645) translate(128.66927083333331 58.3984375)"/><use xlink:href="#S" transform="matrix(1,0,0,1,745.0000000000001,645) translate(162.08940972222223 58.3984375)"/><path d="M819.8 640l-.36-14.87-1-13.38-1.92-14.97-6.36-38.37" fill="none"/><path d="M819.8 640l-.07-3.1m-.1-4.1l-.16-6.17m-.23-4.1l-.46-6.16m-.3-4.1l-.05-.52-.7-5.6m-.53-4.08l-.68-5.3-.14-.82m-.67-4.06l-1-6.1m-.67-4.05l-1-6.1m-.7-4.05l-1-6.08m-.67-4.06l-.5-3.05" stroke="#666" stroke-width="2" fill="none"/><path d="M820.8 640h-1.05l1.05-.03z" fill="#666"/><path d="M807.7 543.62l6.9 13.3-9.14 1.53z" stroke="#666" stroke-width="2" fill="#666"/><path d="M261 330h40.34v147.42h17.25" stroke="#000" stroke-width="5" fill="none"/><path d="M261 332.5h-1v-5h1zM333.6 477.42l-14.27 4.63v-9.27z"/><path d="M341.68 477.42l-24.85 8.07v-16.16zm-19.85 1.2l3.67-1.2-3.67-1.2z"/><path d="M260 683.86c0 4.6-26.86 8.35-60 8.35s-60-3.73-60-8.34V617.1c0-4.62 26.86-8.36 60-8.36s60 3.74 60 8.35z" stroke="#3aa6dd" stroke-width="2" fill="#99d2f2"/><path d="M260 617.1c0 4.6-26.86 8.33-60 8.33s-60-3.73-60-8.34" stroke="#3aa6dd" stroke-width="2" fill="none"/><g><use xlink:href="#c" transform="matrix(1,0,0,1,145,630.4345723239777) translate(31.215277777777782 23.606336805555557)"/><use xlink:href="#d" transform="matrix(1,0,0,1,145,630.4345723239777) translate(2.3307291666666643 50.27734375)"/></g><path d="M343.7 515.84h-41.35v134.63H284.1" stroke="#000" stroke-width="5" fill="none"/><path d="M345.77 518.34h-2.08v-5h.07zM283.36 655.1l-14.27-4.63 14.26-4.63z"/><path d="M285.86 658.55L261 650.47l24.86-8.07zm-8.68-8.08l3.68 1.2v-2.4z"/><path d="M200 607.74V594.1" stroke="#000" stroke-width="5" fill="none"/><path d="M202.5 608.84l-2.5-.1-2.5.08v-1.08h5zM204.64 593.36h-9.28L200 579.1z"/><path d="M208.08 595.86h-16.16L200 571zm-9.27-5h2.4l-1.2-3.68z"/><path d="M639 514.2h-38.33" stroke="#000" stroke-width="5" fill="none"/><path d="M640 516.7h-1v-5h1zM599.93 518.83l-14.26-4.63 14.26-4.64z"/><path d="M602.43 522.27l-24.85-8.07 24.85-8.08zm-8.67-8.07l3.67 1.2V513z"/><path d="M828.6 518.2h-31.05v.13h-7.96" stroke="#000" stroke-width="5" fill="none"/><path d="M830.07 518.88l1.1 1.83h-2.58v-4.67zM788.86 522.97l-14.27-4.64 14.26-4.63z"/><path d="M791.36 526.4l-24.86-8.07 24.86-8.07zm-8.68-8.07l3.68 1.2v-2.4z"/><path d="M579.55 480h36.36" stroke="#000" stroke-width="5" fill="none"/><path d="M579.55 482.5h-.57l-.2-1.45-.92-3.55h1.7zM630.9 480l-14.26 4.64v-9.28z"/><path d="M639 480l-24.86 8.08v-16.16zm-19.86 1.2l3.68-1.2-3.68-1.2z"/><defs><path d="M309-666V0H145v-1470h834v178H309v448h590v178H309" id="T"/><path d="M1045-1054c0 232-123 433-359 433H309V0H145v-1470h541c223-3 359 184 359 416zm-736-246v509h322c164 0 246-86 246-258 0-167-80-251-240-251H309" id="U"/><path d="M1004-1024c-41-191-147-307-354-307-109 0-198 43-268 129-90 111-135 272-135 481 0 208 42 364 126 469 65 81 159 121 281 121 181 0 319-133 356-296 11-43 17-106 19-189H653v-170h529V0h-106l-39-190C956-53 811 39 630 39c-146 0-266-55-361-166C142-276 79-473 79-716c0-254 60-456 181-605 101-125 231-188 388-188 230 0 419 151 481 339 12 35 24 83 33 146h-158" id="V"/><path d="M801-428H317L191 0H23l454-1470h184L1098 0H920zM367-606h375l-180-651" id="W"/><g id="a"><use transform="matrix(0.010850694444444444,0,0,0.010850694444444444,0,0)" xlink:href="#T"/><use transform="matrix(0.010850694444444444,0,0,0.010850694444444444,11.1328125,0)" xlink:href="#U"/><use transform="matrix(0.010850694444444444,0,0,0.010850694444444444,23.28559027777778,0)" xlink:href="#V"/><use transform="matrix(0.010850694444444444,0,0,0.010850694444444444,37.467447916666664,0)" xlink:href="#W"/></g><path d="M921-862v-608h164V0H921v-684H293V0H129v-1470h164v608h628" id="X"/><path d="M467 29C211 29 59-250 59-536c0-179 44-324 133-434 71-88 164-132 280-132 110 0 196 47 269 132 174 204 174 663 0 867C668-18 580 29 467 29zm-1-158c272 5 310-487 190-697-45-79-107-118-186-118-180 0-257 206-257 407 0 204 72 405 253 408" id="Y"/><path d="M81-764c0-204 137-338 337-338s322 130 331 336H607c-7-119-73-178-200-178-104-1-188 50-183 152 5 106 50 103 160 141 187 65 399 87 394 329-4 213-145 358-364 353C178 26 55-100 53-344h143c8 149 78 215 228 217 122 2 207-54 207-168 0-37-10-66-31-86-51-51-222-90-315-119C149-542 81-629 81-764" id="Z"/><path d="M365 8C205 33 142-47 142-215v-706H23v-150h119v-299h147v299h144v150H289v696c-3 78 60 90 142 84V0c-22 3-44 5-66 8" id="aa"/><g id="b"><use transform="matrix(0.010850694444444444,0,0,0.010850694444444444,0,0)" xlink:href="#X"/><use transform="matrix(0.010850694444444444,0,0,0.010850694444444444,13.151041666666666,0)" xlink:href="#Y"/><use transform="matrix(0.010850694444444444,0,0,0.010850694444444444,23.28559027777778,0)" xlink:href="#Z"/><use transform="matrix(0.010850694444444444,0,0,0.010850694444444444,32.400173611111114,0)" xlink:href="#aa"/></g><path d="M268-888c57-118 119-204 251-214 13 0 26 2 38 6v185h-56c-134-7-225 137-225 287V0H129v-1071h139v183" id="ab"/><path d="M602-837L429 0H277L23-1071h161l170 850 171-850h165l173 850 179-850h148L935 0H782" id="ac"/><g id="c"><use transform="matrix(0.010850694444444444,0,0,0.010850694444444444,0,0)" xlink:href="#W"/><use transform="matrix(0.010850694444444444,0,0,0.010850694444444444,12.152777777777777,0)" xlink:href="#ab"/><use transform="matrix(0.010850694444444444,0,0,0.010850694444444444,18.21831597222222,0)" xlink:href="#ab"/><use transform="matrix(0.010850694444444444,0,0,0.010850694444444444,24.283854166666664,0)" xlink:href="#Y"/><use transform="matrix(0.010850694444444444,0,0,0.010850694444444444,34.41840277777777,0)" xlink:href="#ac"/></g><path d="M1101-1074c-2 180-54 271-168 351 111 54 131 106 145 276 10 116-1 275 26 369 9 15 23 30 44 45V0H948c-18-69-27-192-28-369-1-172-52-262-215-262H311V0H147v-1470h558c258-2 398 139 396 396zM688-801c173 0 245-85 245-256 0-162-72-243-216-243H311v499h377" id="ad"/><path d="M475-127c116 0 214-88 232-209h148C822-135 698 31 471 31 190 31 68-219 68-516c0-192 44-343 131-453 71-89 166-133 286-133 138 0 242 68 306 206 61 130 69 221 76 418H226c-3 208 81 351 249 351zm239-494c-12-186-73-313-237-321-142-6-249 151-251 321h488" id="ae"/><path d="M801-379C777-151 666 30 444 31 333 31 242-12 173-98 92-199 51-338 51-516c0-192 44-343 131-453 71-89 166-133 286-133 195 0 306 130 333 391H658c-19-136-73-231-206-231-178 0-243 201-243 411 0 129 20 227 59 296 40 72 98 108 175 108 112 0 184-84 215-252h143" id="af"/><path d="M421-1102c136 1 218 83 269 193v-561h147V0H698v-154C640-39 589 31 444 31 339 31 256-9 194-88 104-203 59-361 59-560c0-180 41-321 122-423 63-79 143-119 240-119zm31 160c-159 0-239 131-239 392 0 160 31 276 88 351 77 101 234 91 309-9 50-67 78-165 78-299 0-145-21-254-64-329-40-71-97-106-172-106" id="ag"/><path d="M1053-439C1058-186 891 0 645 0H125v-1470h531c208-5 343 159 340 370-3 150-57 243-160 307 144 65 213 163 217 354zm-221-642c0-160-84-219-248-219H289v452h294c170 0 249-70 249-233zM636-170c164 2 254-103 253-268 0-167-93-250-280-250H289v518h347" id="ah"/><path d="M447-952c-138 0-192 72-207 207H104c10-236 121-354 353-357 197-2 335 105 335 300v616c2 69 37 73 98 55V0c-23 9-61 22-86 21-107-4-143-53-151-164C568-37 498 26 342 31 170 37 59-102 61-282c2-187 98-306 267-332l243-37c62-9 78-51 78-122 0-119-67-179-202-179zm-75 834c139 0 273-110 273-252v-177c-59 44-110 42-243 68-119 24-184 59-187 181-3 107 51 180 157 180" id="ai"/><path d="M506-942c-183 0-249 156-250 358V0H109v-1470h147v547c63-102 134-179 273-179 203 0 297 149 297 373V0H679v-700c-2-156-34-242-173-242" id="aj"/><g id="d"><use transform="matrix(0.010850694444444444,0,0,0.010850694444444444,0,0)" xlink:href="#ad"/><use transform="matrix(0.010850694444444444,0,0,0.010850694444444444,13.151041666666666,0)" xlink:href="#ae"/><use transform="matrix(0.010850694444444444,0,0,0.010850694444444444,23.28559027777778,0)" xlink:href="#af"/><use transform="matrix(0.010850694444444444,0,0,0.010850694444444444,32.400173611111114,0)" xlink:href="#Y"/><use transform="matrix(0.010850694444444444,0,0,0.010850694444444444,42.53472222222223,0)" xlink:href="#ab"/><use transform="matrix(0.010850694444444444,0,0,0.010850694444444444,48.60026041666667,0)" xlink:href="#ag"/><use transform="matrix(0.010850694444444444,0,0,0.010850694444444444,58.734809027777786,0)" xlink:href="#ah"/><use transform="matrix(0.010850694444444444,0,0,0.010850694444444444,70.88758680555556,0)" xlink:href="#ai"/><use transform="matrix(0.010850694444444444,0,0,0.010850694444444444,81.02213541666667,0)" xlink:href="#aa"/><use transform="matrix(0.010850694444444444,0,0,0.010850694444444444,86.08940972222223,0)" xlink:href="#af"/><use transform="matrix(0.010850694444444444,0,0,0.010850694444444444,95.20399305555556,0)" xlink:href="#aj"/></g><g id="e"><use transform="matrix(0.010850694444444444,0,0,0.010850694444444444,0,0)" xlink:href="#W"/><use transform="matrix(0.010850694444444444,0,0,0.010850694444444444,12.152777777777777,0)" xlink:href="#ab"/><use transform="matrix(0.010850694444444444,0,0,0.010850694444444444,18.21831597222222,0)" xlink:href="#ab"/><use transform="matrix(0.010850694444444444,0,0,0.010850694444444444,24.283854166666664,0)" xlink:href="#Y"/><use transform="matrix(0.010850694444444444,0,0,0.010850694444444444,34.41840277777777,0)" xlink:href="#ac"/></g><path d="M123-1059c1-262 158-456 431-450 294 7 446 168 453 469H854c-10-189-115-299-300-299-167-1-275 90-273 255 0 100 48 162 142 189l344 97c183 51 274 182 274 394 0 289-196 438-476 443-231 4-380-115-445-275-24-59-37-138-38-239h153c3 226 123 342 338 344 178 1 315-78 310-253-5-184-86-207-257-255l-247-69c-171-49-256-166-256-351" id="ak"/><path d="M627-741c-1-111-36-201-137-201-62 0-114 26-156 77-52 64-78 158-78 281V0H109v-1071h139v157c70-125 161-188 273-188 122 0 189 74 230 174 75-100 125-174 265-174 187 0 277 157 277 361V0h-147v-692c0-167-53-250-160-250-135 1-212 152-212 289V0H627v-741" id="al"/><g id="f"><use transform="matrix(0.010850694444444444,0,0,0.010850694444444444,0,0)" xlink:href="#ak"/><use transform="matrix(0.010850694444444444,0,0,0.010850694444444444,12.152777777777777,0)" xlink:href="#af"/><use transform="matrix(0.010850694444444444,0,0,0.010850694444444444,21.267361111111107,0)" xlink:href="#aj"/><use transform="matrix(0.010850694444444444,0,0,0.010850694444444444,31.401909722222218,0)" xlink:href="#ae"/><use transform="matrix(0.010850694444444444,0,0,0.010850694444444444,41.53645833333333,0)" xlink:href="#al"/><use transform="matrix(0.010850694444444444,0,0,0.010850694444444444,56.71657986111111,0)" xlink:href="#ai"/></g><path d="M316-1470V0H154v-1470h162" id="am"/><path d="M679-659c-4-177-30-283-181-283-67 0-122 26-164 78-52 64-78 157-78 280V0H109v-1071h139v157c72-125 166-188 282-188 202 0 296 150 296 373V0H679v-659" id="an"/><path d="M441-1325c-106-19-148 15-148 121v133h148v150H293V0H146v-921H23v-150h123v-184c-3-185 109-258 295-231v161" id="ao"/><g id="g"><use transform="matrix(0.010850694444444444,0,0,0.010850694444444444,0,0)" xlink:href="#am"/><use transform="matrix(0.010850694444444444,0,0,0.010850694444444444,5.067274305555555,0)" xlink:href="#an"/><use transform="matrix(0.010850694444444444,0,0,0.010850694444444444,15.201822916666666,0)" xlink:href="#aa"/><use transform="matrix(0.010850694444444444,0,0,0.010850694444444444,20.26909722222222,0)" xlink:href="#ae"/><use transform="matrix(0.010850694444444444,0,0,0.010850694444444444,30.403645833333332,0)" xlink:href="#ab"/><use transform="matrix(0.010850694444444444,0,0,0.010850694444444444,36.46918402777778,0)" xlink:href="#ao"/><use transform="matrix(0.010850694444444444,0,0,0.010850694444444444,41.536458333333336,0)" xlink:href="#ai"/><use transform="matrix(0.010850694444444444,0,0,0.010850694444444444,51.67100694444444,0)" xlink:href="#af"/><use transform="matrix(0.010850694444444444,0,0,0.010850694444444444,60.78559027777778,0)" xlink:href="#ae"/></g><path d="M430-1102c138 0 213 80 269 188v-157h139v983c4 334-106 533-405 539-140 3-249-67-296-164-16-33-30-85-42-156h148c20 114 80 171 196 171 217 0 261-166 252-421C635-19 555 31 450 31c-174 0-288-143-334-284-110-341-37-849 314-849zm31 160c-159 0-239 130-239 391 0 161 31 277 88 352 77 101 234 91 309-9 50-67 78-165 78-299 0-145-22-254-64-329-40-70-97-106-172-106" id="ap"/><path d="M260-1071V0H113v-1071h147zm0-194H113v-205h147v205" id="aq"/><g id="h"><use transform="matrix(0.010850694444444444,0,0,0.010850694444444444,0,0)" xlink:href="#ap"/><use transform="matrix(0.010850694444444444,0,0,0.010850694444444444,10.13454861111111,0)" xlink:href="#ae"/><use transform="matrix(0.010850694444444444,0,0,0.010850694444444444,20.26909722222222,0)" xlink:href="#an"/><use transform="matrix(0.010850694444444444,0,0,0.010850694444444444,30.403645833333332,0)" xlink:href="#ae"/><use transform="matrix(0.010850694444444444,0,0,0.010850694444444444,40.53819444444444,0)" xlink:href="#ab"/><use transform="matrix(0.010850694444444444,0,0,0.010850694444444444,46.603732638888886,0)" xlink:href="#ai"/><use transform="matrix(0.010850694444444444,0,0,0.010850694444444444,56.73828125,0)" xlink:href="#aa"/><use transform="matrix(0.010850694444444444,0,0,0.010850694444444444,61.80555555555555,0)" xlink:href="#aq"/><use transform="matrix(0.010850694444444444,0,0,0.010850694444444444,65.85286458333333,0)" xlink:href="#Y"/><use transform="matrix(0.010850694444444444,0,0,0.010850694444444444,75.98741319444444,0)" xlink:href="#an"/></g><g id="i"><use transform="matrix(0.010850694444444444,0,0,0.010850694444444444,0,0)" xlink:href="#V"/><use transform="matrix(0.010850694444444444,0,0,0.010850694444444444,14.181857638888888,0)" xlink:href="#ae"/><use transform="matrix(0.010850694444444444,0,0,0.010850694444444444,24.31640625,0)" xlink:href="#an"/><use transform="matrix(0.010850694444444444,0,0,0.010850694444444444,34.450954861111114,0)" xlink:href="#ae"/><use transform="matrix(0.010850694444444444,0,0,0.010850694444444444,44.58550347222223,0)" xlink:href="#ab"/><use transform="matrix(0.010850694444444444,0,0,0.010850694444444444,50.65104166666667,0)" xlink:href="#ai"/><use transform="matrix(0.010850694444444444,0,0,0.010850694444444444,60.785590277777786,0)" xlink:href="#aa"/><use transform="matrix(0.010850694444444444,0,0,0.010850694444444444,65.85286458333334,0)" xlink:href="#ae"/><use transform="matrix(0.010850694444444444,0,0,0.010850694444444444,75.98741319444446,0)" xlink:href="#ag"/></g><g id="j"><use transform="matrix(0.010850694444444444,0,0,0.010850694444444444,0,0)" xlink:href="#aq"/><use transform="matrix(0.010850694444444444,0,0,0.010850694444444444,4.047309027777778,0)" xlink:href="#an"/><use transform="matrix(0.010850694444444444,0,0,0.010850694444444444,14.181857638888888,0)" xlink:href="#aa"/><use transform="matrix(0.010850694444444444,0,0,0.010850694444444444,19.249131944444443,0)" xlink:href="#ae"/><use transform="matrix(0.010850694444444444,0,0,0.010850694444444444,29.383680555555554,0)" xlink:href="#ab"/><use transform="matrix(0.010850694444444444,0,0,0.010850694444444444,35.44921875,0)" xlink:href="#ao"/><use transform="matrix(0.010850694444444444,0,0,0.010850694444444444,40.51649305555556,0)" xlink:href="#ai"/><use transform="matrix(0.010850694444444444,0,0,0.010850694444444444,50.65104166666667,0)" xlink:href="#af"/><use transform="matrix(0.010850694444444444,0,0,0.010850694444444444,59.765625,0)" xlink:href="#ae"/></g><path d="M260-1470V0H113v-1470h147" id="ar"/><g id="k"><use transform="matrix(0.010850694444444444,0,0,0.010850694444444444,0,0)" xlink:href="#U"/><use transform="matrix(0.010850694444444444,0,0,0.010850694444444444,12.152777777777777,0)" xlink:href="#ar"/><use transform="matrix(0.010850694444444444,0,0,0.010850694444444444,16.200086805555554,0)" xlink:href="#ai"/><use transform="matrix(0.010850694444444444,0,0,0.010850694444444444,26.334635416666664,0)" xlink:href="#af"/><use transform="matrix(0.010850694444444444,0,0,0.010850694444444444,35.44921875,0)" xlink:href="#ae"/></g><path d="M775-1165c-5 184-90 282-217 383l220 319c21-69 37-146 49-229h139c-10 123-42 248-97 375L1084 0H892L780-168C680-40 616 26 432 31 200 38 74-140 74-376c0-104 25-191 74-260 35-51 101-111 198-181-79-125-121-167-127-322-7-180 113-331 287-331 164 0 274 135 269 305zM221-375c0 197 197 315 363 207 38-25 78-64 117-121L429-694c-79 61-133 112-161 152-31 46-47 102-47 167zm277-937c-85 0-137 69-136 155 0 70 40 156 119 258 86-66 151-166 151-255 0-90-48-158-134-158" id="as"/><use transform="matrix(0.010850694444444444,0,0,0.010850694444444444,0,0)" xlink:href="#as" id="l"/><path d="M433-127c176 0 242-168 242-354v-590h147V0H683v-166C625-46 553 28 405 31c-189 4-290-134-290-332v-770h147v711c0 155 57 233 171 233" id="at"/><g id="m"><use transform="matrix(0.010850694444444444,0,0,0.010850694444444444,0,0)" xlink:href="#ad"/><use transform="matrix(0.010850694444444444,0,0,0.010850694444444444,13.151041666666666,0)" xlink:href="#Y"/><use transform="matrix(0.010850694444444444,0,0,0.010850694444444444,23.28559027777778,0)" xlink:href="#at"/><use transform="matrix(0.010850694444444444,0,0,0.010850694444444444,33.420138888888886,0)" xlink:href="#aa"/><use transform="matrix(0.010850694444444444,0,0,0.010850694444444444,38.48741319444444,0)" xlink:href="#ae"/></g><g id="n"><use transform="matrix(0.010850694444444444,0,0,0.010850694444444444,0,0)" xlink:href="#W"/><use transform="matrix(0.010850694444444444,0,0,0.010850694444444444,12.152777777777777,0)" xlink:href="#af"/><use transform="matrix(0.010850694444444444,0,0,0.010850694444444444,21.267361111111107,0)" xlink:href="#af"/><use transform="matrix(0.010850694444444444,0,0,0.010850694444444444,30.38194444444444,0)" xlink:href="#ae"/><use transform="matrix(0.010850694444444444,0,0,0.010850694444444444,40.51649305555555,0)" xlink:href="#ar"/><use transform="matrix(0.010850694444444444,0,0,0.010850694444444444,44.56380208333333,0)" xlink:href="#ae"/><use transform="matrix(0.010850694444444444,0,0,0.010850694444444444,54.69835069444444,0)" xlink:href="#ab"/><use transform="matrix(0.010850694444444444,0,0,0.010850694444444444,60.763888888888886,0)" xlink:href="#ai"/><use transform="matrix(0.010850694444444444,0,0,0.010850694444444444,70.8984375,0)" xlink:href="#aa"/><use transform="matrix(0.010850694444444444,0,0,0.010850694444444444,75.96571180555556,0)" xlink:href="#Y"/><use transform="matrix(0.010850694444444444,0,0,0.010850694444444444,86.10026041666667,0)" xlink:href="#ab"/></g><g id="o"><use transform="matrix(0.010850694444444444,0,0,0.010850694444444444,0,0)" xlink:href="#aq"/><use transform="matrix(0.010850694444444444,0,0,0.010850694444444444,4.047309027777778,0)" xlink:href="#an"/><use transform="matrix(0.010850694444444444,0,0,0.010850694444444444,14.181857638888888,0)" xlink:href="#aa"/><use transform="matrix(0.010850694444444444,0,0,0.010850694444444444,19.249131944444443,0)" xlink:href="#ae"/><use transform="matrix(0.010850694444444444,0,0,0.010850694444444444,29.383680555555554,0)" xlink:href="#ab"/><use transform="matrix(0.010850694444444444,0,0,0.010850694444444444,35.44921875,0)" xlink:href="#ao"/><use transform="matrix(0.010850694444444444,0,0,0.010850694444444444,40.51649305555556,0)" xlink:href="#ai"/><use transform="matrix(0.010850694444444444,0,0,0.010850694444444444,50.65104166666667,0)" xlink:href="#af"/><use transform="matrix(0.010850694444444444,0,0,0.010850694444444444,59.765625,0)" xlink:href="#ae"/></g><path d="M115-536c0-407 123-685 283-965h102c-143 319-227 547-227 982 0 418 85 588 229 943h-99C310 251 246 114 209 12c-63-173-94-356-94-548" id="au"/><path d="M631-139c214 0 318-177 354-402h158c-29 161-65 275-106 342C955-65 815 39 617 39c-153 0-277-59-372-176C131-279 74-478 74-733c0-253 58-450 173-593 99-122 229-183 391-183 292 0 462 197 493 481H974c-32-188-149-303-334-303-110 0-200 43-269 129-86 107-129 265-129 475 0 301 89 588 389 588" id="av"/><path d="M145 0v-219h176v202c-1 189-60 295-176 318v-94c59-9 89-78 90-207h-90" id="aw"/><g id="p"><use transform="matrix(0.010850694444444444,0,0,0.010850694444444444,0,0)" xlink:href="#au"/><use transform="matrix(0.010850694444444444,0,0,0.010850694444444444,6.065538194444445,0)" xlink:href="#U"/><use transform="matrix(0.010850694444444444,0,0,0.010850694444444444,18.21831597222222,0)" xlink:href="#av"/><use transform="matrix(0.010850694444444444,0,0,0.010850694444444444,31.36935763888889,0)" xlink:href="#am"/><use transform="matrix(0.010850694444444444,0,0,0.010850694444444444,36.43663194444444,0)" xlink:href="#ae"/><use transform="matrix(0.010850694444444444,0,0,0.010850694444444444,46.57118055555556,0)" xlink:href="#aw"/></g><g id="q"><use transform="matrix(0.010850694444444444,0,0,0.010850694444444444,0,0)" xlink:href="#av"/><use transform="matrix(0.010850694444444444,0,0,0.010850694444444444,13.151041666666666,0)" xlink:href="#W"/><use transform="matrix(0.010850694444444444,0,0,0.010850694444444444,25.303819444444443,0)" xlink:href="#U"/><use transform="matrix(0.010850694444444444,0,0,0.010850694444444444,37.45659722222222,0)" xlink:href="#am"/><use transform="matrix(0.010850694444444444,0,0,0.010850694444444444,42.52387152777778,0)" xlink:href="#aw"/></g><path d="M321-219V0H145v-219h176" id="ax"/><path d="M444-541c0 408-123 684-283 965H59c146-319 227-559 227-981 0-417-87-590-229-944h99c93 175 158 312 194 412 63 173 94 355 94 548" id="ay"/><g id="r"><use transform="matrix(0.010850694444444444,0,0,0.010850694444444444,0,0)" xlink:href="#ax"/><use transform="matrix(0.010850694444444444,0,0,0.010850694444444444,5.067274305555555,0)" xlink:href="#ax"/><use transform="matrix(0.010850694444444444,0,0,0.010850694444444444,10.13454861111111,0)" xlink:href="#ax"/><use transform="matrix(0.010850694444444444,0,0,0.010850694444444444,15.201822916666666,0)" xlink:href="#ay"/></g><g id="s"><use transform="matrix(0.010850694444444444,0,0,0.010850694444444444,0,0)" xlink:href="#W"/><use transform="matrix(0.010850694444444444,0,0,0.010850694444444444,12.152777777777777,0)" xlink:href="#af"/><use transform="matrix(0.010850694444444444,0,0,0.010850694444444444,21.267361111111107,0)" xlink:href="#af"/><use transform="matrix(0.010850694444444444,0,0,0.010850694444444444,30.38194444444444,0)" xlink:href="#ae"/><use transform="matrix(0.010850694444444444,0,0,0.010850694444444444,40.51649305555555,0)" xlink:href="#ar"/><use transform="matrix(0.010850694444444444,0,0,0.010850694444444444,44.56380208333333,0)" xlink:href="#ae"/><use transform="matrix(0.010850694444444444,0,0,0.010850694444444444,54.69835069444444,0)" xlink:href="#ab"/><use transform="matrix(0.010850694444444444,0,0,0.010850694444444444,60.763888888888886,0)" xlink:href="#ai"/><use transform="matrix(0.010850694444444444,0,0,0.010850694444444444,70.8984375,0)" xlink:href="#aa"/><use transform="matrix(0.010850694444444444,0,0,0.010850694444444444,75.96571180555556,0)" xlink:href="#ae"/><use transform="matrix(0.010850694444444444,0,0,0.010850694444444444,86.10026041666667,0)" xlink:href="#ag"/></g><g id="t"><use transform="matrix(0.010850694444444444,0,0,0.010850694444444444,0,0)" xlink:href="#ai"/><use transform="matrix(0.010850694444444444,0,0,0.010850694444444444,10.13454861111111,0)" xlink:href="#ar"/><use transform="matrix(0.010850694444444444,0,0,0.010850694444444444,14.181857638888888,0)" xlink:href="#ap"/><use transform="matrix(0.010850694444444444,0,0,0.010850694444444444,24.31640625,0)" xlink:href="#Y"/><use transform="matrix(0.010850694444444444,0,0,0.010850694444444444,34.450954861111114,0)" xlink:href="#ab"/><use transform="matrix(0.010850694444444444,0,0,0.010850694444444444,40.51649305555556,0)" xlink:href="#aq"/><use transform="matrix(0.010850694444444444,0,0,0.010850694444444444,44.56380208333333,0)" xlink:href="#aa"/><use transform="matrix(0.010850694444444444,0,0,0.010850694444444444,49.6310763888889,0)" xlink:href="#aj"/><use transform="matrix(0.010850694444444444,0,0,0.010850694444444444,59.765625,0)" xlink:href="#al"/></g><path d="M746-984C972-709 887 31 486 31c-105 0-185-50-241-149v542H98v-1495h139v157c56-108 132-188 269-188 97 0 176 40 240 118zm-265 42c-161 0-242 147-242 441 0 130 28 226 78 293 75 100 230 110 308 9 58-75 89-193 89-356 0-258-78-387-233-387" id="az"/><g id="u"><use transform="matrix(0.010850694444444444,0,0,0.010850694444444444,0,0)" xlink:href="#W"/><use transform="matrix(0.010850694444444444,0,0,0.010850694444444444,12.152777777777777,0)" xlink:href="#az"/><use transform="matrix(0.010850694444444444,0,0,0.010850694444444444,22.28732638888889,0)" xlink:href="#az"/><use transform="matrix(0.010850694444444444,0,0,0.010850694444444444,32.421875,0)" xlink:href="#ar"/><use transform="matrix(0.010850694444444444,0,0,0.010850694444444444,36.46918402777778,0)" xlink:href="#aq"/><use transform="matrix(0.010850694444444444,0,0,0.010850694444444444,40.51649305555556,0)" xlink:href="#af"/><use transform="matrix(0.010850694444444444,0,0,0.010850694444444444,49.631076388888886,0)" xlink:href="#ai"/><use transform="matrix(0.010850694444444444,0,0,0.010850694444444444,59.765625,0)" xlink:href="#aa"/><use transform="matrix(0.010850694444444444,0,0,0.010850694444444444,64.83289930555556,0)" xlink:href="#aq"/><use transform="matrix(0.010850694444444444,0,0,0.010850694444444444,68.88020833333333,0)" xlink:href="#Y"/><use transform="matrix(0.010850694444444444,0,0,0.010850694444444444,79.01475694444444,0)" xlink:href="#an"/></g><g id="v"><use transform="matrix(0.010850694444444444,0,0,0.010850694444444444,0,0)" xlink:href="#ad"/><use transform="matrix(0.010850694444444444,0,0,0.010850694444444444,13.151041666666666,0)" xlink:href="#Y"/><use transform="matrix(0.010850694444444444,0,0,0.010850694444444444,23.28559027777778,0)" xlink:href="#ac"/></g><g id="w"><use transform="matrix(0.010850694444444444,0,0,0.010850694444444444,0,0)" xlink:href="#aq"/><use transform="matrix(0.010850694444444444,0,0,0.010850694444444444,4.047309027777778,0)" xlink:href="#an"/><use transform="matrix(0.010850694444444444,0,0,0.010850694444444444,14.181857638888888,0)" xlink:href="#ag"/><use transform="matrix(0.010850694444444444,0,0,0.010850694444444444,24.31640625,0)" xlink:href="#aq"/><use transform="matrix(0.010850694444444444,0,0,0.010850694444444444,28.363715277777775,0)" xlink:href="#af"/><use transform="matrix(0.010850694444444444,0,0,0.010850694444444444,37.478298611111114,0)" xlink:href="#ae"/><use transform="matrix(0.010850694444444444,0,0,0.010850694444444444,47.61284722222223,0)" xlink:href="#Z"/></g><path fill="#666" d="M828-1263c0-55 41-106 95-102 140 10 133 224 150 372 25 219 36 341 36 365 0 117-18 227-54 328C982-97 873 5 730 5 530 5 400-187 341-570c-16 123-24 243-24 360C317-70 280 0 205 0c-53 0-99-44-99-97 0-314 85-1024 186-1197 27-46 56-71 94-71 52 0 87 33 104 99 5 21 8 92 8 213 0 153 26 313 55 481 43 253 101 379 172 379 116 0 183-303 183-438 0-120-80-513-80-632" id="aA"/><path fill="#666" d="M609-1364c323 0 519 229 519 557 0 183-51 357-152 522C860-95 716 0 544 0 271 0 97-283 97-570c0-191 38-362 113-512 95-188 228-282 399-282zm319 550c0-231-116-347-349-347-81 0-151 81-210 243-48 132-72 248-72 348 0 161 47 272 142 333 35 23 69 34 100 34 113 0 208-76 287-229 68-131 102-258 102-382" id="aB"/><g id="x"><use transform="matrix(0.008680555555555556,0,0,0.008680555555555556,0,0)" xlink:href="#aA"/><use transform="matrix(0.008680555555555556,0,0,0.008680555555555556,10.590277777777779,0)" xlink:href="#aB"/></g><path fill="#666" d="M196-1063c0-251 371-378 608-255 71 37 119 87 150 151 35 73-14 152-87 150-26 0-63-25-111-73s-102-72-162-72c-72 0-200 37-200 99 0 43 47 111 142 203 145 142 234 232 266 271 95 116 142 225 142 328C944-95 791 0 613 0 494 0 170-60 118-111c-29-29-48-55-48-87-1-69 67-120 140-92h-2c162 59 305 89 429 89 69 0 104-25 104-75 0-69-47-151-142-245-86-86-177-167-261-254-98-100-142-199-142-288" id="aC"/><path fill="#666" d="M369 0C201 0 119-119 119-294c0-119 26-272 77-457 80-290 99-377 125-524 7-13 27-26 60-41 71-33 211-49 419-49 129 0 193 36 193 107 0 50-48 105-99 101-142-10-258-9-397 20-11 59-34 158-69 297 146-57 246-85 301-85 53 0 100 43 100 96 0 43-23 80-73 99-127 49-178 54-389 129-29 119-44 224-44 314 0 58 10 87 30 87 66 0 151-30 256-90s173-91 205-91c50 0 101 49 101 99 0 30-19 57-51 87C794-129 500 0 369 0" id="aD"/><path fill="#666" d="M432-1365c342 0 623 232 623 568 0 219-132 374-395 466 145 90 217 167 217 230 0 52-52 98-104 96-17 0-39-10-66-29-90-65-203-166-304-203v78C403-53 368 0 299 0c-53 0-99-44-99-97v-374c17-145 25-361 25-650-2 5-10 7-24 7-53 2-99-46-99-99 0-112 194-152 330-152zm257 786c221-128 209-317 21-469-89-71-178-111-268-119-1 97-2 329-2 698 90-27 172-66 249-110" id="aE"/><path fill="#666" d="M270-1365c53 0 101 46 100 99-5 357-80 777-80 1073C290-64 254 0 183 0 132 0 82-50 82-101c0-298 47-662 55-976 2-76 19-138 34-189 19-66 52-99 99-99" id="aF"/><path fill="#666" d="M922-654c-9 182 20 369 29 555 5 90-140 139-183 58-2-3-13-31-31-85-54-160-191-263-414-306-19 75-30 243-58 360-12 50-51 72-98 72-55 0-99-53-99-108 1-366 195-896 360-1117 69-92 141-140 222-140 182 0 273 207 273 621 0 19 1 49-1 90zM724-476v-400c-20-103-13-145-35-225-11-40-25-60-40-60-32 0-83 65-154 195-56 103-99 215-130 336 137 27 256 79 359 154" id="aG"/><path fill="#666" d="M759-451c68-46 151 19 151 87 0 27-17 54-48 86C767-182 491 0 329 0 186 0 114-109 114-326c0-169 46-507 46-695 0-139-8-341 120-344 53-2 103 46 101 99-4-2-27 472-40 636-16 198-27 312-27 343 0 57 11 86 32 86 61 0 169-62 325-185 19-16 49-38 88-65" id="aH"/><path fill="#666" d="M981-266c49-2 92 51 92 99 0 65-78 111-235 140C740-9 634 0 521 0 381 0 189-69 189-191c0-93 52-207 157-340 30-39 126-147 289-324 104-113 157-190 157-232 0-53-70-80-210-80-152 0-488 76-488-91 0-143 266-107 411-107 340 0 510 87 510 261 0 71-44 165-136 278-136 168-404 420-475 602 150 56 400-33 577-42" id="aI"/><path fill="#666" d="M46-1227c0-128 188-119 328-120 79-1 391-35 488-35 99 0 148 35 148 105 0 65-48 98-145 98-76 0-153 3-232 8 1 179-14 796-13 976C622-79 604-4 510 0c-53 2-99-44-99-97v-270c21-312 24-505 22-785-143 13-240 20-291 20-64 0-96-32-96-95" id="aJ"/><path fill="#666" d="M829-1263c0-55 42-106 96-102 141 10 133 224 150 372 25 219 36 341 36 365 0 117-18 227-55 328C983-97 875 5 732 5 532 5 402-187 343-570c-16 123-24 243-24 360C319-70 282 0 207 0c-53 0-99-44-99-97 0-315 85-1025 186-1197 27-46 56-71 93-71 53 0 88 33 105 99 5 21 8 92 8 213 0 153 26 313 55 481 43 253 101 379 172 379 116 0 183-303 183-438 0-120-81-513-81-632" id="aK"/><g id="y"><use transform="matrix(0.008680555555555556,0,0,0.008680555555555556,0,0)" xlink:href="#aC"/><use transform="matrix(0.008680555555555556,0,0,0.008680555555555556,9.288194444444445,0)" xlink:href="#aD"/><use transform="matrix(0.008680555555555556,0,0,0.008680555555555556,18.94965277777778,0)" xlink:href="#aE"/><use transform="matrix(0.008680555555555556,0,0,0.008680555555555556,28.802083333333336,0)" xlink:href="#aF"/><use transform="matrix(0.008680555555555556,0,0,0.008680555555555556,32.66493055555556,0)" xlink:href="#aG"/><use transform="matrix(0.008680555555555556,0,0,0.008680555555555556,41.93576388888889,0)" xlink:href="#aH"/><use transform="matrix(0.008680555555555556,0,0,0.008680555555555556,49.887152777777786,0)" xlink:href="#aF"/><use transform="matrix(0.008680555555555556,0,0,0.008680555555555556,53.75000000000001,0)" xlink:href="#aI"/><use transform="matrix(0.008680555555555556,0,0,0.008680555555555556,63.89756944444445,0)" xlink:href="#aG"/><use transform="matrix(0.008680555555555556,0,0,0.008680555555555556,73.16840277777779,0)" xlink:href="#aJ"/><use transform="matrix(0.008680555555555556,0,0,0.008680555555555556,82.35243055555557,0)" xlink:href="#aF"/><use transform="matrix(0.008680555555555556,0,0,0.008680555555555556,86.2152777777778,0)" xlink:href="#aB"/><use transform="matrix(0.008680555555555556,0,0,0.008680555555555556,96.80555555555557,0)" xlink:href="#aK"/></g><path fill="#666" d="M925-1365c52 0 103 46 101 97 0 23-38 113-113 270-125 261-227 519-304 774-21 71-38 117-49 139-29 57-63 85-104 85-109-1-156-321-181-456-30-165-184-659-203-805-7-52 44-104 97-104 40 0 72 25 99 73 46 84 66 250 92 370 23 106 68 262 121 471 71-167 173-418 306-754 20-51 35-86 46-104 25-37 55-56 92-56" id="aL"/><path fill="#666" d="M925-1365c50 0 101 48 101 99 0 165-53 833-94 1164C923-33 882 0 831 0c-53 0-101-49-101-102 0-145 29-345 45-490-111 9-252 35-425 78-6 58-9 145-9 260 0 35-10 86-22 153C307-33 270 0 220 0c-53 0-103-48-102-101 6-372 65-764 56-1090-3-108 18-171 108-174 55-2 99 41 99 97v544c167-44 304-66 413-66 7-75 10-182 10-321 8-35 11-88 22-155s48-99 99-99" id="aM"/><path fill="#666" d="M387-1365c369 0 678 217 678 573 0 172-83 346-249 522C647-90 478 0 307 0 194 0 137-80 137-239c0-257 30-558 68-915-53-11-80-43-80-95 0-56 32-93 97-108 26-6 81-8 165-8zm21 204c-15 76-47 491-72 917 0 13 1 27 2 41 116-22 231-92 346-210 120-123 180-241 180-355-1-196-67-277-209-343-74-35-157-50-247-50" id="aN"/><path fill="#666" d="M384-1365c53 0 100 49 99 102-2 120-63 371-89 500-14 67-29 167-63 297-18 68-54 101-101 101-53 0-99-48-99-101 0-146 109-743 156-826 27-47 55-73 97-73zM181-241c55 0 118 60 118 115C299-60 240 0 174 0 124 0 73-45 73-96c0-52 52-145 108-145" id="aO"/><g id="z"><use transform="matrix(0.008680555555555556,0,0,0.008680555555555556,0,0)" xlink:href="#aB"/><use transform="matrix(0.008680555555555556,0,0,0.008680555555555556,10.590277777777779,0)" xlink:href="#aL"/><use transform="matrix(0.008680555555555556,0,0,0.008680555555555556,19.87847222222222,0)" xlink:href="#aD"/><use transform="matrix(0.008680555555555556,0,0,0.008680555555555556,29.539930555555557,0)" xlink:href="#aE"/><use transform="matrix(0.008680555555555556,0,0,0.008680555555555556,39.392361111111114,0)" xlink:href="#aM"/><use transform="matrix(0.008680555555555556,0,0,0.008680555555555556,49.30555555555556,0)" xlink:href="#aD"/><use transform="matrix(0.008680555555555556,0,0,0.008680555555555556,58.96701388888889,0)" xlink:href="#aG"/><use transform="matrix(0.008680555555555556,0,0,0.008680555555555556,68.23784722222223,0)" xlink:href="#aN"/><use transform="matrix(0.008680555555555556,0,0,0.008680555555555556,78.07291666666667,0)" xlink:href="#aO"/></g><path fill="#666" d="M430-1365c342 0 623 231 623 568 0 219-131 374-394 466 145 90 217 167 217 230 0 52-53 98-105 96-17 0-39-10-66-29-90-66-201-166-304-203v78C401-53 366 0 297 0c-53 0-99-44-99-97v-374c17-145 26-361 26-650-3 5-11 7-24 7-53 2-99-46-99-99 0-112 193-152 329-152zm258 786c221-128 209-317 20-469-89-71-178-111-268-119-1 97-1 329-1 698 89-27 172-65 249-110" id="aP"/><path fill="#666" d="M108-101c0-144 39-657 39-763 0-78 7-179 29-235 46-116 122-195 235-232 69-23 183-34 342-34 78 0 117 33 117 99 0 83-48 100-162 100-195-1-308 48-343 145-25 70-17 205-22 302 195-81 317-121 367-121 54 0 101 56 101 110 0 37-23 69-72 88-119 47-231 77-408 144-1 97 0 317-24 397C287-35 257 0 208 0c-50 0-100-50-100-101" id="aQ"/><g id="A"><use transform="matrix(0.008680555555555556,0,0,0.008680555555555556,0,0)" xlink:href="#aP"/><use transform="matrix(0.008680555555555556,0,0,0.008680555555555556,9.82638888888889,0)" xlink:href="#aD"/><use transform="matrix(0.008680555555555556,0,0,0.008680555555555556,19.48784722222222,0)" xlink:href="#aQ"/><use transform="matrix(0.008680555555555556,0,0,0.008680555555555556,27.222222222222218,0)" xlink:href="#aD"/><use transform="matrix(0.008680555555555556,0,0,0.008680555555555556,36.88368055555556,0)" xlink:href="#aE"/></g><g id="B"><use transform="matrix(0.008680555555555556,0,0,0.008680555555555556,0,0)" xlink:href="#aJ"/><use transform="matrix(0.008680555555555556,0,0,0.008680555555555556,9.184027777777779,0)" xlink:href="#aB"/></g><path fill="#666" d="M362 0C195 0 113-120 113-294c0-119 25-272 76-457 80-290 99-377 125-524 7-13 27-26 60-41 71-33 211-49 420-49 128 0 192 36 192 107 0 50-48 105-99 101-142-10-258-9-397 20-11 59-33 158-68 297 145-57 245-85 300-85 53 0 101 43 101 96 0 43-23 79-74 99-127 49-178 54-389 129-29 119-44 224-44 314 0 58 10 87 30 87 66 0 151-30 256-90s173-91 205-91c51 0 101 49 101 99 0 30-19 57-51 87C788-129 492 0 362 0" id="aR"/><g id="C"><use transform="matrix(0.008680555555555556,0,0,0.008680555555555556,0,0)" xlink:href="#aR"/><use transform="matrix(0.008680555555555556,0,0,0.008680555555555556,9.522569444444445,0)" xlink:href="#aK"/><use transform="matrix(0.008680555555555556,0,0,0.008680555555555556,20.147569444444443,0)" xlink:href="#aJ"/><use transform="matrix(0.008680555555555556,0,0,0.008680555555555556,29.331597222222218,0)" xlink:href="#aE"/><use transform="matrix(0.008680555555555556,0,0,0.008680555555555556,39.18402777777778,0)" xlink:href="#aF"/><use transform="matrix(0.008680555555555556,0,0,0.008680555555555556,43.046875,0)" xlink:href="#aD"/><use transform="matrix(0.008680555555555556,0,0,0.008680555555555556,52.708333333333336,0)" xlink:href="#aC"/></g><path fill="#666" d="M807-1260c0-54 40-105 96-105 43 0 76 24 99 73 18 39 27 131 27 277 0 274-20 485-61 631C895-128 757 0 555 0 385 0 262-90 189-270c-51-126-76-289-76-488 0-289 18-467 53-534 26-49 59-73 99-73 52 0 105 52 99 104-14 128-48 300-48 513 0 128 14 239 41 332 41 144 108 216 201 216 105 0 179-98 225-293 29-124 45-265 45-422 0-66-21-279-21-345" id="aS"/><path fill="#666" d="M621-594c163 0 326 124 326 282S736 5 573 0C387-6 235-158 176-307c-32-81-50-172-50-277 0-291 84-515 251-672 123-114 255-148 401-60 53 32 90 76 121 123 44 67-17 153-85 152-24 0-53-21-88-61s-68-60-100-60c-180 0-298 367-298 568 0 189 80 393 249 393 76 0 150-57 167-118-25-60-81-80-164-74-50 4-95-50-95-100 0-67 45-101 136-101" id="aT"/><g id="D"><use transform="matrix(0.008680555555555556,0,0,0.008680555555555556,0,0)" xlink:href="#aS"/><use transform="matrix(0.008680555555555556,0,0,0.008680555555555556,9.895833333333334,0)" xlink:href="#aC"/><use transform="matrix(0.008680555555555556,0,0,0.008680555555555556,19.18402777777778,0)" xlink:href="#aF"/><use transform="matrix(0.008680555555555556,0,0,0.008680555555555556,23.046875,0)" xlink:href="#aK"/><use transform="matrix(0.008680555555555556,0,0,0.008680555555555556,33.671875,0)" xlink:href="#aT"/></g><path fill="#666" d="M773-362c52-3 103 50 103 101 0 27-17 56-48 89C762-102 548 0 418 0 210 0 81-204 84-422c3-221 73-486 152-640 103-201 220-303 358-303 167 0 251 128 251 385 0 123-35 185-106 185-48 0-101-46-99-94 2-77 27-278-39-278-46 0-94 47-150 138-89 144-168 415-168 602 0 146 56 219 169 219 46 0 106-26 180-77s122-77 141-77" id="aU"/><path fill="#666" d="M104-254c0-80 75-479 73-483 4-23 17-167 40-434-41-20-62-51-62-94 0-67 48-100 145-100 431 0 647 127 647 380 0 161-86 280-258 359 120 81 180 177 180 290 0 173-116 256-272 302C523-12 452 0 384 0 197 0 104-85 104-254zm642-722c0-105-210-177-326-186-9 140-24 282-43 426 246-59 369-139 369-240zm-77 638c-27-89-136-153-326-193-27 162-48 229-34 323 82 18 157 3 237-24 75-26 116-61 123-106" id="aV"/><g id="E"><use transform="matrix(0.008680555555555556,0,0,0.008680555555555556,0,0)" xlink:href="#aP"/><use transform="matrix(0.008680555555555556,0,0,0.008680555555555556,9.82638888888889,0)" xlink:href="#aD"/><use transform="matrix(0.008680555555555556,0,0,0.008680555555555556,19.48784722222222,0)" xlink:href="#aU"/><use transform="matrix(0.008680555555555556,0,0,0.008680555555555556,27.890625,0)" xlink:href="#aB"/><use transform="matrix(0.008680555555555556,0,0,0.008680555555555556,38.48090277777778,0)" xlink:href="#aE"/><use transform="matrix(0.008680555555555556,0,0,0.008680555555555556,48.333333333333336,0)" xlink:href="#aN"/><use transform="matrix(0.008680555555555556,0,0,0.008680555555555556,58.16840277777778,0)" xlink:href="#aV"/><use transform="matrix(0.008680555555555556,0,0,0.008680555555555556,67.07465277777777,0)" xlink:href="#aG"/><use transform="matrix(0.008680555555555556,0,0,0.008680555555555556,76.3454861111111,0)" xlink:href="#aJ"/><use transform="matrix(0.008680555555555556,0,0,0.008680555555555556,85.52951388888889,0)" xlink:href="#aU"/><use transform="matrix(0.008680555555555556,0,0,0.008680555555555556,93.93229166666666,0)" xlink:href="#aM"/></g><path fill="#666" d="M297-227c58 0 102 43 102 101 0 114-87 338-191 338-55 0-104-53-102-108 1-36 40-91 56-123 6-11 14-47 27-107 14-68 51-101 108-101" id="aW"/><g id="F"><use transform="matrix(0.008680555555555556,0,0,0.008680555555555556,0,0)" xlink:href="#aF"/><use transform="matrix(0.008680555555555556,0,0,0.008680555555555556,3.8628472222222223,0)" xlink:href="#aK"/><use transform="matrix(0.008680555555555556,0,0,0.008680555555555556,14.487847222222221,0)" xlink:href="#aN"/><use transform="matrix(0.008680555555555556,0,0,0.008680555555555556,24.322916666666664,0)" xlink:href="#aF"/><use transform="matrix(0.008680555555555556,0,0,0.008680555555555556,28.185763888888886,0)" xlink:href="#aU"/><use transform="matrix(0.008680555555555556,0,0,0.008680555555555556,36.58854166666666,0)" xlink:href="#aD"/><use transform="matrix(0.008680555555555556,0,0,0.008680555555555556,46.25,0)" xlink:href="#aC"/><use transform="matrix(0.008680555555555556,0,0,0.008680555555555556,54.73958333333333,0)" xlink:href="#aW"/></g><g id="G"><use transform="matrix(0.008680555555555556,0,0,0.008680555555555556,0,0)" xlink:href="#aK"/><use transform="matrix(0.008680555555555556,0,0,0.008680555555555556,10.625,0)" xlink:href="#aB"/><use transform="matrix(0.008680555555555556,0,0,0.008680555555555556,21.21527777777778,0)" xlink:href="#aJ"/></g><path fill="#666" d="M111-254c0-80 75-479 73-483 3-23 17-167 40-434-41-20-62-51-62-94 0-67 48-100 145-100 431 0 647 127 647 380 0 161-86 280-258 359 120 81 180 177 180 290 0 173-116 256-272 302C530-12 459 0 391 0 204 0 111-85 111-254zm642-722c0-105-210-177-326-186-9 140-24 282-43 426 246-59 369-139 369-240zm-77 638c-27-89-136-153-326-193-27 162-48 229-34 323 82 18 157 3 237-24 75-26 116-61 123-106" id="aX"/><path fill="#666" d="M534 0c-54 1-104-40-104-96 0-45 18-79 58-93 38-13 78-19 114-33 139-52 207-229 207-522-71 158-178 237-321 237-171 0-289-87-355-261-43-114-65-273-65-478 0-79 34-119 101-119 58 0 96 44 106 134 10 91 12 183 22 275 13 113 52 188 113 226 57 35 92 27 153-4 115-60 203-251 231-413 5-26 9-65 25-113s51-71 94-71c48 0 84 32 102 97 48 177 15 638-17 760-49 186-136 325-271 414C667-20 603 0 534 0" id="aY"/><g id="H"><use transform="matrix(0.008680555555555556,0,0,0.008680555555555556,0,0)" xlink:href="#aX"/><use transform="matrix(0.008680555555555556,0,0,0.008680555555555556,9.010416666666668,0)" xlink:href="#aY"/><use transform="matrix(0.008680555555555556,0,0,0.008680555555555556,18.94965277777778,0)" xlink:href="#aJ"/><use transform="matrix(0.008680555555555556,0,0,0.008680555555555556,28.133680555555557,0)" xlink:href="#aD"/></g><g id="I"><use transform="matrix(0.008680555555555556,0,0,0.008680555555555556,0,0)" xlink:href="#aG"/><use transform="matrix(0.008680555555555556,0,0,0.008680555555555556,9.270833333333334,0)" xlink:href="#aN"/><use transform="matrix(0.008680555555555556,0,0,0.008680555555555556,19.10590277777778,0)" xlink:href="#aN"/><use transform="matrix(0.008680555555555556,0,0,0.008680555555555556,28.940972222222218,0)" xlink:href="#aE"/><use transform="matrix(0.008680555555555556,0,0,0.008680555555555556,38.79340277777778,0)" xlink:href="#aD"/><use transform="matrix(0.008680555555555556,0,0,0.008680555555555556,48.454861111111114,0)" xlink:href="#aC"/><use transform="matrix(0.008680555555555556,0,0,0.008680555555555556,57.74305555555556,0)" xlink:href="#aC"/><use transform="matrix(0.008680555555555556,0,0,0.008680555555555556,67.03125,0)" xlink:href="#aD"/><use transform="matrix(0.008680555555555556,0,0,0.008680555555555556,76.69270833333331,0)" xlink:href="#aC"/><use transform="matrix(0.008680555555555556,0,0,0.008680555555555556,85.98090277777777,0)" xlink:href="#aO"/></g><path fill="#666" d="M614-594c163 0 326 124 326 282C940-155 729 5 567 0 380-5 228-157 169-307c-32-81-50-172-50-277 0-291 84-515 251-672 123-114 254-148 400-60 53 32 92 76 123 123 43 67-18 153-86 152-24 0-53-21-88-61s-68-60-99-60c-180 0-299 367-299 568 0 189 80 393 249 393 77 0 149-57 167-118-25-60-81-80-164-74-50 4-95-50-95-100 0-67 45-101 136-101" id="aZ"/><path fill="#666" d="M497-1365c50 0 101 53 99 102C621-1286 247-19 246-72c-25 48-57 72-94 72C103 0 48-41 48-92c0-33 18-110 53-231 48-167 138-465 271-894 5-16 12-40 26-72 22-51 56-76 99-76" id="ba"/><path fill="#666" d="M488-1365c273 0 550 113 550 360 0 140-81 265-244 374-130 87-276 146-439 180-8 56-16 299-32 372-12 53-47 79-94 79-53 0-99-48-99-101 0-200 54-864 49-1044-37-23-56-56-56-99 0-39 25-69 73-90s145-31 292-31zm348 355c0-132-280-161-454-151-1 136-1 303-1 501 100-31 192-72 276-122 119-70 179-146 179-228" id="bb"/><path fill="#666" d="M806-1260c0-54 39-105 95-105 43 0 76 24 99 73 18 39 27 131 27 277 0 274-20 484-61 631C894-128 756 0 553 0 384 0 262-90 188-270c-51-126-77-289-77-488 0-289 18-467 53-534 26-49 59-73 99-73 53 0 105 52 99 104-14 128-48 300-48 513 0 128 14 239 41 332 41 144 108 216 201 216 105 0 180-98 226-293 29-124 44-265 44-422 0-66-20-279-20-345" id="bc"/><path fill="#666" d="M46-1227c0-128 188-119 328-120 79-1 391-35 488-35 99 0 148 35 148 105 0 65-48 98-145 98-76 0-153 3-232 8 1 179-14 796-13 976C622-79 604-4 510 0c-53 2-99-44-99-97v-270c21-312 24-505 22-785-143 13-240 20-291 20-64 0-96-32-96-95" id="bd"/><g id="J"><use transform="matrix(0.008680555555555556,0,0,0.008680555555555556,0,0)" xlink:href="#aZ"/><use transform="matrix(0.008680555555555556,0,0,0.008680555555555556,9.21875,0)" xlink:href="#aD"/><use transform="matrix(0.008680555555555556,0,0,0.008680555555555556,18.880208333333336,0)" xlink:href="#aJ"/><use transform="matrix(0.008680555555555556,0,0,0.008680555555555556,28.06423611111111,0)" xlink:href="#ba"/><use transform="matrix(0.008680555555555556,0,0,0.008680555555555556,33.68055555555556,0)" xlink:href="#bb"/><use transform="matrix(0.008680555555555556,0,0,0.008680555555555556,42.88194444444444,0)" xlink:href="#bc"/><use transform="matrix(0.008680555555555556,0,0,0.008680555555555556,52.751736111111114,0)" xlink:href="#bd"/></g><path fill="#666" d="M188 0C127 1 82-61 96-128c102-498 136-682 239-1056 16-58 29-97 39-118 39-81 152-87 186 3 8 21 18 60 27 118 29 181 79 412 149 693 44-195 133-594 228-824 15-37 48-53 86-53 50 0 89 31 100 97 19 117 18 225 53 381 45 201 158 605 162 785 1 54-41 102-95 102-46 0-83-20-96-65-38-130-44-258-87-432-40-161-61-264-70-309-35 138-86 345-147 622-13 58-23 96-30 117-29 83-132 87-176 19-11-18-25-49-39-97-63-219-122-453-173-703-35 145-85 365-140 660-11 60-19 101-29 123-20 43-51 65-95 65" id="be"/><g id="K"><use transform="matrix(0.008680555555555556,0,0,0.008680555555555556,0,0)" xlink:href="#aC"/><use transform="matrix(0.008680555555555556,0,0,0.008680555555555556,9.288194444444445,0)" xlink:href="#aJ"/><use transform="matrix(0.008680555555555556,0,0,0.008680555555555556,18.47222222222222,0)" xlink:href="#aE"/><use transform="matrix(0.008680555555555556,0,0,0.008680555555555556,28.32465277777778,0)" xlink:href="#aD"/><use transform="matrix(0.008680555555555556,0,0,0.008680555555555556,37.986111111111114,0)" xlink:href="#aG"/><use transform="matrix(0.008680555555555556,0,0,0.008680555555555556,47.25694444444445,0)" xlink:href="#be"/><use transform="matrix(0.008680555555555556,0,0,0.008680555555555556,59.98263888888889,0)" xlink:href="#aC"/></g><g id="L"><use transform="matrix(0.008680555555555556,0,0,0.008680555555555556,0,0)" xlink:href="#aB"/><use transform="matrix(0.008680555555555556,0,0,0.008680555555555556,10.590277777777779,0)" xlink:href="#aQ"/></g><use transform="matrix(0.008680555555555556,0,0,0.008680555555555556,0,0)" xlink:href="#aA" id="M"/><g id="N"><use transform="matrix(0.008680555555555556,0,0,0.008680555555555556,0,0)" xlink:href="#aD"/><use transform="matrix(0.008680555555555556,0,0,0.008680555555555556,9.661458333333334,0)" xlink:href="#aH"/><use transform="matrix(0.008680555555555556,0,0,0.008680555555555556,17.61284722222222,0)" xlink:href="#aD"/><use transform="matrix(0.008680555555555556,0,0,0.008680555555555556,27.274305555555557,0)" xlink:href="#be"/><use transform="matrix(0.008680555555555556,0,0,0.008680555555555556,40,0)" xlink:href="#aD"/><use transform="matrix(0.008680555555555556,0,0,0.008680555555555556,49.661458333333336,0)" xlink:href="#aK"/><use transform="matrix(0.008680555555555556,0,0,0.008680555555555556,60.286458333333336,0)" xlink:href="#aJ"/><use transform="matrix(0.008680555555555556,0,0,0.008680555555555556,69.47048611111111,0)" xlink:href="#aC"/></g><g id="O"><use transform="matrix(0.008680555555555556,0,0,0.008680555555555556,0,0)" xlink:href="#aY"/><use transform="matrix(0.008680555555555556,0,0,0.008680555555555556,9.93923611111111,0)" xlink:href="#aB"/><use transform="matrix(0.008680555555555556,0,0,0.008680555555555556,20.52951388888889,0)" xlink:href="#aS"/><use transform="matrix(0.008680555555555556,0,0,0.008680555555555556,30.425347222222218,0)" xlink:href="#aE"/></g><g id="P"><use transform="matrix(0.008680555555555556,0,0,0.008680555555555556,0,0)" xlink:href="#aC"/><use transform="matrix(0.008680555555555556,0,0,0.008680555555555556,9.288194444444445,0)" xlink:href="#aU"/><use transform="matrix(0.008680555555555556,0,0,0.008680555555555556,17.69097222222222,0)" xlink:href="#aM"/><use transform="matrix(0.008680555555555556,0,0,0.008680555555555556,27.604166666666664,0)" xlink:href="#aD"/><use transform="matrix(0.008680555555555556,0,0,0.008680555555555556,37.265625,0)" xlink:href="#be"/><use transform="matrix(0.008680555555555556,0,0,0.008680555555555556,49.99131944444445,0)" xlink:href="#aG"/></g><path fill="#666" d="M492-1365c272 0 549 114 549 360 0 140-81 265-244 374-130 87-276 146-439 180-7 56-15 301-32 372-12 53-46 79-94 79-53 0-99-48-99-101 0-201 55-864 50-1044-38-23-57-56-57-99 0-39 24-69 72-90s147-31 294-31zm348 355c0-132-280-161-454-151-1 136-2 303-2 501 100-31 192-72 276-122 120-70 180-146 180-228" id="bf"/><g id="Q"><use transform="matrix(0.008680555555555556,0,0,0.008680555555555556,0,0)" xlink:href="#aN"/><use transform="matrix(0.008680555555555556,0,0,0.008680555555555556,9.835069444444445,0)" xlink:href="#aG"/><use transform="matrix(0.008680555555555556,0,0,0.008680555555555556,19.10590277777778,0)" xlink:href="#aJ"/><use transform="matrix(0.008680555555555556,0,0,0.008680555555555556,28.289930555555557,0)" xlink:href="#aG"/><use transform="matrix(0.008680555555555556,0,0,0.008680555555555556,37.56076388888889,0)" xlink:href="#aJ"/><use transform="matrix(0.008680555555555556,0,0,0.008680555555555556,46.74479166666667,0)" xlink:href="#aY"/><use transform="matrix(0.008680555555555556,0,0,0.008680555555555556,56.684027777777786,0)" xlink:href="#bf"/><use transform="matrix(0.008680555555555556,0,0,0.008680555555555556,65.91145833333334,0)" xlink:href="#aD"/><use transform="matrix(0.008680555555555556,0,0,0.008680555555555556,75.09548611111111,0)" xlink:href="#aW"/></g><g id="R"><use transform="matrix(0.008680555555555556,0,0,0.008680555555555556,0,0)" xlink:href="#aX"/><use transform="matrix(0.008680555555555556,0,0,0.008680555555555556,9.010416666666668,0)" xlink:href="#aS"/><use transform="matrix(0.008680555555555556,0,0,0.008680555555555556,18.90625,0)" xlink:href="#aC"/></g><path fill="#666" d="M1319-1365c51 0 104 50 101 100-10 151-188 568-251 746-42 119-107 332-145 435-41 112-162 111-205 2-9-23-20-69-34-138-17-86-44-213-77-384-29 121-72 278-128 471-24 85-42 143-123 143-41 0-71-22-90-66-8-19-18-59-29-120-39-219-218-896-246-1087-8-52 44-102 97-102 45 0 77 25 99 73 7 15 12 53 23 113 33 173 101 434 160 701 72-277 121-491 147-642 10-57 21-94 27-114 29-93 161-81 184 7 6 22 11 66 11 133 0 150 43 362 100 635l239-724c8-25 20-62 43-109 25-50 60-73 97-73" id="bg"/><g id="S"><use transform="matrix(0.008680555555555556,0,0,0.008680555555555556,0,0)" xlink:href="#bg"/><use transform="matrix(0.008680555555555556,0,0,0.008680555555555556,12.413194444444445,0)" xlink:href="#aB"/><use transform="matrix(0.008680555555555556,0,0,0.008680555555555556,23.003472222222225,0)" xlink:href="#aE"/><use transform="matrix(0.008680555555555556,0,0,0.008680555555555556,32.85590277777778,0)" xlink:href="#aN"/><use transform="matrix(0.008680555555555556,0,0,0.008680555555555556,42.69097222222222,0)" xlink:href="#aC"/><use transform="matrix(0.008680555555555556,0,0,0.008680555555555556,51.979166666666664,0)" xlink:href="#aO"/></g></defs></g></svg>