<?xml version="1.0" encoding="UTF-8" standalone="no"?>
<!-- Created with Inkscape (http://www.inkscape.org/) -->

<svg
   xmlns:dc="http://purl.org/dc/elements/1.1/"
   xmlns:cc="http://creativecommons.org/ns#"
   xmlns:rdf="http://www.w3.org/1999/02/22-rdf-syntax-ns#"
   xmlns:svg="http://www.w3.org/2000/svg"
   xmlns="http://www.w3.org/2000/svg"
   xmlns:sodipodi="http://sodipodi.sourceforge.net/DTD/sodipodi-0.dtd"
   xmlns:inkscape="http://www.inkscape.org/namespaces/inkscape"
   width="128"
   height="128"
   viewBox="0 0 33.866667 33.866667"
   version="1.1"
   id="svg8"
   sodipodi:docname="cerata.svg"
   inkscape:version="0.92.3 (2405546, 2018-03-11)">
  <defs
     id="defs2" />
  <sodipodi:namedview
     id="base"
     pagecolor="#ffffff"
     bordercolor="#666666"
     borderopacity="1.0"
     inkscape:pageopacity="0.0"
     inkscape:pageshadow="2"
     inkscape:zoom="2.8"
     inkscape:cx="58.463649"
     inkscape:cy="70.125168"
     inkscape:document-units="mm"
     inkscape:current-layer="g1050"
     showgrid="true"
     units="px"
     inkscape:window-width="1920"
     inkscape:window-height="1019"
     inkscape:window-x="0"
     inkscape:window-y="0"
     inkscape:window-maximized="1">
    <inkscape:grid
       spacingx="2.1166667"
       spacingy="2.1166667"
       dotted="false"
       type="xygrid"
       id="grid815" />
  </sodipodi:namedview>
  <metadata
     id="metadata5">
    <rdf:RDF>
      <cc:Work
         rdf:about="">
        <dc:format>image/svg+xml</dc:format>
        <dc:type
           rdf:resource="http://purl.org/dc/dcmitype/StillImage" />
        <dc:title></dc:title>
      </cc:Work>
    </rdf:RDF>
  </metadata>
  <g
     inkscape:label="Layer 1"
     inkscape:groupmode="layer"
     id="layer1"
     transform="translate(0,-263.13334)">
    <g
       id="g1050"
       transform="matrix(0.2205882,0,0,0.2205882,-1.7431352,232.29462)">
      <g
         id="g1095"
         transform="translate(-5.3342971,0.56447143)">
        <path
           style="fill:#cf2345;fill-opacity:1;stroke:none;stroke-width:0.9172225;stroke-linecap:butt;stroke-linejoin:miter;stroke-miterlimit:4;stroke-dasharray:none;stroke-opacity:1"
           d="m 75.325411,249.02222 c 0,0 -2.434284,-9.07819 -3.397531,-13.6754 -1.596059,-7.61738 -3.578438,-16.7881 -3.94025,-23.01351 -0.87387,-15.03594 1.834449,-37.42148 3.668894,-45.03473 1.834444,-7.61324 3.66889,-13.66751 3.66889,-13.66751 0,0 1.834446,6.05427 3.668892,13.66751 1.834446,7.61325 4.542759,29.99879 3.668888,45.03473 -0.361814,6.22541 -2.344193,15.39613 -3.940252,23.01351 -0.963248,4.59721 -3.397531,13.6754 -3.397531,13.6754 z"
           id="path821"
           inkscape:connector-curvature="0"
           sodipodi:nodetypes="casscssac" />
        <path
           style="fill:#ab1f96;fill-opacity:1;stroke:none;stroke-width:0.9172225;stroke-linecap:butt;stroke-linejoin:miter;stroke-miterlimit:4;stroke-dasharray:none;stroke-opacity:1"
           d="m 90.00097,278.37334 c 0,0 -2.434284,-9.07819 -3.397532,-13.6754 -1.596061,-7.61737 -3.578439,-16.78809 -3.940253,-23.01351 -0.873871,-15.03594 1.094484,-30.19506 3.668897,-45.03473 0.806293,-4.6477 3.668888,-13.66751 3.668888,-13.66751 0,0 2.862593,9.01981 3.668888,13.66751 2.574408,14.83967 4.542756,29.99879 3.668887,45.03473 -0.361816,6.22542 -2.344195,15.39614 -3.94025,23.01351 -0.963248,4.59721 -3.397525,13.6754 -3.397525,13.6754 z"
           id="path821-3"
           inkscape:connector-curvature="0"
           sodipodi:nodetypes="casacasac" />
        <path
           style="fill:#ff6940;fill-opacity:1;stroke:none;stroke-width:0.9172225;stroke-linecap:butt;stroke-linejoin:miter;stroke-miterlimit:4;stroke-dasharray:none;stroke-opacity:1"
           d="m 60.649847,278.37334 c 0,0 -2.434283,-9.07819 -3.397531,-13.6754 -1.596059,-7.61737 -3.578437,-16.78809 -3.940249,-23.01351 -0.873871,-15.03594 1.094481,-30.19506 3.668893,-45.03473 0.806293,-4.6477 3.668891,-13.66751 3.668891,-13.66751 0,0 2.862596,9.01981 3.668889,13.66751 2.574412,14.83967 4.333493,29.9881 3.668886,45.03473 -0.343428,7.77522 -2.34419,15.39614 -3.940249,23.01351 -0.963248,4.59721 -3.39753,13.6754 -3.39753,13.6754 z"
           id="path821-9"
           inkscape:connector-curvature="0"
           sodipodi:nodetypes="casacaaac" />
        <path
           style="fill:#5d118c;fill-opacity:1;stroke:none;stroke-width:0.9172225;stroke-linecap:butt;stroke-linejoin:miter;stroke-miterlimit:4;stroke-dasharray:none;stroke-opacity:1"
           d="m 104.67653,249.02222 c 0,0 -2.43428,-9.07819 -3.39753,-13.6754 -1.596051,-7.61738 -3.57843,-16.7881 -3.940246,-23.01351 -0.873869,-15.03594 1.834448,-37.42148 3.668886,-45.03473 1.83445,-7.61324 3.66889,-13.66751 3.66889,-13.66751 0,0 1.83445,6.05427 3.6689,13.66751 1.83444,7.61325 4.54274,29.99879 3.66887,45.03473 -0.36181,6.22541 -2.34417,15.39613 -3.94024,23.01351 -0.96324,4.59721 -3.39753,13.6754 -3.39753,13.6754 z"
           id="path821-5"
           inkscape:connector-curvature="0"
           sodipodi:nodetypes="casscssac" />
        <path
           style="fill:#151259;fill-opacity:1;stroke:none;stroke-width:0.9172225;stroke-linecap:butt;stroke-linejoin:miter;stroke-miterlimit:4;stroke-dasharray:none;stroke-opacity:1"
           d="m 119.35209,278.37334 c 0,0 -2.43429,-9.07819 -3.39753,-13.6754 -1.59607,-7.61737 -3.57845,-16.78809 -3.94026,-23.01351 -0.87386,-15.03594 1.09448,-30.19506 3.66889,-45.03473 0.8063,-4.6477 3.6689,-13.66751 3.6689,-13.66751 0,0 2.86259,9.01981 3.66889,13.66751 2.5744,14.83967 4.54276,29.99879 3.66889,45.03473 -0.36181,6.22542 -2.34418,15.39614 -3.94024,23.01351 -0.96325,4.59721 -3.39754,13.6754 -3.39754,13.6754 z"
           id="path821-7"
           inkscape:connector-curvature="0"
           sodipodi:nodetypes="casacasac" />
      </g>
    </g>
  </g>
</svg>
