<svg xmlns="http://www.w3.org/2000/svg" xmlns:xlink="http://www.w3.org/1999/xlink" xmlns:lucid="lucid" width="1024" height="976"><g transform="translate(0 0)" lucid:page-tab-id="yj8v1pbUuSNf"><path d="M0 0h1024v976H0z" fill="#fff"/><g class="lucid-layer" lucid:layer-id="wN8vo~HlA.o_" display="block"><path d="M0 281.63h1024v246.9H0z" stroke="#000" stroke-opacity="0" stroke-width="2" fill="#e5e5e5"/><path d="M0 528.53h1024v243H0z" stroke="#000" stroke-opacity="0" stroke-width="2" fill="#ccc"/><path d="M0 771.53h1024V976H0z" stroke="#000" stroke-opacity="0" stroke-width="2" fill="#b2b2b2"/><path d="M0 0h1024v281.63H0z" stroke="#000" stroke-opacity="0" stroke-width="2" fill="#fff"/><path d="M0 482.45h192v46.08H0z" stroke="#000" stroke-opacity="0" stroke-width="2" fill-opacity="0"/><use xlink:href="#a" transform="matrix(1,0,0,1,5,487.4488371532663) translate(0 15.773333333333333)"/><use xlink:href="#b" transform="matrix(1,0,0,1,5,487.4488371532663) translate(0 33.55111111111111)"/><path d="M0 234.55h192v47.08H0z" stroke="#000" stroke-opacity="0" stroke-width="2" fill-opacity="0"/><use xlink:href="#c" transform="matrix(1,0,0,1,5,239.54989800090138) translate(0 16.773333333333333)"/><use xlink:href="#d" transform="matrix(1,0,0,1,5,239.54989800090138) translate(0 34.55111111111111)"/><path d="M0 771.53h192v47.08H0z" stroke="#000" stroke-opacity="0" stroke-width="2" fill-opacity="0"/><g><use xlink:href="#c" transform="matrix(1,0,0,1,5,776.5325714171694) translate(0 16.773333333333333)"/><use xlink:href="#d" transform="matrix(1,0,0,1,5,776.5325714171694) translate(0 34.55111111111111)"/></g></g><g class="lucid-layer" lucid:layer-id="pN8v~5-5BHjk" display="block"><path d="M32 880h960v64H32z" stroke="#b340c0" stroke-width="2" fill="#f281ff"/><use xlink:href="#e" transform="matrix(1,0,0,1,37,885) translate(378.52 33.120000000000005)"/><use xlink:href="#f" transform="matrix(1,0,0,1,37,885) translate(503.74 33.120000000000005)"/><path d="M32 816h960v64H32z" stroke="#b340c0" stroke-width="2" fill="#f281ff"/><use xlink:href="#g" transform="matrix(1,0,0,1,37,821) translate(303.83000000000004 33.120000000000005)"/><use xlink:href="#h" transform="matrix(1,0,0,1,37,821) translate(381.93000000000006 33.120000000000005)"/><use xlink:href="#i" transform="matrix(1,0,0,1,37,821) translate(478.79 33.120000000000005)"/><use xlink:href="#j" transform="matrix(1,0,0,1,37,821) translate(570.01 33.120000000000005)"/><path d="M32 576h320v64H32z" stroke="#40c091" stroke-width="2" fill="#81ffd1"/><use xlink:href="#k" transform="matrix(1,0,0,1,37,581) translate(71.1 33.120000000000005)"/><use xlink:href="#l" transform="matrix(1,0,0,1,37,581) translate(122.21999999999998 33.120000000000005)"/><use xlink:href="#m" transform="matrix(1,0,0,1,37,581) translate(166.94 33.120000000000005)"/><use xlink:href="#n" transform="matrix(1,0,0,1,37,581) translate(196.65999999999997 33.120000000000005)"/><path d="M352 576h320v64H352z" stroke="#408fc0" stroke-width="2" fill="#81ceff"/><use xlink:href="#o" transform="matrix(1,0,0,1,357,581) translate(53.94999999999999 33.120000000000005)"/><use xlink:href="#p" transform="matrix(1,0,0,1,357,581) translate(115.35 33.120000000000005)"/><use xlink:href="#q" transform="matrix(1,0,0,1,357,581) translate(179.79 33.120000000000005)"/><path d="M672 576h320v64H672z" stroke="#5340c0" stroke-width="2" fill="#9381ff"/><use xlink:href="#r" transform="matrix(1,0,0,1,677,581) translate(61.41999999999999 33.120000000000005)"/><use xlink:href="#s" transform="matrix(1,0,0,1,677,581) translate(176.77999999999997 33.120000000000005)"/><path d="M32 400h320v64H32z" stroke="#40c091" stroke-width="2" fill="#81ffd1"/><use xlink:href="#k" transform="matrix(1,0,0,1,37,405) translate(42.599999999999994 33.120000000000005)"/><use xlink:href="#l" transform="matrix(1,0,0,1,37,405) translate(93.71999999999998 33.120000000000005)"/><use xlink:href="#m" transform="matrix(1,0,0,1,37,405) translate(138.44 33.120000000000005)"/><use xlink:href="#t" transform="matrix(1,0,0,1,37,405) translate(168.15999999999997 33.120000000000005)"/><path d="M352 400h320v64H352z" stroke="#408fc0" stroke-width="2" fill="#81ceff"/><use xlink:href="#o" transform="matrix(1,0,0,1,357,405) translate(74.67999999999999 33.120000000000005)"/><use xlink:href="#t" transform="matrix(1,0,0,1,357,405) translate(136.07999999999998 33.120000000000005)"/><path d="M672 400h320v64H672z" stroke="#5340c0" stroke-width="2" fill="#9381ff"/><use xlink:href="#r" transform="matrix(1,0,0,1,677,405) translate(47.69999999999999 33.120000000000005)"/><use xlink:href="#t" transform="matrix(1,0,0,1,677,405) translate(163.06 33.120000000000005)"/><path d="M32 336h320v64H32z" stroke="#40c091" stroke-width="2" fill="#81ffd1"/><use xlink:href="#g" transform="matrix(1,0,0,1,37,341) translate(23.930000000000007 33.120000000000005)"/><use xlink:href="#u" transform="matrix(1,0,0,1,37,341) translate(102.03 33.120000000000005)"/><use xlink:href="#l" transform="matrix(1,0,0,1,37,341) translate(153.14999999999998 33.120000000000005)"/><use xlink:href="#m" transform="matrix(1,0,0,1,37,341) translate(197.86999999999998 33.120000000000005)"/><use xlink:href="#v" transform="matrix(1,0,0,1,37,341) translate(227.58999999999997 33.120000000000005)"/><path d="M352 336h320v64H352z" stroke="#408fc0" stroke-width="2" fill="#81ceff"/><use xlink:href="#g" transform="matrix(1,0,0,1,357,341) translate(56.00999999999999 33.120000000000005)"/><use xlink:href="#w" transform="matrix(1,0,0,1,357,341) translate(134.10999999999999 33.120000000000005)"/><use xlink:href="#v" transform="matrix(1,0,0,1,357,341) translate(195.51 33.120000000000005)"/><path d="M672 336h320v64H672z" stroke="#5340c0" stroke-width="2" fill="#9381ff"/><use xlink:href="#g" transform="matrix(1,0,0,1,677,341) translate(29.03 33.120000000000005)"/><use xlink:href="#x" transform="matrix(1,0,0,1,677,341) translate(107.13 33.120000000000005)"/><use xlink:href="#v" transform="matrix(1,0,0,1,677,341) translate(222.48999999999998 33.120000000000005)"/><path d="M32 160h320v64H32z" stroke="#7fc040" stroke-width="2" fill="#bfff81"/><use xlink:href="#y" transform="matrix(1,0,0,1,37,165) translate(10.140000000000015 33.120000000000005)"/><use xlink:href="#z" transform="matrix(1,0,0,1,37,165) translate(88.24000000000001 33.120000000000005)"/><use xlink:href="#A" transform="matrix(1,0,0,1,37,165) translate(159.1 33.120000000000005)"/><use xlink:href="#B" transform="matrix(1,0,0,1,37,165) translate(241.38 33.120000000000005)"/><path d="M352 160h320v64H352z" stroke="#c0a140" stroke-width="2" fill="#ffe081"/><use xlink:href="#g" transform="matrix(1,0,0,1,357,165) translate(19.460000000000008 33.120000000000005)"/><use xlink:href="#C" transform="matrix(1,0,0,1,357,165) translate(97.56 33.120000000000005)"/><use xlink:href="#D" transform="matrix(1,0,0,1,357,165) translate(149.78 33.120000000000005)"/><use xlink:href="#v" transform="matrix(1,0,0,1,357,165) translate(232.06 33.120000000000005)"/><path d="M672 160h320v64H672z" stroke="#c04040" stroke-width="2" fill="#ff8181"/><use xlink:href="#E" transform="matrix(1,0,0,1,677,165) translate(23.919999999999987 33.120000000000005)"/><use xlink:href="#D" transform="matrix(1,0,0,1,677,165) translate(145.32 33.120000000000005)"/><use xlink:href="#v" transform="matrix(1,0,0,1,677,165) translate(227.6 33.120000000000005)"/><path d="M192 483.5v73" stroke="#000" stroke-width="2" fill="none"/><path d="M192 468.24l4.64 14.26h-9.28zM192 571.76l-4.64-14.26h9.28z" stroke="#000" stroke-width="2"/><use xlink:href="#F" transform="matrix(1,0,0,1,200.00000000000003,545.0407804467606) translate(0 14.508000000000001)"/><path d="M512 483.5v73" stroke="#000" stroke-width="2" fill="none"/><path d="M512 468.24l4.64 14.26h-9.28zM512 571.76l-4.64-14.26h9.28z" stroke="#000" stroke-width="2"/><use xlink:href="#G" transform="matrix(1,0,0,1,520,542.9920241919325) translate(0 14.508000000000001)"/><path d="M832 483.5v73" stroke="#000" stroke-width="2" fill="none"/><path d="M832 468.24l4.64 14.26h-9.28zM832 571.76l-4.64-14.26h9.28z" stroke="#000" stroke-width="2"/><use xlink:href="#H" transform="matrix(1,0,0,1,840,535.6150388997102) translate(0 14.508000000000001)"/><use xlink:href="#I" transform="matrix(1,0,0,1,840,535.6150388997102) translate(0 32.508)"/><use xlink:href="#J" transform="matrix(1,0,0,1,840,535.6150388997102) translate(71.35199999999999 32.508)"/><path d="M352 32h320v64H352z" stroke="#c0a140" stroke-width="2" fill="#ffe081"/><use xlink:href="#K" transform="matrix(1,0,0,1,357,37) translate(69.73 33.120000000000005)"/><use xlink:href="#L" transform="matrix(1,0,0,1,357,37) translate(129.76999999999998 33.120000000000005)"/><path d="M32 32h320v64H32z" stroke="#7fc040" stroke-width="2" fill="#bfff81"/><use xlink:href="#M" transform="matrix(1,0,0,1,37,37) translate(58.99000000000001 33.120000000000005)"/><use xlink:href="#N" transform="matrix(1,0,0,1,37,37) translate(140.51 33.120000000000005)"/><path d="M672 32h320v64H672z" stroke="#c04040" stroke-width="2" fill="#ff8181"/><use xlink:href="#O" transform="matrix(1,0,0,1,677,37) translate(30.389999999999986 33.120000000000005)"/><use xlink:href="#L" transform="matrix(1,0,0,1,677,37) translate(169.11 33.120000000000005)"/><path d="M192 115.5v25" stroke="#000" stroke-width="2" fill="none"/><path d="M192 100.24l4.64 14.26h-9.28zM192 155.76l-4.64-14.26h9.28z" stroke="#000" stroke-width="2"/><path d="M512 115.5v25" stroke="#000" stroke-width="2" fill="none"/><path d="M512 100.24l4.64 14.26h-9.28zM512 155.76l-4.64-14.26h9.28z" stroke="#000" stroke-width="2"/><path d="M520 280c0 4.42-3.58 8-8 8s-8-3.58-8-8 3.58-8 8-8 8 3.58 8 8z" stroke="#000" stroke-opacity="0" stroke-width="2"/><path d="M193.8 243.38l.5 2.05.63 2.3.68 2.1.73 1.95.76 1.8.77 1.66.82 1.56.84 1.47.87 1.38.92 1.3.94 1.25.98 1.18 1.02 1.13 1.06 1.1 1.1 1.03 1.16 1 1.2.96 1.3.92 1.35.9 1.43.87 1.53.83 1.63.8 1.76.8 1.9.75 2.07.72 2.27.68 2.5.65 2.8.6 3.15.52 3.58.45 4.14.35 4.87.2h5.86l7.33-.32 9.62-.82 14.08-1.8 32.05-5.58 61.65-11.14 19.6-2.5 14.65-1.25 11.94-.5H432l8.82.35 7.83.66 7.04.88 6.4 1.1 5.88 1.23 5.44 1.4 5.05 1.52 4.74 1.65 4.48 1.77 1.98.87" stroke="#000" stroke-width="2" fill="none"/><path d="M192.32 228.22l6 13.75-9.22.9zM503 273.5l-14.72-2.8 4.47-8.12z" stroke="#000" stroke-width="2"/><path d="M512 243.5v10" stroke="#000" stroke-width="2" fill="none"/><path d="M512 228.24l4.64 14.26h-9.28zM512 268.76l-4.64-14.26h9.28z" stroke="#000" stroke-width="2"/><path d="M830.58 243.42l-.5 2.35-.6 2.32-.65 2.1-.7 1.96-.7 1.8-.76 1.7-.78 1.55-.82 1.48-.84 1.4-.88 1.3-.9 1.24-.94 1.18-.98 1.12-1.02 1.08-1.06 1.04-1.1 1-1.18.96-1.23.93-1.3.9-1.37.86-1.47.83-1.55.8-1.68.8-1.8.76-1.98.7-2.17.7-2.37.66-2.64.6-2.95.57-3.35.48-3.84.4-4.5.28-5.34.1-6.56-.17-8.4-.54-11.56-1.26-19.1-2.9-93.05-16.55-16.88-1.83-13.26-.87-11.02-.27-9.47.18-8.3.5-7.42.75-6.7 1-6.1 1.13-5.63 1.3-5.22 1.45-4.86 1.57-4.56 1.68-4.16 1.73" stroke="#000" stroke-width="2" fill="none"/><path d="M831.75 228.23l3.52 14.58-9.24-.7zM521.05 273.6l10.27-10.93 4.46 8.13z" stroke="#000" stroke-width="2"/><path d="M534.28 293.97l1.66.8 5.17 2.22 5.56 2.1 6 2 6.5 1.86 7.16 1.72 7.9 1.57 8.83 1.36 10 1.13 11.55.8 13.65.37 16.83-.24 22.62-1.3 112.12-11.1 9.47-.14 6.97.2 5.46.37 4.43.48 3.7.57 3.12.62 2.7.65 2.37.68 2.08.7 1.87.7 1.67.72 1.52.72 1.37.74 1.27.74 1.17.75 1.1.77 1 .77.93.8.88.8.83.82.78.83.74.86.7.9.65.9.6.96.6.98.54 1.03.4.8" stroke="#000" stroke-width="2" fill="none"/><path d="M521 286.48l14.7 2.98-4.56 8.07zM831.42 331.82l-7.1-13.22 9.12-1.65z" stroke="#000" stroke-width="2"/><path d="M489.73 294.07l-3.65 1.85-4.63 2.1-5 2.03-5.4 1.93-5.88 1.82-6.46 1.72-7.14 1.58-8 1.42-9.05 1.2-10.4.97-12.2.6-14.76.1-18.87-.65-27.7-2.15-94.8-10.05-11.04-.4-7.76.07-5.9.3-4.66.42-3.82.5-3.2.58-2.74.6-2.36.63-2.07.64-1.82.64-1.63.66-1.47.67-1.32.67-1.2.68-1.1.68-1.03.7-.94.68-.88.7-.8.72-.77.72-.7.74-.68.75-.63.78-.6.8-.54.8-.53.85-.5.87-.46.9-.4.93" stroke="#000" stroke-width="2" fill="none"/><path d="M502.58 285.87l-9.53 11.58-5-7.8zM192.4 331.8l-2.9-14.73 9.2 1.1z" stroke="#000" stroke-width="2"/><path d="M512 306.5v10" stroke="#000" stroke-width="2" fill="none"/><path d="M512 291.24l4.64 14.26h-9.28zM512 331.76l-4.64-14.26h9.28z" stroke="#000" stroke-width="2"/><path d="M538.94 267.88H688V304H538.94z" stroke="#000" stroke-opacity="0" stroke-width="2" fill-opacity="0"/><g><use xlink:href="#P" transform="matrix(1,0,0,1,543.9351764327325,272.8848308515951) translate(0 18.94)"/><use xlink:href="#Q" transform="matrix(1,0,0,1,543.9351764327325,272.8848308515951) translate(78.73777777777778 18.94)"/><use xlink:href="#R" transform="matrix(1,0,0,1,543.9351764327325,272.8848308515951) translate(97.49333333333334 18.94)"/></g><path d="M208 112.14h128v31.72H208z" stroke="#000" stroke-opacity="0" stroke-width="2" fill-opacity="0"/><g><use xlink:href="#S" transform="matrix(1,0,0,1,213,117.13838762007202) translate(1.346666666666664 16.44)"/><use xlink:href="#R" transform="matrix(1,0,0,1,213,117.13838762007202) translate(84.79555555555555 16.44)"/></g><path d="M526.5 112.14h128v31.72h-128z" stroke="#000" stroke-opacity="0" stroke-width="2" fill-opacity="0"/><g><use xlink:href="#S" transform="matrix(1,0,0,1,531.5,117.13838762007202) translate(1.346666666666664 16.44)"/><use xlink:href="#R" transform="matrix(1,0,0,1,531.5,117.13838762007202) translate(84.79555555555555 16.44)"/></g><path d="M845 112.14h128v31.72H845z" stroke="#000" stroke-opacity="0" stroke-width="2" fill-opacity="0"/><g><use xlink:href="#S" transform="matrix(1,0,0,1,850,117.13838762007202) translate(1.346666666666664 16.44)"/><use xlink:href="#R" transform="matrix(1,0,0,1,850,117.13838762007202) translate(84.79555555555555 16.44)"/></g><path d="M832 115.5v25" stroke="#000" stroke-width="2" fill="none"/><path d="M832 100.24l4.64 14.26h-9.28zM832 155.76l-4.64-14.26h9.28z" stroke="#000" stroke-width="2"/><path d="M32 640h320v64H32z" stroke="#40c091" stroke-width="2" fill="#81ffd1"/><g><use xlink:href="#g" transform="matrix(1,0,0,1,37,645) translate(53.170000000000016 33.120000000000005)"/><use xlink:href="#u" transform="matrix(1,0,0,1,37,645) translate(131.27 33.120000000000005)"/><use xlink:href="#T" transform="matrix(1,0,0,1,37,645) translate(182.39 33.120000000000005)"/></g><path d="M352 640h320v64H352z" stroke="#408fc0" stroke-width="2" fill="#81ceff"/><g><use xlink:href="#g" transform="matrix(1,0,0,1,357,645) translate(48.03 33.120000000000005)"/><use xlink:href="#w" transform="matrix(1,0,0,1,357,645) translate(126.13 33.120000000000005)"/><use xlink:href="#T" transform="matrix(1,0,0,1,357,645) translate(187.53 33.120000000000005)"/></g><path d="M672 640h320v64H672z" stroke="#5340c0" stroke-width="2" fill="#9381ff"/><g><use xlink:href="#g" transform="matrix(1,0,0,1,677,645) translate(21.05000000000001 33.120000000000005)"/><use xlink:href="#x" transform="matrix(1,0,0,1,677,645) translate(99.15 33.120000000000005)"/><use xlink:href="#T" transform="matrix(1,0,0,1,677,645) translate(214.51 33.120000000000005)"/></g><path d="M200.87 720.53l1.28 1 1.7 1.24 2.02 1.35 2.46 1.48 3.02 1.66 3.78 1.87 4.83 2.15 6.37 2.5 8.7 3.03 12.67 3.8 20.53 5.24 51.98 10.76 88 17.56 20.52 5.23 12.66 3.8 8.7 3 6.38 2.52 4.83 2.15 3.77 1.87 3.02 1.66 2.45 1.48 2.02 1.35 1.7 1.23 1.28 1" stroke="#000" stroke-width="2" fill="none"/><path d="M193.6 707.8l11.1 10.1-8.04 4.6zM482.8 812.2l-11.1-10.1 8.06-4.6z" stroke="#000" stroke-width="2"/><path d="M512 723.5v73" stroke="#000" stroke-width="2" fill="none"/><path d="M512 708.24l4.64 14.26h-9.28zM512 811.76l-4.64-14.26h9.28z" stroke="#000" stroke-width="2"/><path d="M823.17 720.56l-1.4 1.1-1.7 1.24-2.03 1.35-2.47 1.5-3.04 1.66-3.8 1.9-4.86 2.15-6.4 2.53-8.77 3.04-12.76 3.83-20.8 5.3L697.6 758 619 773.86l-20.78 5.3-12.76 3.82-8.77 3.04-6.4 2.53-4.88 2.16-3.8 1.9-3.03 1.66-2.48 1.5-2.04 1.34-1.7 1.24-1.4 1.1" stroke="#000" stroke-width="2" fill="none"/><path d="M830.4 707.82l-3 14.7-8.07-4.58zM543.75 812.2l3-14.7 8.07 4.56z" stroke="#000" stroke-width="2"/></g><defs><path fill="#666" d="M499-186c0 110-80 208-197 208-89 0-153-36-184-70C85 5 82 9 82 9c-7 11-8 13-15 13-11 0-11-7-11-24v-200c0-18 0-25 13-25 3 0 11 0 12 10 1 36 4 100 62 154C196-14 272-9 301-9c121-1 172-148 103-235-32-63-188-65-217-84-78-27-131-100-131-183 0-106 84-194 195-194 89 0 130 41 160 70l35-57c7-12 8-13 15-13 11 0 11 7 11 24v201c9 30-23 29-25 12-4-45-28-209-195-209-78 0-132 61-132 131 0 58 39 112 101 127l128 31c84 20 150 102 150 202" id="U"/><path fill="#666" d="M471-214C471-87 370 11 249 11 132 11 28-85 28-214c0-125 97-234 222-234 121 0 221 106 221 234zm-83-8c0-38 0-96-26-139-54-86-173-89-227 2-26 43-24 98-24 137 0 36 0 97 25 141 52 95 186 84 230-7 21-44 22-98 22-134" id="V"/><path fill="#666" d="M357-635c0 24-15 44-44 44-27 0-43-20-43-43 0-25 18-38 30-42-72-26-125 27-125 129v116h117v31H178v322c0 36 2 47 76 47h21V0C195-6 114-2 34 0v-31c67 0 78 0 78-45v-324H33v-31h79v-115c0-106 85-159 155-159 53 0 90 33 90 70" id="W"/><path fill="#666" d="M332-181c6 95-8 192-99 192-36 0-129-12-129-135v-276H19v-22c98-4 128-111 129-193h25v184h143v31H173v278c0 17 0 108 67 108 37 0 67-38 67-112v-55h25" id="X"/><path fill="#666" d="M347-330c-22-50-12-74-86-70v-31c64 5 128 2 193 0v31c-28-4-77 9-54 46l99 279c31-93 68-181 96-277 0-29-22-47-58-48v-31c56 2 111 5 166 0v31c-35 1-66 14-84 64L502-8c-4 10-7 19-20 19s-16-8-20-19L360-292 259-9c-5 14-7 20-20 20s-16-8-21-22L92-365c-12-32-24-35-74-35v-31c67 4 134 3 202 0v31c-27-3-77 8-54 45l95 267" id="Y"/><path fill="#666" d="M493-89c0 81-61 95-82 95-47 0-74-42-78-82-19 47-65 87-131 87C139 11 42-14 42-95c0-44 25-95 100-130 63-29 133-33 184-36 13-102-46-165-106-165-32 0-81 11-108 46 46 1 51 34 51 46 0 26-18 46-46 46-26 0-46-17-46-47 0-66 69-113 151-113 48 0 98 16 137 55 36 37 36 76 36 118v200c0 5 4 50 37 50 11 0 36-6 36-64v-56h25v56zm-167-51v-100c-165 6-207 89-207 144 0 50 41 85 90 85 45 0 117-34 117-129" id="Z"/><path fill="#666" d="M364-381c0 61-82 56-86 1-2-32 40-40 12-40-76 0-118 89-118 188v154c0 36 2 47 76 47h21V0C189-6 108-2 28 0v-31c67 0 78 0 78-45v-268c0-49-8-56-78-56v-31l139-11v110c14-43 50-110 123-110 43 0 74 29 74 61" id="aa"/><path fill="#666" d="M415-119c0 19-45 130-167 130C133 11 28-86 28-220c0-125 92-228 208-228 125 0 179 97 179 196 0 21-3 21-25 21H111c0 36 0 102 30 150 23 37 63 67 113 67 10 0 100 0 135-103 0-16 26-21 26-2zm-66-133c0-39-10-174-113-174-34 0-118 25-124 174h237" id="ab"/><path fill="#666" d="M423-750c18 5 24 14 15 38L97 230c1 24-42 27-41 0C169-92 287-410 402-730c3-10 7-20 21-20" id="ac"/><path fill="#666" d="M610-455h-25c-16-138-41-194-191-194H274c-47 0-49 7-49 40v253h86c96 0 106-33 106-117h25v265h-25c0-85-10-117-106-117h-86v246c0 35 0 48 95 48h33V0C254-4 132-5 33 0v-31h24c77 0 79-11 79-47v-524c0-36-2-47-79-47H33v-31h549" id="ad"/><path fill="#666" d="M624-497c0 100-108 181-228 181H227v238c0 36 2 47 79 47h24V0C237-4 128-4 35 0v-31h24c77 0 79-11 79-47v-527c0-36-2-47-79-47H35v-31h353c137 0 236 88 236 186zm-103 0c0-49 0-155-159-155-47 0-154-23-138 40v270h138c159 0 159-108 159-155" id="ae"/><path fill="#666" d="M735-242c-65 0-69 5-69 44v174c0 15 0 23-9 23-11 0-51-40-64-62-34 59-114 85-187 85C216 22 56-137 56-342s162-363 348-363c99 0 153 54 185 86l50-74c13-20 27-17 27 12v237c0 21 0 24-16 24-14 0-14-3-16-17-20-147-111-237-218-237-60 0-257 33-257 332C159-44 357-9 422-9c28 0 155-9 155-121 0-81 35-117-93-112h-32v-31c89 5 194 3 283 0v31" id="af"/><path fill="#666" d="M717 0c-89-2-185-6-275 0v-31c32 1 95 0 80-44l-53-153H222c-15 49-37 93-48 146 0 26 25 51 75 51V0C177-3 104-4 32 0v-31c54-1 94-16 112-67l207-598c5-14 8-20 24-20s18 7 23 20L614-71c6 38 42 41 103 40V0zM458-259L345-584 233-259h225" id="ag"/><g id="a"><use transform="matrix(0.017777777777777778,0,0,0.017777777777777778,0,0)" xlink:href="#U"/><use transform="matrix(0.017777777777777778,0,0,0.017777777777777778,9.884444444444444,0)" xlink:href="#V"/><use transform="matrix(0.017777777777777778,0,0,0.017777777777777778,18.773333333333333,0)" xlink:href="#W"/><use transform="matrix(0.017777777777777778,0,0,0.017777777777777778,24.213333333333335,0)" xlink:href="#X"/><use transform="matrix(0.017777777777777778,0,0,0.017777777777777778,30.631111111111114,0)" xlink:href="#Y"/><use transform="matrix(0.017777777777777778,0,0,0.017777777777777778,42.96888888888889,0)" xlink:href="#Z"/><use transform="matrix(0.017777777777777778,0,0,0.017777777777777778,51.857777777777784,0)" xlink:href="#aa"/><use transform="matrix(0.017777777777777778,0,0,0.017777777777777778,58.826666666666675,0)" xlink:href="#ab"/><use transform="matrix(0.017777777777777778,0,0,0.017777777777777778,66.72000000000001,0)" xlink:href="#ac"/><use transform="matrix(0.017777777777777778,0,0,0.017777777777777778,75.6088888888889,0)" xlink:href="#ad"/><use transform="matrix(0.017777777777777778,0,0,0.017777777777777778,87.21777777777778,0)" xlink:href="#ae"/><use transform="matrix(0.017777777777777778,0,0,0.017777777777777778,99.32444444444447,0)" xlink:href="#af"/><use transform="matrix(0.017777777777777778,0,0,0.017777777777777778,113.28,0)" xlink:href="#ag"/></g><path fill="#666" d="M651-183C651-89 561 0 428 0H36v-31h24c77 0 79-11 79-47v-527c0-36-2-47-79-47H36v-31h366c130 0 222 82 222 169 0 74-69 138-166 157 111 12 193 87 193 174zM527-514c0-53-35-138-132-138H271c-47 0-49 7-49 40v246h145c111 0 160-84 160-148zm24 330c0-67-42-160-141-160H222v273c0 33 2 40 49 40h125c103 0 155-82 155-153" id="ah"/><path fill="#666" d="M535 0L391 11v-90c-29 62-73 90-129 90-152 0-152-91-152-169v-150c0-89 0-92-78-92v-31l147-11v332c0 52 4 99 88 99 73 0 121-68 121-155v-178c0-49-8-56-78-56v-31l147-11v355c0 49 8 56 78 56V0" id="ai"/><path fill="#666" d="M535 0c-75-3-150-3-225 0v-31c67 0 78 0 78-45v-233c0-57-11-111-74-111-64 0-135 56-135 160v184c0 45 11 45 78 45V0C182-3 107-3 32 0v-31c67 0 78 0 78-45v-268c0-49-8-56-78-56v-31l141-11v105c28-62 75-105 148-105 58 0 90 21 105 37 53 55 23 235 31 344 2 30 26 30 78 30V0" id="aj"/><path fill="#666" d="M527 0L380 11v-66c-25 32-70 66-134 66C132 11 34-88 34-215c0-129 105-227 223-227 54 0 97 26 126 62v-216c0-49-8-56-78-56v-31l144-11v607c0 49 8 56 78 56V0zM117-214c0 91 43 203 134 203 43 0 88-22 118-70 11-17 11-19 11-37v-205c0-18 0-20-11-37-31-45-73-60-108-60-106 0-144 115-144 206" id="ak"/><path fill="#666" d="M508-400c-16 0-67 1-93 64L239 91c-24 57-65 114-128 114-50 0-92-36-92-81 0-59 85-55 84-1 0 16-8 38-39 42C176 233 213 83 250 0L100-365c-14-35-33-35-81-35v-31c71 5 136 2 206 0v31c-27-4-74 10-50 44L286-87l101-246c16-33 0-67-41-67v-31c54 2 108 5 162 0v31" id="al"/><g id="b"><use transform="matrix(0.017777777777777778,0,0,0.017777777777777778,0,0)" xlink:href="#ah"/><use transform="matrix(0.017777777777777778,0,0,0.017777777777777778,12.586666666666666,0)" xlink:href="#V"/><use transform="matrix(0.017777777777777778,0,0,0.017777777777777778,21.475555555555555,0)" xlink:href="#ai"/><use transform="matrix(0.017777777777777778,0,0,0.017777777777777778,31.36,0)" xlink:href="#aj"/><use transform="matrix(0.017777777777777778,0,0,0.017777777777777778,41.24444444444443,0)" xlink:href="#ak"/><use transform="matrix(0.017777777777777778,0,0,0.017777777777777778,51.12888888888888,0)" xlink:href="#Z"/><use transform="matrix(0.017777777777777778,0,0,0.017777777777777778,60.017777777777766,0)" xlink:href="#aa"/><use transform="matrix(0.017777777777777778,0,0,0.017777777777777778,66.98666666666665,0)" xlink:href="#al"/></g><path fill="#666" d="M255 0C181-3 107-3 33 0v-31c67 0 78 0 78-45v-520c0-49-8-56-78-56v-31l144-11v618c0 45 11 45 78 45V0" id="am"/><path fill="#666" d="M813 0c-75-3-150-3-225 0v-31c67 0 78 0 78-45v-233c0-57-11-111-74-111-64 0-135 56-135 160v184c0 45 11 45 78 45V0c-75-3-150-3-225 0v-31c67 0 78 0 78-45v-233c0-57-11-111-74-111-64 0-135 56-135 160v184c0 45 11 45 78 45V0C182-3 107-3 32 0v-31c67 0 78 0 78-45v-268c0-49-8-56-78-56v-31l141-11v105c28-62 75-105 148-105 45 0 119 11 133 98 17-38 61-98 145-98 58 0 90 21 105 37 53 55 23 235 31 344 2 30 26 30 78 30V0" id="an"/><path fill="#666" d="M276-187H11v-58h265v58" id="ao"/><path fill="#666" d="M106-133c5 63 46 68 128 68 61 0 119 0 172 28 51 28 65 79 65 114 0 78-104 129-222 129-122 0-221-55-221-127 0-40 32-83 92-100-60-35-51-132-13-172-25-21-47-59-47-103 0-115 158-199 268-110 42-41 86-47 106-47 60-1 66 75 22 79-30 3-40-46-13-56-30-3-57 2-100 38 92 89 17 248-121 243-19 0-60-3-99-31-17 20-17 43-17 47zm116-39c75 0 86-58 87-124 0-23 0-123-87-123-75 0-86 58-87 124 0 23 0 123 87 123zM419 79C419-25 266-7 162-7c-44 0-82 40-82 86 0 53 69 104 170 104 98 0 169-50 169-104" id="ap"/><path fill="#666" d="M287-420c8-5 30-32 37-28 11 0 11 7 11 24v101c0 19 0 24-13 24 0 0-11 0-12-9-2-31-7-121-117-121-86 0-112 41-112 76 0 58 67 71 123 82 42 8 81 16 114 48 12 12 42 42 42 95 0 72-46 139-161 139-21 0-66-1-110-43C68-9 56 7 44 11c-11 0-11-7-11-24v-132c0-18 0-25 13-25 10 0 11 4 14 17C79-68 115-11 199-11c78 0 113-40 113-91 0-72-82-88-104-92-72-14-100-20-132-46-27-22-43-50-43-85 0-56 38-123 160-123 15 0 56 0 94 28" id="aq"/><path fill="#666" d="M247 0C177-4 104-3 33 0v-31c67 0 78 0 78-45v-269c0-49-9-55-74-55v-31l140-11v367c0 39 4 44 70 44V0zM139-657c67 0 72 105-1 106-67 0-72-105 1-106" id="ar"/><path fill="#666" d="M415-119c0 10-32 130-166 130C133 11 34-88 34-216c0-124 92-232 217-232 77 0 153 39 153 107 0 30-20 47-46 47-28 0-46-20-46-46 0-13 6-43 47-46-35-36-98-37-107-37-53 0-135 42-135 205 0 161 88 204 141 204 37 0 102-12 131-105 1-11 26-17 26 0" id="as"/><g id="c"><use transform="matrix(0.017777777777777778,0,0,0.017777777777777778,0,0)" xlink:href="#ae"/><use transform="matrix(0.017777777777777778,0,0,0.017777777777777778,12.106666666666667,0)" xlink:href="#am"/><use transform="matrix(0.017777777777777778,0,0,0.017777777777777778,17.04888888888889,0)" xlink:href="#Z"/><use transform="matrix(0.017777777777777778,0,0,0.017777777777777778,25.93777777777778,0)" xlink:href="#X"/><use transform="matrix(0.017777777777777778,0,0,0.017777777777777778,32.85333333333333,0)" xlink:href="#W"/><use transform="matrix(0.017777777777777778,0,0,0.017777777777777778,38.29333333333334,0)" xlink:href="#V"/><use transform="matrix(0.017777777777777778,0,0,0.017777777777777778,47.18222222222222,0)" xlink:href="#aa"/><use transform="matrix(0.017777777777777778,0,0,0.017777777777777778,54.15111111111111,0)" xlink:href="#an"/><use transform="matrix(0.017777777777777778,0,0,0.017777777777777778,68.96000000000001,0)" xlink:href="#ao"/><use transform="matrix(0.017777777777777778,0,0,0.017777777777777778,74.88000000000001,0)" xlink:href="#Z"/><use transform="matrix(0.017777777777777778,0,0,0.017777777777777778,83.7688888888889,0)" xlink:href="#ap"/><use transform="matrix(0.017777777777777778,0,0,0.017777777777777778,92.65777777777778,0)" xlink:href="#aj"/><use transform="matrix(0.017777777777777778,0,0,0.017777777777777778,102.54222222222222,0)" xlink:href="#V"/><use transform="matrix(0.017777777777777778,0,0,0.017777777777777778,111.43111111111111,0)" xlink:href="#aq"/><use transform="matrix(0.017777777777777778,0,0,0.017777777777777778,118.43555555555555,0)" xlink:href="#X"/><use transform="matrix(0.017777777777777778,0,0,0.017777777777777778,125.35111111111111,0)" xlink:href="#ar"/><use transform="matrix(0.017777777777777778,0,0,0.017777777777777778,130.29333333333332,0)" xlink:href="#as"/></g><path fill="#666" d="M521-216C521-87 417 11 298 11c-74 0-116-50-131-73L131 0h-25v-596c0-49-8-56-78-56v-31l144-11v317c16-18 59-65 137-65 114 0 212 99 212 226zM294-11c106 0 144-115 144-206s-43-203-134-203c-24 0-79 8-118 64-11 16-11 17-11 36v206c0 18 0 21 14 42 24 37 60 61 105 61" id="at"/><g id="d"><use transform="matrix(0.017777777777777778,0,0,0.017777777777777778,0,0)" xlink:href="#at"/><use transform="matrix(0.017777777777777778,0,0,0.017777777777777778,10.382222222222222,0)" xlink:href="#V"/><use transform="matrix(0.017777777777777778,0,0,0.017777777777777778,19.27111111111111,0)" xlink:href="#ai"/><use transform="matrix(0.017777777777777778,0,0,0.017777777777777778,29.155555555555555,0)" xlink:href="#aj"/><use transform="matrix(0.017777777777777778,0,0,0.017777777777777778,39.04,0)" xlink:href="#ak"/><use transform="matrix(0.017777777777777778,0,0,0.017777777777777778,48.92444444444445,0)" xlink:href="#Z"/><use transform="matrix(0.017777777777777778,0,0,0.017777777777777778,57.81333333333333,0)" xlink:href="#aa"/><use transform="matrix(0.017777777777777778,0,0,0.017777777777777778,64.78222222222222,0)" xlink:href="#al"/></g><path d="M827 0C722-5 593-4 488 0v-47h95l-60-146H255c-18 45-37 87-54 133 0 13 89 13 89 13V0C209-5 122-2 41 0v-47h21c76 0 79-8 85-23l248-602c5-31 63-40 79 0L730-47h97V0zM503-240L389-518 275-240h228" id="au"/><path d="M478-117c0 7-30 123-192 123C132 6 38-89 38-222c0-116 74-231 253-231 58 0 174 6 174 92 0 42-32 63-63 63-46 0-90-67-42-109-13-3-30-6-65-6-129 0-129 130-129 186 0 46 0 193 139 193 51 0 99-19 125-82 0-20 46-22 48-1" id="av"/><path d="M494-117c0 17-43 123-201 123C132 6 32-91 32-225c0-125 87-228 247-228 69 0 122 18 159 54 50 50 56 123 56 154 0 27-10 27-32 27H160c0 51 1 184 142 184 65 0 122-32 143-80 6-16 8-21 25-21 5 0 24 0 24 18zm-95-134c-1-35-3-166-120-166-29 0-69 12-95 52-21 33-22 75-24 114h239" id="aw"/><path d="M293 0C211-3 129-3 47 0v-47h69v-553c0-39-7-39-69-39v-47l177-8v647h69V0" id="ax"/><path d="M442-368c0 81-120 82-122 0 0-29 19-46 19-46-100 0-125 122-125 192v175h87V0C215-6 123-2 37 0v-47h69v-309c0-39-7-39-69-39v-47l166-8v113c23-63 63-113 133-113 52 0 106 29 106 82" id="ay"/><path d="M558-24c1 40-48 24-80 24-104 0-104-46-104-77-22 42-69 83-149 83C156 6 32-12 32-108c0-145 254-154 325-157 14-126-58-175-182-145 3 2 22 19 22 49 0 42-32 63-63 63-27 0-62-19-62-63 0-88 122-92 179-92 149 0 220 65 220 154v215c0 23 0 36 61 37 13 0 26 0 26 23zM357-139v-95c-50 3-208 17-208 125 0 44 40 79 91 79 25 0 117-13 117-109" id="az"/><path d="M382-177C393-73 356 6 261 6c-71 0-158-22-158-129v-274H21v-36c99-3 148-102 149-202h47v191h146v47H217v276c0 23 0 87 58 87 28 0 60-24 60-92v-51h47" id="aA"/><path d="M601 0L418 6v-49C387-18 339 6 278 6 130 6 38-89 38-221c0-190 225-296 386-184v-195c0-39-7-39-69-39v-47l177-8v608c0 39 7 39 69 39V0zM418-103v-250c-41-62-166-95-226-9-26 39-26 93-26 141 0 70 0 191 122 191 76 0 117-55 130-73" id="aB"/><g id="e"><use transform="matrix(0.02,0,0,0.02,0,0)" xlink:href="#au"/><use transform="matrix(0.02,0,0,0.02,16.74,0)" xlink:href="#av"/><use transform="matrix(0.02,0,0,0.02,26.96,0)" xlink:href="#av"/><use transform="matrix(0.02,0,0,0.02,37.18,0)" xlink:href="#aw"/><use transform="matrix(0.02,0,0,0.02,47.72,0)" xlink:href="#ax"/><use transform="matrix(0.02,0,0,0.02,54.1,0)" xlink:href="#aw"/><use transform="matrix(0.02,0,0,0.02,64.64,0)" xlink:href="#ay"/><use transform="matrix(0.02,0,0,0.02,74.12,0)" xlink:href="#az"/><use transform="matrix(0.02,0,0,0.02,85.30000000000003,0)" xlink:href="#aA"/><use transform="matrix(0.02,0,0,0.02,94.24,0)" xlink:href="#aw"/><use transform="matrix(0.02,0,0,0.02,104.78000000000002,0)" xlink:href="#aB"/></g><path d="M659-628c3-6-57-13-71-11v-47c94 4 144 5 248 0v47c-39 0-84-4-111 18L485-421 755-67c12 16 15 20 68 20h29V0C751-5 631-4 530 0v-47c35 0 55 0 73-8-68-98-143-189-214-285l-100 83v210h108V0C286-4 150-4 39 0v-47h108v-592H39v-47c111 4 247 4 358 0v47H289v320" id="aC"/><path d="M615 0c-84-3-168-3-252 0v-47h69v-270c0-76-21-97-55-97-63 0-149 49-149 158v209h69V0C213-3 129-3 45 0v-47h69v-309c0-39-7-39-69-39v-47l172-8v108c26-51 79-108 175-108 100 0 154 39 154 144v259h69V0" id="aD"/><g id="f"><use transform="matrix(0.02,0,0,0.02,0,0)" xlink:href="#aC"/><use transform="matrix(0.02,0,0,0.02,18.02,0)" xlink:href="#aw"/><use transform="matrix(0.02,0,0,0.02,28.560000000000002,0)" xlink:href="#ay"/><use transform="matrix(0.02,0,0,0.02,38.040000000000006,0)" xlink:href="#aD"/><use transform="matrix(0.02,0,0,0.02,50.82000000000001,0)" xlink:href="#aw"/><use transform="matrix(0.02,0,0,0.02,61.360000000000014,0)" xlink:href="#ax"/></g><path d="M610-455h-25c-16-138-41-194-191-194H274c-47 0-49 7-49 40v253h86c96 0 106-33 106-117h25v265h-25c0-85-10-117-106-117h-86v246c0 35 0 48 95 48h33V0C254-4 132-5 33 0v-31h24c77 0 79-11 79-47v-524c0-36-2-47-79-47H33v-31h549" id="aE"/><path d="M255 0C181-3 107-3 33 0v-31c67 0 78 0 78-45v-520c0-49-8-56-78-56v-31l144-11v618c0 45 11 45 78 45V0" id="aF"/><path d="M415-119c0 19-45 130-167 130C133 11 28-86 28-220c0-125 92-228 208-228 125 0 179 97 179 196 0 21-3 21-25 21H111c0 36 0 102 30 150 23 37 63 67 113 67 10 0 100 0 135-103 0-16 26-21 26-2zm-66-133c0-39-10-174-113-174-34 0-118 25-124 174h237" id="aG"/><path d="M332-181c6 95-8 192-99 192-36 0-129-12-129-135v-276H19v-22c98-4 128-111 129-193h25v184h143v31H173v278c0 17 0 108 67 108 37 0 67-38 67-112v-55h25" id="aH"/><path d="M415-119c0 10-32 130-166 130C133 11 34-88 34-216c0-124 92-232 217-232 77 0 153 39 153 107 0 30-20 47-46 47-28 0-46-20-46-46 0-13 6-43 47-46-35-36-98-37-107-37-53 0-135 42-135 205 0 161 88 204 141 204 37 0 102-12 131-105 1-11 26-17 26 0" id="aI"/><path d="M535 0c-75-3-150-3-225 0v-31c67 0 78 0 78-45v-233c0-57-11-111-74-111-64 0-135 56-135 160v184c0 45 11 45 78 45V0C182-3 107-3 32 0v-31c67 0 78 0 78-45v-520c0-49-8-56-78-56v-31l144-11c1 116-1 234 1 348 16-36 60-96 144-96 58 0 90 21 105 37 53 55 23 235 31 344 2 30 26 30 78 30V0" id="aJ"/><path d="M364-381c0 61-82 56-86 1-2-32 40-40 12-40-76 0-118 89-118 188v154c0 36 2 47 76 47h21V0C189-6 108-2 28 0v-31c67 0 78 0 78-45v-268c0-49-8-56-78-56v-31l139-11v110c14-43 50-110 123-110 43 0 74 29 74 61" id="aK"/><g id="g"><use transform="matrix(0.02,0,0,0.02,0,0)" xlink:href="#aE"/><use transform="matrix(0.02,0,0,0.02,13.06,0)" xlink:href="#aF"/><use transform="matrix(0.02,0,0,0.02,18.62,0)" xlink:href="#aG"/><use transform="matrix(0.02,0,0,0.02,27.5,0)" xlink:href="#aH"/><use transform="matrix(0.02,0,0,0.02,35.28,0)" xlink:href="#aI"/><use transform="matrix(0.02,0,0,0.02,43.6,0)" xlink:href="#aJ"/><use transform="matrix(0.02,0,0,0.02,54.72,0)" xlink:href="#aG"/><use transform="matrix(0.02,0,0,0.02,63.6,0)" xlink:href="#aK"/></g><path d="M735-242c-65 0-69 5-69 44v174c0 15 0 23-9 23-11 0-51-40-64-62-34 59-114 85-187 85C216 22 56-137 56-342s162-363 348-363c99 0 153 54 185 86l50-74c13-20 27-17 27 12v237c0 21 0 24-16 24-14 0-14-3-16-17-20-147-111-237-218-237-60 0-257 33-257 332C159-44 357-9 422-9c28 0 155-9 155-121 0-81 35-117-93-112h-32v-31c89 5 194 3 283 0v31" id="aL"/><path d="M535 0c-75-3-150-3-225 0v-31c67 0 78 0 78-45v-233c0-57-11-111-74-111-64 0-135 56-135 160v184c0 45 11 45 78 45V0C182-3 107-3 32 0v-31c67 0 78 0 78-45v-268c0-49-8-56-78-56v-31l141-11v105c28-62 75-105 148-105 58 0 90 21 105 37 53 55 23 235 31 344 2 30 26 30 78 30V0" id="aM"/><path d="M493-89c0 81-61 95-82 95-47 0-74-42-78-82-19 47-65 87-131 87C139 11 42-14 42-95c0-44 25-95 100-130 63-29 133-33 184-36 13-102-46-165-106-165-32 0-81 11-108 46 46 1 51 34 51 46 0 26-18 46-46 46-26 0-46-17-46-47 0-66 69-113 151-113 48 0 98 16 137 55 36 37 36 76 36 118v200c0 5 4 50 37 50 11 0 36-6 36-64v-56h25v56zm-167-51v-100c-165 6-207 89-207 144 0 50 41 85 90 85 45 0 117-34 117-129" id="aN"/><path d="M527 0L380 11v-66c-25 32-70 66-134 66C132 11 34-88 34-215c0-129 105-227 223-227 54 0 97 26 126 62v-216c0-49-8-56-78-56v-31l144-11v607c0 49 8 56 78 56V0zM117-214c0 91 43 203 134 203 43 0 88-22 118-70 11-17 11-19 11-37v-205c0-18 0-20-11-37-31-45-73-60-108-60-106 0-144 115-144 206" id="aO"/><g id="h"><use transform="matrix(0.02,0,0,0.02,0,0)" xlink:href="#aL"/><use transform="matrix(0.02,0,0,0.02,15.700000000000001,0)" xlink:href="#aG"/><use transform="matrix(0.02,0,0,0.02,24.580000000000002,0)" xlink:href="#aM"/><use transform="matrix(0.02,0,0,0.02,35.7,0)" xlink:href="#aG"/><use transform="matrix(0.02,0,0,0.02,44.58,0)" xlink:href="#aK"/><use transform="matrix(0.02,0,0,0.02,52.42,0)" xlink:href="#aN"/><use transform="matrix(0.02,0,0,0.02,62.42,0)" xlink:href="#aH"/><use transform="matrix(0.02,0,0,0.02,70.2,0)" xlink:href="#aG"/><use transform="matrix(0.02,0,0,0.02,79.08,0)" xlink:href="#aO"/></g><path d="M716 0c-93-4-202-4-295 0v-31h24c77 0 79-11 79-47v-262H225v262c0 36 2 47 79 47h24V0C235-4 126-4 33 0v-31h24c77 0 79-11 79-47v-527c0-36-2-47-79-47H33v-31c93 4 202 4 295 0v31h-24c-77 0-79 11-79 47v234h299v-234c0-36-2-47-79-47h-24v-31c93 4 202 4 295 0v31h-24c-77 0-79 11-79 47v527c0 36 2 47 79 47h24V0" id="aP"/><path d="M347-330c-22-50-12-74-86-70v-31c64 5 128 2 193 0v31c-28-4-77 9-54 46l99 279c31-93 68-181 96-277 0-29-22-47-58-48v-31c56 2 111 5 166 0v31c-35 1-66 14-84 64L502-8c-4 10-7 19-20 19s-16-8-20-19L360-292 259-9c-5 14-7 20-20 20s-16-8-21-22L92-365c-12-32-24-35-74-35v-31c67 4 134 3 202 0v31c-27-3-77 8-54 45l95 267" id="aQ"/><g id="i"><use transform="matrix(0.02,0,0,0.02,0,0)" xlink:href="#aP"/><use transform="matrix(0.02,0,0,0.02,15,0)" xlink:href="#aN"/><use transform="matrix(0.02,0,0,0.02,25,0)" xlink:href="#aK"/><use transform="matrix(0.02,0,0,0.02,32.84,0)" xlink:href="#aO"/><use transform="matrix(0.02,0,0,0.02,43.96000000000001,0)" xlink:href="#aQ"/><use transform="matrix(0.02,0,0,0.02,57.84,0)" xlink:href="#aN"/><use transform="matrix(0.02,0,0,0.02,67.84,0)" xlink:href="#aK"/><use transform="matrix(0.02,0,0,0.02,75.68,0)" xlink:href="#aG"/></g><path d="M333 0C238-4 124-4 28 0v-31h26c79 0 82-11 82-47v-527c0-36-3-47-82-47H28v-31c95 4 209 4 305 0v31h-26c-79 0-82 11-82 47v527c0 36 3 47 82 47h26V0" id="aR"/><path d="M357-635c0 24-15 44-44 44-27 0-43-20-43-43 0-25 18-38 30-42-72-26-125 27-125 129v116h117v31H178v322c0 36 2 47 76 47h21V0C195-6 114-2 34 0v-31c67 0 78 0 78-45v-324H33v-31h79v-115c0-106 85-159 155-159 53 0 90 33 90 70" id="aS"/><g id="j"><use transform="matrix(0.02,0,0,0.02,0,0)" xlink:href="#aR"/><use transform="matrix(0.02,0,0,0.02,7.22,0)" xlink:href="#aM"/><use transform="matrix(0.02,0,0,0.02,17.78,0)" xlink:href="#aH"/><use transform="matrix(0.02,0,0,0.02,25.560000000000002,0)" xlink:href="#aG"/><use transform="matrix(0.02,0,0,0.02,34.440000000000005,0)" xlink:href="#aK"/><use transform="matrix(0.02,0,0,0.02,42.28,0)" xlink:href="#aS"/><use transform="matrix(0.02,0,0,0.02,48.4,0)" xlink:href="#aN"/><use transform="matrix(0.02,0,0,0.02,58.4,0)" xlink:href="#aI"/><use transform="matrix(0.02,0,0,0.02,67.28,0)" xlink:href="#aG"/></g><path d="M717 0c-89-2-185-6-275 0v-31c32 1 95 0 80-44l-53-153H222c-15 49-37 93-48 146 0 26 25 51 75 51V0C177-3 104-4 32 0v-31c54-1 94-16 112-67l207-598c5-14 8-20 24-20s18 7 23 20L614-71c6 38 42 41 103 40V0zM458-259L345-584 233-259h225" id="aT"/><path d="M1009-652c-39 0-82 10-100 67L718 2c-4 13-6 20-20 20-13 0-16-10-19-19L513-506 348 2c-4 13-6 20-20 20-13 0-16-10-19-19L109-610c-12-37-16-42-91-42v-31c85 2 178 5 264 0v31c-30 0-96 0-82 43l161 492 139-429-22-70c-12-36-33-36-90-36v-31c85 2 178 5 264 0v31c-31-1-96 0-81 45l160 490c51-161 106-319 155-482 0-19-20-52-87-53v-31c70 1 140 5 210 0v31" id="aU"/><path d="M499-186c0 110-80 208-197 208-89 0-153-36-184-70C85 5 82 9 82 9c-7 11-8 13-15 13-11 0-11-7-11-24v-200c0-18 0-25 13-25 3 0 11 0 12 10 1 36 4 100 62 154C196-14 272-9 301-9c121-1 172-148 103-235-32-63-188-65-217-84-78-27-131-100-131-183 0-106 84-194 195-194 89 0 130 41 160 70l35-57c7-12 8-13 15-13 11 0 11 7 11 24v201c9 30-23 29-25 12-4-45-28-209-195-209-78 0-132 61-132 131 0 58 39 112 101 127l128 31c84 20 150 102 150 202" id="aV"/><g id="k"><use transform="matrix(0.02,0,0,0.02,0,0)" xlink:href="#aT"/><use transform="matrix(0.02,0,0,0.02,12.780000000000001,0)" xlink:href="#aU"/><use transform="matrix(0.02,0,0,0.02,33.339999999999996,0)" xlink:href="#aV"/></g><path d="M652-258L610 0H33v-31h24c77 0 79-11 79-47v-524c0-36-2-47-79-47H33v-31h563l28 225h-25c-16-139-43-194-196-194H274c-47 0-49 7-49 40v240h90c97 0 108-31 108-117h25v265h-25c0-85-11-117-108-117h-90v267c0 33 2 40 49 40h133c172 0 195-73 220-227h25" id="aW"/><path d="M665-233c0 116-98 255-261 255C218 22 56-135 56-342c0-204 161-363 348-363 96 0 147 50 184 86l50-74c13-20 27-17 27 12v237c0 21 0 24-16 24-14 0-14-3-16-17-20-146-109-237-218-237-61 0-256 34-256 333C159-43 355-9 416-9c109 0 216-82 224-225 1-10 1-16 12-16 13 0 13 7 13 17" id="aX"/><path d="M449-174L421 0H50c0-24 0-26 11-37l192-214c55-62 105-141 105-221 0-82-43-163-134-163-58 0-112 37-135 102 40-7 66 21 66 51 0 41-35 53-52 53-3 0-53 0-53-56 0-89 74-181 187-181 122 0 212 80 212 194 0 100-60 154-216 292L127-77c89-3 198 7 275-8 10-15 17-59 22-89h25" id="aY"/><g id="l"><use transform="matrix(0.02,0,0,0.02,0,0)" xlink:href="#aW"/><use transform="matrix(0.02,0,0,0.02,13.620000000000001,0)" xlink:href="#aX"/><use transform="matrix(0.02,0,0,0.02,28.060000000000002,0)" xlink:href="#aY"/></g><path d="M419 0C319-4 195-4 95 0v-31h32c90 0 93-12 93-48v-518c-52 26-111 26-131 26v-31c32 0 120 0 182-64 23 0 23 2 23 26v561c0 37 3 48 93 48h32V0" id="aZ"/><g id="m"><use transform="matrix(0.02,0,0,0.02,0,0)" xlink:href="#aE"/><use transform="matrix(0.02,0,0,0.02,13.06,0)" xlink:href="#aZ"/></g><g id="n"><use transform="matrix(0.02,0,0,0.02,0,0)" xlink:href="#aV"/><use transform="matrix(0.02,0,0,0.02,11.120000000000001,0)" xlink:href="#aJ"/><use transform="matrix(0.02,0,0,0.02,22.240000000000002,0)" xlink:href="#aG"/><use transform="matrix(0.02,0,0,0.02,31.120000000000005,0)" xlink:href="#aF"/><use transform="matrix(0.02,0,0,0.02,36.68000000000001,0)" xlink:href="#aF"/></g><path d="M136-627c8-34-48-25-74-25H33v-31h170c19 0 20 1 29 13l353 519v-427c0-27 0-74-103-74v-31c78 3 156 3 234 0v31c-103 0-103 47-103 74v552c4 31-17 33-31 13-138-205-276-410-418-612v520c0 27 0 74 103 74V0C189-3 111-3 33 0v-31c103 0 103-47 103-74v-522" id="ba"/><path d="M624-497c0 100-108 181-228 181H227v238c0 36 2 47 79 47h24V0C237-4 128-4 35 0v-31h24c77 0 79-11 79-47v-527c0-36-2-47-79-47H35v-31h353c137 0 236 88 236 186zm-103 0c0-49 0-155-159-155-47 0-154-23-138 40v270h138c159 0 159-108 159-155" id="bb"/><g id="o"><use transform="matrix(0.02,0,0,0.02,0,0)" xlink:href="#aV"/><use transform="matrix(0.02,0,0,0.02,11.120000000000001,0)" xlink:href="#ba"/><use transform="matrix(0.02,0,0,0.02,26.12,0)" xlink:href="#aT"/><use transform="matrix(0.02,0,0,0.02,41.12,0)" xlink:href="#bb"/></g><path d="M247 0C177-4 104-3 33 0v-31c67 0 78 0 78-45v-269c0-49-9-55-74-55v-31l140-11v367c0 39 4 44 70 44V0zM139-657c67 0 72 105-1 106-67 0-72-105 1-106" id="bc"/><path d="M471-214C471-87 370 11 249 11 132 11 28-85 28-214c0-125 97-234 222-234 121 0 221 106 221 234zm-83-8c0-38 0-96-26-139-54-86-173-89-227 2-26 43-24 98-24 137 0 36 0 97 25 141 52 95 186 84 230-7 21-44 22-98 22-134" id="bd"/><g id="p"><use transform="matrix(0.02,0,0,0.02,0,0)" xlink:href="#aT"/><use transform="matrix(0.02,0,0,0.02,14.44,0)" xlink:href="#aI"/><use transform="matrix(0.02,0,0,0.02,23.32,0)" xlink:href="#aH"/><use transform="matrix(0.02,0,0,0.02,31.1,0)" xlink:href="#bc"/><use transform="matrix(0.02,0,0,0.02,36.660000000000004,0)" xlink:href="#bd"/><use transform="matrix(0.02,0,0,0.02,46.660000000000004,0)" xlink:href="#aM"/></g><path d="M521-216C521-87 417 11 298 11c-76 0-118-54-123-70v177c0 45 11 45 78 45v31c-75-3-150-3-225 0v-31c67 0 78 0 78-45v-468c0-44-7-50-78-50v-31l144-11v66c20-22 62-66 140-66 112 0 209 99 209 226zm-83 0c0-113-61-201-134-201-51 0-100 29-129 80v223c0 20 0 21 14 42 94 131 249 35 249-144" id="be"/><g id="q"><use transform="matrix(0.02,0,0,0.02,0,0)" xlink:href="#aU"/><use transform="matrix(0.02,0,0,0.02,18.9,0)" xlink:href="#aK"/><use transform="matrix(0.02,0,0,0.02,26.740000000000002,0)" xlink:href="#aN"/><use transform="matrix(0.02,0,0,0.02,36.739999999999995,0)" xlink:href="#be"/><use transform="matrix(0.02,0,0,0.02,47.86,0)" xlink:href="#be"/><use transform="matrix(0.02,0,0,0.02,59.54000000000001,0)" xlink:href="#aG"/><use transform="matrix(0.02,0,0,0.02,68.42,0)" xlink:href="#aK"/></g><path d="M675-2c39 10 7 63-19 35L102-228c-25-6-25-38 0-44 191-89 379-181 572-268 11 0 20 9 20 20s-7 16-19 22L150-250" id="bf"/><path d="M813 0c-75-3-150-3-225 0v-31c67 0 78 0 78-45v-233c0-57-11-111-74-111-64 0-135 56-135 160v184c0 45 11 45 78 45V0c-75-3-150-3-225 0v-31c67 0 78 0 78-45v-233c0-57-11-111-74-111-64 0-135 56-135 160v184c0 45 11 45 78 45V0C182-3 107-3 32 0v-31c67 0 78 0 78-45v-268c0-49-8-56-78-56v-31l141-11v105c28-62 75-105 148-105 45 0 119 11 133 98 17-38 61-98 145-98 58 0 90 21 105 37 53 55 23 235 31 344 2 30 26 30 78 30V0" id="bg"/><path d="M675-272c25 6 25 38 0 44C484-139 296-47 103 40c-25-3-27-30-1-42l525-248-525-248c-40-12-7-61 19-35" id="bh"/><g id="r"><use transform="matrix(0.02,0,0,0.02,0,0)" xlink:href="#bf"/><use transform="matrix(0.02,0,0,0.02,15.56,0)" xlink:href="#bb"/><use transform="matrix(0.02,0,0,0.02,29.18,0)" xlink:href="#aF"/><use transform="matrix(0.02,0,0,0.02,34.74,0)" xlink:href="#aN"/><use transform="matrix(0.02,0,0,0.02,44.74,0)" xlink:href="#aH"/><use transform="matrix(0.02,0,0,0.02,52.52,0)" xlink:href="#aS"/><use transform="matrix(0.02,0,0,0.02,58.64,0)" xlink:href="#bd"/><use transform="matrix(0.02,0,0,0.02,68.64,0)" xlink:href="#aK"/><use transform="matrix(0.02,0,0,0.02,76.48,0)" xlink:href="#bg"/><use transform="matrix(0.02,0,0,0.02,93.14,0)" xlink:href="#bh"/></g><g id="s"><use transform="matrix(0.02,0,0,0.02,0,0)" xlink:href="#aQ"/><use transform="matrix(0.02,0,0,0.02,14.44,0)" xlink:href="#aK"/><use transform="matrix(0.02,0,0,0.02,22.28,0)" xlink:href="#aN"/><use transform="matrix(0.02,0,0,0.02,32.28,0)" xlink:href="#be"/><use transform="matrix(0.02,0,0,0.02,43.40000000000001,0)" xlink:href="#be"/><use transform="matrix(0.02,0,0,0.02,55.08000000000001,0)" xlink:href="#aG"/><use transform="matrix(0.02,0,0,0.02,63.96000000000002,0)" xlink:href="#aK"/></g><path d="M521-216C521-87 417 11 298 11c-74 0-116-50-131-73L131 0h-25v-596c0-49-8-56-78-56v-31l144-11v317c16-18 59-65 137-65 114 0 212 99 212 226zM294-11c106 0 144-115 144-206s-43-203-134-203c-24 0-79 8-118 64-11 16-11 17-11 36v206c0 18 0 21 14 42 24 37 60 61 105 61" id="bi"/><path d="M287-420c8-5 30-32 37-28 11 0 11 7 11 24v101c0 19 0 24-13 24 0 0-11 0-12-9-2-31-7-121-117-121-86 0-112 41-112 76 0 58 67 71 123 82 42 8 81 16 114 48 12 12 42 42 42 95 0 72-46 139-161 139-21 0-66-1-110-43C68-9 56 7 44 11c-11 0-11-7-11-24v-132c0-18 0-25 13-25 10 0 11 4 14 17C79-68 115-11 199-11c78 0 113-40 113-91 0-72-82-88-104-92-72-14-100-20-132-46-27-22-43-50-43-85 0-56 38-123 160-123 15 0 56 0 94 28" id="bj"/><path d="M423-750c18 5 24 14 15 38L97 230c1 24-42 27-41 0C169-92 287-410 402-730c3-10 7-20 21-20" id="bk"/><path d="M508-400c-66 1-83 44-92 67L285-8c-4 10-8 19-21 19s-15-5-21-19L99-363c-13-31-17-37-80-37v-31c71 5 136 2 206 0v31c-25-3-76 8-51 43L286-78l102-255c14-33 6-63-42-67v-31c54 2 108 5 162 0v31" id="bl"/><g id="t"><use transform="matrix(0.02,0,0,0.02,0,0)" xlink:href="#aF"/><use transform="matrix(0.02,0,0,0.02,5.5600000000000005,0)" xlink:href="#bc"/><use transform="matrix(0.02,0,0,0.02,11.120000000000001,0)" xlink:href="#bi"/><use transform="matrix(0.02,0,0,0.02,22.240000000000002,0)" xlink:href="#bj"/><use transform="matrix(0.02,0,0,0.02,30.12,0)" xlink:href="#bk"/><use transform="matrix(0.02,0,0,0.02,40.120000000000005,0)" xlink:href="#aO"/><use transform="matrix(0.02,0,0,0.02,51.24000000000001,0)" xlink:href="#aK"/><use transform="matrix(0.02,0,0,0.02,59.08000000000001,0)" xlink:href="#bc"/><use transform="matrix(0.02,0,0,0.02,64.64000000000001,0)" xlink:href="#bl"/><use transform="matrix(0.02,0,0,0.02,74.64000000000001,0)" xlink:href="#aG"/><use transform="matrix(0.02,0,0,0.02,83.52,0)" xlink:href="#aK"/><use transform="matrix(0.02,0,0,0.02,91.36000000000001,0)" xlink:href="#bj"/></g><g id="u"><use transform="matrix(0.02,0,0,0.02,0,0)" xlink:href="#aT"/><use transform="matrix(0.02,0,0,0.02,12.780000000000001,0)" xlink:href="#aU"/><use transform="matrix(0.02,0,0,0.02,33.339999999999996,0)" xlink:href="#aV"/></g><path d="M508-400c-16 0-67 1-93 64L239 91c-24 57-65 114-128 114-50 0-92-36-92-81 0-59 85-55 84-1 0 16-8 38-39 42C176 233 213 83 250 0L100-365c-14-35-33-35-81-35v-31c71 5 136 2 206 0v31c-27-4-74 10-50 44L286-87l101-246c16-33 0-67-41-67v-31c54 2 108 5 162 0v31" id="bm"/><g id="v"><use transform="matrix(0.02,0,0,0.02,0,0)" xlink:href="#aF"/><use transform="matrix(0.02,0,0,0.02,5.5600000000000005,0)" xlink:href="#bc"/><use transform="matrix(0.02,0,0,0.02,11.120000000000001,0)" xlink:href="#bi"/><use transform="matrix(0.02,0,0,0.02,22.240000000000002,0)" xlink:href="#aK"/><use transform="matrix(0.02,0,0,0.02,30.080000000000002,0)" xlink:href="#aN"/><use transform="matrix(0.02,0,0,0.02,40.08,0)" xlink:href="#aK"/><use transform="matrix(0.02,0,0,0.02,47.92,0)" xlink:href="#bm"/></g><g id="w"><use transform="matrix(0.02,0,0,0.02,0,0)" xlink:href="#aV"/><use transform="matrix(0.02,0,0,0.02,11.120000000000001,0)" xlink:href="#ba"/><use transform="matrix(0.02,0,0,0.02,26.12,0)" xlink:href="#aT"/><use transform="matrix(0.02,0,0,0.02,41.12,0)" xlink:href="#bb"/></g><g id="x"><use transform="matrix(0.02,0,0,0.02,0,0)" xlink:href="#bf"/><use transform="matrix(0.02,0,0,0.02,15.56,0)" xlink:href="#bb"/><use transform="matrix(0.02,0,0,0.02,29.18,0)" xlink:href="#aF"/><use transform="matrix(0.02,0,0,0.02,34.74,0)" xlink:href="#aN"/><use transform="matrix(0.02,0,0,0.02,44.74,0)" xlink:href="#aH"/><use transform="matrix(0.02,0,0,0.02,52.52,0)" xlink:href="#aS"/><use transform="matrix(0.02,0,0,0.02,58.64,0)" xlink:href="#bd"/><use transform="matrix(0.02,0,0,0.02,68.64,0)" xlink:href="#aK"/><use transform="matrix(0.02,0,0,0.02,76.48,0)" xlink:href="#bg"/><use transform="matrix(0.02,0,0,0.02,93.14,0)" xlink:href="#bh"/></g><g id="y"><use transform="matrix(0.02,0,0,0.02,0,0)" xlink:href="#aE"/><use transform="matrix(0.02,0,0,0.02,13.06,0)" xlink:href="#aF"/><use transform="matrix(0.02,0,0,0.02,18.62,0)" xlink:href="#aG"/><use transform="matrix(0.02,0,0,0.02,27.5,0)" xlink:href="#aH"/><use transform="matrix(0.02,0,0,0.02,35.28,0)" xlink:href="#aI"/><use transform="matrix(0.02,0,0,0.02,43.6,0)" xlink:href="#aJ"/><use transform="matrix(0.02,0,0,0.02,54.72,0)" xlink:href="#aG"/><use transform="matrix(0.02,0,0,0.02,63.6,0)" xlink:href="#aK"/></g><g id="z"><use transform="matrix(0.02,0,0,0.02,0,0)" xlink:href="#bb"/><use transform="matrix(0.02,0,0,0.02,13.620000000000001,0)" xlink:href="#bm"/><use transform="matrix(0.02,0,0,0.02,24.18,0)" xlink:href="#aH"/><use transform="matrix(0.02,0,0,0.02,31.96,0)" xlink:href="#aJ"/><use transform="matrix(0.02,0,0,0.02,43.08,0)" xlink:href="#bd"/><use transform="matrix(0.02,0,0,0.02,53.08,0)" xlink:href="#aM"/></g><path d="M535 0L391 11v-90c-29 62-73 90-129 90-152 0-152-91-152-169v-150c0-89 0-92-78-92v-31l147-11v332c0 52 4 99 88 99 73 0 121-68 121-155v-178c0-49-8-56-78-56v-31l147-11v355c0 49 8 56 78 56V0" id="bn"/><path d="M276-187H11v-58h265v58" id="bo"/><g id="A"><use transform="matrix(0.02,0,0,0.02,0,0)" xlink:href="#aK"/><use transform="matrix(0.02,0,0,0.02,7.84,0)" xlink:href="#bn"/><use transform="matrix(0.02,0,0,0.02,18.96,0)" xlink:href="#aM"/><use transform="matrix(0.02,0,0,0.02,30.080000000000002,0)" xlink:href="#bo"/><use transform="matrix(0.02,0,0,0.02,36.74,0)" xlink:href="#aH"/><use transform="matrix(0.02,0,0,0.02,44.52,0)" xlink:href="#bc"/><use transform="matrix(0.02,0,0,0.02,50.08,0)" xlink:href="#bg"/><use transform="matrix(0.02,0,0,0.02,66.74000000000001,0)" xlink:href="#aG"/></g><g id="B"><use transform="matrix(0.02,0,0,0.02,0,0)" xlink:href="#aF"/><use transform="matrix(0.02,0,0,0.02,5.5600000000000005,0)" xlink:href="#bc"/><use transform="matrix(0.02,0,0,0.02,11.120000000000001,0)" xlink:href="#bi"/><use transform="matrix(0.02,0,0,0.02,22.240000000000002,0)" xlink:href="#aK"/><use transform="matrix(0.02,0,0,0.02,30.080000000000002,0)" xlink:href="#aN"/><use transform="matrix(0.02,0,0,0.02,40.08,0)" xlink:href="#aK"/><use transform="matrix(0.02,0,0,0.02,47.92,0)" xlink:href="#bm"/></g><path d="M721-250c0 20-19 20-33 20H409V50c0 14 0 33-20 33s-20-19-20-33v-280H89c-14 0-33 0-33-20s19-20 33-20h280v-280c0-14 0-33 20-33s20 19 20 33v280h279c14 0 33 0 33 20" id="bp"/><g id="C"><use transform="matrix(0.02,0,0,0.02,0,0)" xlink:href="#aX"/><use transform="matrix(0.02,0,0,0.02,14.44,0)" xlink:href="#bp"/><use transform="matrix(0.02,0,0,0.02,30,0)" xlink:href="#bp"/></g><g id="D"><use transform="matrix(0.02,0,0,0.02,0,0)" xlink:href="#aK"/><use transform="matrix(0.02,0,0,0.02,7.84,0)" xlink:href="#bn"/><use transform="matrix(0.02,0,0,0.02,18.96,0)" xlink:href="#aM"/><use transform="matrix(0.02,0,0,0.02,30.080000000000002,0)" xlink:href="#bo"/><use transform="matrix(0.02,0,0,0.02,36.74,0)" xlink:href="#aH"/><use transform="matrix(0.02,0,0,0.02,44.52,0)" xlink:href="#bc"/><use transform="matrix(0.02,0,0,0.02,50.08,0)" xlink:href="#bg"/><use transform="matrix(0.02,0,0,0.02,66.74000000000001,0)" xlink:href="#aG"/></g><path d="M582-258L554 0H33v-31h24c77 0 79-11 79-47v-527c0-36-2-47-79-47H33v-31c99 5 221 4 320 0v31h-33c-95 0-95 14-95 48v533c0 33 2 40 49 40h82c176 0 190-125 201-227h25" id="bq"/><path d="M106-133c5 63 46 68 128 68 61 0 119 0 172 28 51 28 65 79 65 114 0 78-104 129-222 129-122 0-221-55-221-127 0-40 32-83 92-100-60-35-51-132-13-172-25-21-47-59-47-103 0-115 158-199 268-110 42-41 86-47 106-47 60-1 66 75 22 79-30 3-40-46-13-56-30-3-57 2-100 38 92 89 17 248-121 243-19 0-60-3-99-31-17 20-17 43-17 47zm116-39c75 0 86-58 87-124 0-23 0-123-87-123-75 0-86 58-87 124 0 23 0 123 87 123zM419 79C419-25 266-7 162-7c-44 0-82 40-82 86 0 53 69 104 170 104 98 0 169-50 169-104" id="br"/><g id="E"><use transform="matrix(0.02,0,0,0.02,0,0)" xlink:href="#bf"/><use transform="matrix(0.02,0,0,0.02,15.56,0)" xlink:href="#bq"/><use transform="matrix(0.02,0,0,0.02,28.060000000000002,0)" xlink:href="#aN"/><use transform="matrix(0.02,0,0,0.02,38.06,0)" xlink:href="#aM"/><use transform="matrix(0.02,0,0,0.02,49.18000000000001,0)" xlink:href="#br"/><use transform="matrix(0.02,0,0,0.02,59.18000000000001,0)" xlink:href="#bn"/><use transform="matrix(0.02,0,0,0.02,70.30000000000001,0)" xlink:href="#aN"/><use transform="matrix(0.02,0,0,0.02,80.30000000000001,0)" xlink:href="#br"/><use transform="matrix(0.02,0,0,0.02,90.30000000000003,0)" xlink:href="#aG"/><use transform="matrix(0.02,0,0,0.02,99.18,0)" xlink:href="#bh"/></g><g id="F"><use transform="matrix(0.018,0,0,0.018,0,0)" xlink:href="#bb"/><use transform="matrix(0.018,0,0,0.018,12.258,0)" xlink:href="#aX"/><use transform="matrix(0.018,0,0,0.018,25.253999999999998,0)" xlink:href="#aR"/><use transform="matrix(0.018,0,0,0.018,31.751999999999992,0)" xlink:href="#aG"/></g><path d="M331 240c0 7-4 10-10 10-10 0-96-65-156-188-55-113-66-234-66-312 0-84 12-195 63-305 59-127 149-195 159-195 14 7 14 10-3 27-124 124-161 299-161 473 0 153 32 342 157 468 17 17 17 19 17 22" id="bs"/><path d="M721-339c0 202-151 361-333 361C210 22 56-134 56-339c0-206 153-366 332-366 182 0 333 162 333 366zm-103-14c0-256-143-327-230-327-83 0-229 68-229 327C159-92 293-4 389-4c92 0 229-84 229-349" id="bt"/><path d="M289-250c0 84-12 195-63 305C167 182 77 250 67 250c-14-7-14-10 3-27C195 98 231-79 231-250c0-209-57-368-155-467-19-18-19-20-19-23 0-6 4-10 10-10 10 0 96 65 156 188 55 113 66 234 66 312" id="bu"/><g id="G"><use transform="matrix(0.018,0,0,0.018,0,0)" xlink:href="#bs"/><use transform="matrix(0.018,0,0,0.018,7.002,0)" xlink:href="#bt"/><use transform="matrix(0.018,0,0,0.018,21.005999999999997,0)" xlink:href="#be"/><use transform="matrix(0.018,0,0,0.018,31.518,0)" xlink:href="#aG"/><use transform="matrix(0.018,0,0,0.018,39.51,0)" xlink:href="#aM"/><use transform="matrix(0.018,0,0,0.018,49.51800000000001,0)" xlink:href="#bu"/><use transform="matrix(0.018,0,0,0.018,56.52,0)" xlink:href="#aX"/><use transform="matrix(0.018,0,0,0.018,69.516,0)" xlink:href="#aT"/><use transform="matrix(0.018,0,0,0.018,83.016,0)" xlink:href="#bb"/><use transform="matrix(0.018,0,0,0.018,95.27399999999999,0)" xlink:href="#aR"/></g><g id="H"><use transform="matrix(0.018,0,0,0.018,0,0)" xlink:href="#bf"/><use transform="matrix(0.018,0,0,0.018,14.004,0)" xlink:href="#bb"/><use transform="matrix(0.018,0,0,0.018,26.262,0)" xlink:href="#aF"/><use transform="matrix(0.018,0,0,0.018,31.266,0)" xlink:href="#aN"/><use transform="matrix(0.018,0,0,0.018,40.266,0)" xlink:href="#aH"/><use transform="matrix(0.018,0,0,0.018,47.26800000000001,0)" xlink:href="#aS"/><use transform="matrix(0.018,0,0,0.018,52.776,0)" xlink:href="#bd"/><use transform="matrix(0.018,0,0,0.018,61.776,0)" xlink:href="#aK"/><use transform="matrix(0.018,0,0,0.018,68.83200000000001,0)" xlink:href="#bg"/><use transform="matrix(0.018,0,0,0.018,83.82600000000001,0)" xlink:href="#bh"/></g><g id="I"><use transform="matrix(0.018,0,0,0.018,0,0)" xlink:href="#bb"/><use transform="matrix(0.018,0,0,0.018,12.258,0)" xlink:href="#aJ"/><use transform="matrix(0.018,0,0,0.018,21.762000000000004,0)" xlink:href="#bm"/><use transform="matrix(0.018,0,0,0.018,31.266,0)" xlink:href="#bj"/><use transform="matrix(0.018,0,0,0.018,38.358,0)" xlink:href="#bc"/><use transform="matrix(0.018,0,0,0.018,43.361999999999995,0)" xlink:href="#aI"/><use transform="matrix(0.018,0,0,0.018,51.354,0)" xlink:href="#aN"/><use transform="matrix(0.018,0,0,0.018,60.35399999999999,0)" xlink:href="#aF"/></g><g id="J"><use transform="matrix(0.018,0,0,0.018,0,0)" xlink:href="#aR"/><use transform="matrix(0.018,0,0,0.018,6.497999999999999,0)" xlink:href="#bk"/><use transform="matrix(0.018,0,0,0.018,15.498,0)" xlink:href="#aE"/></g><path d="M766-227c0 115-113 238-300 238C217 11 64-138 64-343s153-354 402-354c68 0 135 18 197 68l66-59c14-16 44-11 37 19v215c0 26-1 28-27 28-23 0-24-2-27-21-22-127-117-203-225-203-52 0-140 11-204 77s-66 174-66 230c0 90 12 165 59 222 52 61 136 85 214 85 101 0 222-61 229-195 1-17 10-17 23-17 17 0 24 1 24 21" id="bv"/><path d="M829-250c0 30-30 30-43 30H477V90c0 13 0 42-31 42-30 0-30-30-30-42v-310H107c-13 0-43 0-43-30 0-31 29-31 43-31h309v-310c0-13 0-42 31-42 30 0 30 30 30 42v310h309c14 0 43 0 43 31" id="bw"/><g id="K"><use transform="matrix(0.02,0,0,0.02,0,0)" xlink:href="#bv"/><use transform="matrix(0.02,0,0,0.02,16.62,0)" xlink:href="#bw"/><use transform="matrix(0.02,0,0,0.02,34.5,0)" xlink:href="#bw"/></g><path d="M600-223C600-84 498 6 348 6c-41 0-85-10-128-45v186h69v47c-84-3-168-3-252 0v-47h69v-504c0-38-7-38-69-38v-47l177-8v49c23-18 76-49 151-49 144 0 235 94 235 227zm-128 0c0-126-56-187-123-187-22 0-74 6-114 47-14 14-15 15-15 34v212c0 19 0 20 11 33 45 54 92 54 106 54 65 0 135-52 135-193" id="bx"/><path d="M286 0C206-3 127-3 47 0v-47h69v-309c0-39-7-39-66-39v-47l174-8v403h62V0zm-48-607c0 43-35 78-78 78s-78-35-78-78 35-78 78-78 78 35 78 78" id="by"/><path d="M542-218C542-95 455 6 287 6 120 6 32-94 32-218c0-133 91-235 255-235 163 0 255 101 255 235zm-128-11c0-48 0-103-21-137-43-72-182-66-216 7-17 34-17 85-17 130 0 87 0 195 127 195s127-108 127-195" id="bz"/><g id="L"><use transform="matrix(0.02,0,0,0.02,0,0)" xlink:href="#az"/><use transform="matrix(0.02,0,0,0.02,11.18,0)" xlink:href="#bx"/><use transform="matrix(0.02,0,0,0.02,23.96,0)" xlink:href="#bx"/><use transform="matrix(0.02,0,0,0.02,36.74,0)" xlink:href="#ax"/><use transform="matrix(0.02,0,0,0.02,43.12,0)" xlink:href="#by"/><use transform="matrix(0.02,0,0,0.02,49.50000000000001,0)" xlink:href="#av"/><use transform="matrix(0.02,0,0,0.02,59.72000000000001,0)" xlink:href="#az"/><use transform="matrix(0.02,0,0,0.02,70.9,0)" xlink:href="#aA"/><use transform="matrix(0.02,0,0,0.02,79.84,0)" xlink:href="#by"/><use transform="matrix(0.02,0,0,0.02,86.22,0)" xlink:href="#bz"/><use transform="matrix(0.02,0,0,0.02,97.72,0)" xlink:href="#aD"/></g><path d="M721-491c0 117-116 189-255 189H289v255h108V0C286-4 150-4 39 0v-47h108v-592H39v-47h417c166 0 265 85 265 195zm-153 0c0-72 0-148-150-148H283v296h134c151 0 151-77 151-148" id="bA"/><path d="M580-397c-64 0-67 7-74 21L291 81c-27 57-85 119-162 119-60 0-107-41-107-92 0-39 29-58 57-58 34 0 58 24 58 57 0 35-23 49-32 53C214 180 241 70 277 0L90-397H26v-47c79 3 159 3 238 0v47h-54l127 270c40-86 81-171 120-258 0-12-47-12-47-12v-47c56 2 114 5 170 0v47" id="bB"/><path d="M615 0c-84-3-168-3-252 0v-47h69v-270c0-76-21-97-55-97-63 0-149 49-149 158v209h69V0C213-3 129-3 45 0v-47h69v-553c0-39-7-39-69-39v-47l177-8c1 113-1 229 1 340 22-38 73-96 169-96 100 0 154 39 154 144v259h69V0" id="bC"/><g id="M"><use transform="matrix(0.02,0,0,0.02,0,0)" xlink:href="#bA"/><use transform="matrix(0.02,0,0,0.02,15.72,0)" xlink:href="#bB"/><use transform="matrix(0.02,0,0,0.02,27.86,0)" xlink:href="#aA"/><use transform="matrix(0.02,0,0,0.02,36.8,0)" xlink:href="#bC"/><use transform="matrix(0.02,0,0,0.02,49.58,0)" xlink:href="#bz"/><use transform="matrix(0.02,0,0,0.02,61.08,0)" xlink:href="#aD"/></g><g id="N"><use transform="matrix(0.02,0,0,0.02,0,0)" xlink:href="#az"/><use transform="matrix(0.02,0,0,0.02,11.18,0)" xlink:href="#bx"/><use transform="matrix(0.02,0,0,0.02,23.96,0)" xlink:href="#bx"/><use transform="matrix(0.02,0,0,0.02,36.74,0)" xlink:href="#ax"/><use transform="matrix(0.02,0,0,0.02,43.12,0)" xlink:href="#by"/><use transform="matrix(0.02,0,0,0.02,49.50000000000001,0)" xlink:href="#av"/><use transform="matrix(0.02,0,0,0.02,59.72000000000001,0)" xlink:href="#az"/><use transform="matrix(0.02,0,0,0.02,70.9,0)" xlink:href="#aA"/><use transform="matrix(0.02,0,0,0.02,79.84,0)" xlink:href="#by"/><use transform="matrix(0.02,0,0,0.02,86.22,0)" xlink:href="#bz"/><use transform="matrix(0.02,0,0,0.02,97.72,0)" xlink:href="#aD"/></g><path d="M772 24c33 8 34 60-6 62 0 0-8 0-22-7L121-219c-13-6-25-14-25-32s14-26 25-31l626-299c20-16 50 3 50 24 0 17-11 25-25 32L197-250" id="bD"/><path d="M643-274L612 0H39v-47h108v-592H39v-47c119 5 266 4 385 0v47H289v592h103c179 0 196-158 204-227h47" id="bE"/><path d="M558-397c0 24-17 43-43 43-33 1-52-32-39-63-11 1-32 3-62 19 15 16 40 49 40 96 0 70-55 148-199 148-25 0-76-2-122-26-20 38-12 79 45 96 100 4 229-5 289 29 65 37 75 97 75 127 0 70-78 129-255 129C87 201 32 126 32 75c0-63 73-84 86-87-40-32-44-81-44-96 0-21 6-54 34-89-32-23-52-64-52-105 0-70 55-148 199-148 74 0 116 21 134 33 44-35 91-38 106-38 46 0 63 35 63 58zm-215 95c0-45 0-112-88-112s-88 67-88 112 0 112 88 112 88-67 88-112zM456 75c0-62-113-62-144-62H195c-14 0-77 0-77 60 0 46 49 92 169 92 130 0 169-54 169-90" id="bF"/><path d="M615 0L438 6v-78C392 6 320 6 294 6c-99 0-180-22-180-129v-233c0-39-7-39-69-39v-47l183-8v341c0 54 3 79 80 79 73 0 124-53 124-135v-191c0-39-7-39-69-39v-47l183-8v364c0 39 7 39 69 39V0" id="bG"/><path d="M797-251c0 18-11 26-25 32L146 80c-41 27-72-34-25-56l575-275-575-274c-50-15-13-87 28-55l623 298c11 5 25 13 25 31" id="bH"/><g id="O"><use transform="matrix(0.02,0,0,0.02,0,0)" xlink:href="#bD"/><use transform="matrix(0.02,0,0,0.02,17.88,0)" xlink:href="#bE"/><use transform="matrix(0.02,0,0,0.02,31.720000000000002,0)" xlink:href="#az"/><use transform="matrix(0.02,0,0,0.02,42.9,0)" xlink:href="#aD"/><use transform="matrix(0.02,0,0,0.02,55.68,0)" xlink:href="#bF"/><use transform="matrix(0.02,0,0,0.02,67.18,0)" xlink:href="#bG"/><use transform="matrix(0.02,0,0,0.02,79.96000000000001,0)" xlink:href="#az"/><use transform="matrix(0.02,0,0,0.02,91.14000000000001,0)" xlink:href="#bF"/><use transform="matrix(0.02,0,0,0.02,102.64000000000001,0)" xlink:href="#aw"/><use transform="matrix(0.02,0,0,0.02,113.18000000000002,0)" xlink:href="#bH"/></g><g id="P"><use transform="matrix(0.017777777777777778,0,0,0.017777777777777778,0,0)" xlink:href="#bq"/><use transform="matrix(0.017777777777777778,0,0,0.017777777777777778,11.11111111111111,0)" xlink:href="#bd"/><use transform="matrix(0.017777777777777778,0,0,0.017777777777777778,19.502222222222223,0)" xlink:href="#aQ"/><use transform="matrix(0.017777777777777778,0,0,0.017777777777777778,32.337777777777774,0)" xlink:href="#bo"/><use transform="matrix(0.017777777777777778,0,0,0.017777777777777778,38.257777777777775,0)" xlink:href="#aF"/><use transform="matrix(0.017777777777777778,0,0,0.017777777777777778,43.19999999999999,0)" xlink:href="#aG"/><use transform="matrix(0.017777777777777778,0,0,0.017777777777777778,51.09333333333333,0)" xlink:href="#bl"/><use transform="matrix(0.017777777777777778,0,0,0.017777777777777778,59.98222222222222,0)" xlink:href="#aG"/><use transform="matrix(0.017777777777777778,0,0,0.017777777777777778,67.87555555555555,0)" xlink:href="#aF"/></g><use transform="matrix(0.017777777777777778,0,0,0.017777777777777778,0,0)" xlink:href="#aX" id="Q"/><g id="R"><use transform="matrix(0.017777777777777778,0,0,0.017777777777777778,0,0)" xlink:href="#aT"/><use transform="matrix(0.017777777777777778,0,0,0.017777777777777778,13.333333333333334,0)" xlink:href="#bb"/><use transform="matrix(0.017777777777777778,0,0,0.017777777777777778,25.44,0)" xlink:href="#aR"/></g><g id="S"><use transform="matrix(0.017777777777777778,0,0,0.017777777777777778,0,0)" xlink:href="#aP"/><use transform="matrix(0.017777777777777778,0,0,0.017777777777777778,13.333333333333334,0)" xlink:href="#bc"/><use transform="matrix(0.017777777777777778,0,0,0.017777777777777778,18.275555555555556,0)" xlink:href="#br"/><use transform="matrix(0.017777777777777778,0,0,0.017777777777777778,27.164444444444445,0)" xlink:href="#aJ"/><use transform="matrix(0.017777777777777778,0,0,0.017777777777777778,37.04888888888889,0)" xlink:href="#bo"/><use transform="matrix(0.017777777777777778,0,0,0.017777777777777778,42.96888888888889,0)" xlink:href="#aF"/><use transform="matrix(0.017777777777777778,0,0,0.017777777777777778,47.91111111111111,0)" xlink:href="#aG"/><use transform="matrix(0.017777777777777778,0,0,0.017777777777777778,55.80444444444444,0)" xlink:href="#bl"/><use transform="matrix(0.017777777777777778,0,0,0.017777777777777778,64.69333333333333,0)" xlink:href="#aG"/><use transform="matrix(0.017777777777777778,0,0,0.017777777777777778,72.58666666666666,0)" xlink:href="#aF"/></g><g id="T"><use transform="matrix(0.02,0,0,0.02,0,0)" xlink:href="#aH"/><use transform="matrix(0.02,0,0,0.02,7.78,0)" xlink:href="#bd"/><use transform="matrix(0.02,0,0,0.02,17.78,0)" xlink:href="#be"/><use transform="matrix(0.02,0,0,0.02,28.900000000000002,0)" xlink:href="#bo"/><use transform="matrix(0.02,0,0,0.02,35.56,0)" xlink:href="#aF"/><use transform="matrix(0.02,0,0,0.02,41.12,0)" xlink:href="#aG"/><use transform="matrix(0.02,0,0,0.02,50.00000000000001,0)" xlink:href="#bl"/><use transform="matrix(0.02,0,0,0.02,60.00000000000001,0)" xlink:href="#aG"/><use transform="matrix(0.02,0,0,0.02,68.88000000000001,0)" xlink:href="#aF"/></g></defs></g></svg>