<svg xmlns="http://www.w3.org/2000/svg" xmlns:xlink="http://www.w3.org/1999/xlink" xmlns:lucid="lucid" width="781.1" height="497.64"><g transform="translate(0 0)" lucid:page-tab-id="vgstE~WU~EkL"><path d="M0 0h781.1v497.64H0z" fill="#fff"/><path d="M12.12 20H640v400H12.12z" stroke="#c0a140" stroke-width="2" fill="#ffe081"/><use xlink:href="#a" transform="matrix(1,0,0,1,17.122831536247315,25) translate(556.88 16.12)"/><path d="M240.8 200h200v160h-200z" stroke="#7fc040" stroke-width="2" fill="#bfff81"/><path d="M220.8 220h200v160h-200zM241.8 41h200v160h-200z" stroke="#7fc040" stroke-width="2" fill="#bfff81"/><path d="M221.8 61h200v160h-200z" stroke="#7fc040" stroke-width="2" fill="#bfff81"/><path d="M20 80h80v320H20z" stroke="#999" stroke-width="2" fill="#e5e5e5"/><use xlink:href="#b" transform="matrix(1,0,0,1,25,84.99999999999997) translate(3.817333333333327 161.62)"/><path d="M200 80h200v160H200z" stroke="#7fc040" stroke-width="2" fill="#bfff81"/><use xlink:href="#c" transform="matrix(1,0,0,1,205.00000000000006,84.99999999999997) translate(7.86999999999999 16.12)"/><path d="M260.8 120h120v60h-120z" stroke="#408fc0" stroke-width="2" fill="#81ceff"/><path d="M240.8 140h120v60h-120z" stroke="#408fc0" stroke-width="2" fill="#81ceff"/><path d="M220.8 160h120v60h-120z" stroke="#408fc0" stroke-width="2" fill="#81ceff"/><use xlink:href="#d" transform="matrix(1,0,0,1,225.79999999999984,164.99999999999994) translate(29.659999999999997 21.619999999999997)"/><use xlink:href="#e" transform="matrix(1,0,0,1,225.79999999999984,164.99999999999994) translate(24.28 41.62)"/><path d="M200.8 240h200v160h-200z" stroke="#7fc040" stroke-width="2" fill="#bfff81"/><use xlink:href="#f" transform="matrix(1,0,0,1,205.8,244.99999999999997) translate(11.019999999999996 16.12)"/><path d="M260.8 280h120v60h-120z" stroke="#408fc0" stroke-width="2" fill="#81ceff"/><path d="M240.8 300h120v60h-120z" stroke="#408fc0" stroke-width="2" fill="#81ceff"/><path d="M220.8 320h120v60h-120z" stroke="#408fc0" stroke-width="2" fill="#81ceff"/><use xlink:href="#d" transform="matrix(1,0,0,1,225.79999999999984,324.9999999999999) translate(29.659999999999997 21.619999999999997)"/><use xlink:href="#g" transform="matrix(1,0,0,1,225.79999999999984,324.9999999999999) translate(26.6 41.62)"/><path d="M198 162h-47.17l-.83.34h-30.5M198 158h-48l-.83.34H119.5" stroke="#000" stroke-width="2" fill="none"/><path d="M199 163h-1.03v-2H199zM199 159h-1.03v-2H199z"/><path d="M104.24 160.34l14.26-4.63V165z" stroke="#000" stroke-width="2"/><path d="M181.3 322.68h-30.9l-.83-.35H102M181.3 318.68h-30.07l-.83-.35H102" stroke="#000" stroke-width="2" fill="none"/><path d="M196.56 320.68l-14.26 4.64v-9.27z" stroke="#000" stroke-width="2"/><path d="M102.03 323.33H101v-2h1.03zM102.03 319.33H101v-2h1.03z"/><path d="M102 117.54h46.75l1.25-.52h30.5" fill="none"/><path d="M102 117.54h2.95m3.93 0h5.9m3.92 0h5.9m3.93 0h5.9m3.92 0h5.9m3.93 0h.57l1.25-.52h3.97m3.93 0h5.9m3.93 0h5.9m3.92 0h2.95" stroke="#666" stroke-width="2" fill="none"/><path d="M102 121.54h48l1.25-.52h29.25" fill="none"/><path d="M102 121.54h2.95m3.93 0h5.9m3.92 0h5.9m3.93 0h5.9m3.92 0h5.9m3.93 0H150l1.25-.52h2.72m3.93 0h5.9m3.93 0h5.9m3.92 0h2.95" stroke="#666" stroke-width="2" fill="none"/><path d="M102.03 118.54H101v-2h1.03zM102.03 122.54H101v-2h1.03z" fill="#666"/><path d="M195.76 119.02l-14.26 4.64v-9.28z" stroke="#666" stroke-width="2" fill="#666"/><path d="M102 279.38h48.4l.43.18h30.47" fill="none"/><path d="M102 279.38h2.98m3.96 0h5.95m3.96 0h5.95m3.98 0h5.95m3.96 0h5.94m3.97 0h1.8l.43.18h3.7m3.96 0h5.94m3.97 0h5.96m3.96 0h2.98" stroke="#666" stroke-width="2" fill="none"/><path d="M102 283.38h47.97l.43.18h30.9" fill="none"/><path d="M102 283.38h2.98m3.96 0h5.95m3.96 0h5.95m3.98 0h5.95m3.96 0h5.94m3.97 0h1.37l.43.18h4.12m3.97 0h5.94m3.97 0h5.96m3.96 0h2.98" stroke="#666" stroke-width="2" fill="none"/><path d="M102.03 280.38H101v-2h1.03zM102.03 284.38H101v-2h1.03z" fill="#666"/><path d="M196.56 281.56l-14.26 4.64v-9.27z" stroke="#666" stroke-width="2" fill="#666"/><path d="M443.8 119h25.6l.1-.22 1.4-.58h9.6" fill="none"/><path d="M443.8 119h2.77m3.7 0h5.54m3.7 0h5.55m3.7 0h.65l.1-.22 1.4-.58h3.13m3.7 0h2.77" stroke="#666" stroke-width="2" fill="none"/><path d="M443.8 123h27.1l1.4-.6.1-.2h8.1" fill="none"/><path d="M443.8 123h2.77m3.7 0h5.54m3.7 0h5.55m3.7 0h2.15l1.4-.6.1-.2h1.63m3.7 0h2.77" stroke="#666" stroke-width="2" fill="none"/><path d="M443.83 120h-1.03v-2h1.03zM443.83 124h-1.03v-2h1.03z" fill="#666"/><path d="M495.76 120.2l-14.26 4.63v-9.27z" stroke="#666" stroke-width="2" fill="#666"/><path d="M498 161.94h-25.5l-.2.42-1.4.58h-9.6M498 157.94h-27.1l-1.4.6-.2.4h-8" stroke="#000" stroke-width="2" fill="none"/><path d="M499 162.94h-1.03v-2H499zM499 158.94h-1.03v-2H499z"/><path d="M446.04 160.94l14.26-4.63v9.28z" stroke="#000" stroke-width="2"/><path d="M442.8 278H480l.47.2h.03" fill="none"/><path d="M442.8 278h2.83m3.77 0h5.66m3.78 0h5.66m3.77 0h5.66m3.78 0h2.3l.47.2h.03" stroke="#666" stroke-width="2" fill="none"/><path d="M442.8 282h36.73l.47.2h.5" fill="none"/><path d="M442.8 282h2.83m3.77 0h5.66m3.78 0h5.66m3.77 0h5.66m3.78 0h1.83l.47.2h.5" stroke="#666" stroke-width="2" fill="none"/><path d="M442.83 279h-1.03v-2h1.03zM442.83 283h-1.03v-2h1.03z" fill="#666"/><path d="M495.76 280.2l-14.26 4.63v-9.27z" stroke="#666" stroke-width="2" fill="#666"/><path d="M442.8 315.5h37.7M442.8 319.5h37.7" stroke="#000" stroke-width="2" fill="none"/><path d="M442.83 316.5h-1.03v-2h1.03zM442.83 320.5h-1.03v-2h1.03z"/><path d="M495.76 317.5l-14.26 4.64v-9.28z" stroke="#000" stroke-width="2"/><path d="M500 80h100v160H500z" stroke="#c04040" stroke-width="2" fill="#ff8181"/><use xlink:href="#h" transform="matrix(1,0,0,1,505.0000000000001,84.99999999999997) translate(23.14 71.62)"/><use xlink:href="#i" transform="matrix(1,0,0,1,505.0000000000001,84.99999999999997) translate(6.579999999999998 91.62)"/><path d="M500 240h100v160H500z" stroke="#c04040" stroke-width="2" fill="#ff8181"/><use xlink:href="#j" transform="matrix(1,0,0,1,505,244.99999999999997) translate(21.02 71.62)"/><use xlink:href="#i" transform="matrix(1,0,0,1,505,244.99999999999997) translate(6.579999999999998 91.62)"/><path d="M602 118.5h38v.1h20.5" fill="none"/><path d="M602 118.5h2.93m3.9 0h5.86m3.9 0h5.86m3.9 0h5.86m3.9 0H640v.1h3.9m3.9 0h5.86m3.9 0h2.94" stroke="#666" stroke-width="2" fill="none"/><path d="M602.03 119.5H601v-2h1.03z" fill="#666"/><path d="M675.76 118.6l-14.26 4.63v-9.27z" stroke="#666" stroke-width="2" fill="#666"/><path d="M678 160.17h-38V160h-20.5" stroke="#000" stroke-width="2" fill="none"/><path d="M679 161.17h-1.03v-2H679z"/><path d="M604.24 160l14.26-4.64v9.28z" stroke="#000" stroke-width="2"/><path d="M602 280h38v-.38h20.5" fill="none"/><path d="M602 280h2.94m3.93 0h5.88m3.93 0h5.88m3.93 0h5.87m3.93 0h1.7v-.38h3.82m3.92 0h5.9m3.9 0h2.96" stroke="#666" stroke-width="2" fill="none"/><path d="M602.03 281H601v-2h1.03z" fill="#666"/><path d="M675.76 279.62l-14.26 4.64V275z" stroke="#666" stroke-width="2" fill="#666"/><path d="M660.5 319.72H640v.28h-38" stroke="#000" stroke-width="2" fill="none"/><path d="M675.76 319.72l-14.26 4.63v-9.27z" stroke="#000" stroke-width="2"/><path d="M602.03 321H601v-2h1.03z"/><path d="M680 20h90.5v400H680z" stroke="#999" stroke-width="2" fill="#e5e5e5"/><use xlink:href="#k" transform="matrix(1,0,0,1,685.0000000000007,24.99999999999997) translate(5.6128888888888895 192.0511111111111)"/><use xlink:href="#l" transform="matrix(1,0,0,1,685.0000000000007,24.99999999999997) translate(27.04222222222222 209.82888888888888)"/><path d="M660.5 452H60l-1.4-.6-.6-1.4v-30.5" fill="none"/><path d="M660.5 452h-3.02m-4.03 0h-6.04m-4 0h-6.05m-4.03 0h-6.03m-4.04 0h-6.04m-4.02 0h-6.04m-4.03 0h-6.04m-4.03 0h-6.04m-4.03 0h-6.04m-4.02 0h-6.04m-4.03 0h-6.04m-4.02 0h-6.03m-4.03 0h-6.03m-4.02 0h-6.04m-4.02 0h-6.04m-4.03 0h-6.04m-4 0h-6.05m-4.03 0h-6.04m-4.02 0h-6.04m-4.03 0h-6.04m-4.03 0h-6.04m-4.04 0h-6.03m-4.03 0h-6.04m-4.02 0H426m-4.03 0h-6.04m-4.02 0h-6.03m-4.03 0h-6.04m-4.02 0h-6.04m-4.03 0h-6.02m-4.03 0h-6.04m-4 0h-6.05m-4.03 0h-6.04m-4.02 0h-6.04m-4.03 0h-6.05m-4.02 0h-6.04m-4.04 0h-6.04m-4.02 0h-6.04m-4.03 0h-6.03m-4.03 0h-6.04m-4.02 0h-6.03m-4.03 0h-6.04m-4.02 0h-6.04m-4.03 0h-6.03m-4.02 0h-6.04m-4.02 0h-6.04m-4.02 0h-6.04m-4.03 0h-6.03m-4.03 0h-6.05m-4.02 0h-6.04m-4.04 0h-6.04m-4.02 0h-6.04m-4.03 0h-6.04m-4.03 0h-6.04m-4.03 0h-6.03m-4.03 0H114m-4.02 0h-6.04m-4.03 0h-6.03m-4.02 0H83.8m-4.02 0h-6.04m-4.02 0h-6.04m-4-.13l-1.1-.46L58 450v-3.32m0-4.03v-6.04m0-4v-6.05m0-4.03v-3.02" stroke="#666" stroke-width="2" fill="none"/><path d="M660.5 448H62v-28.5" fill="none"/><path d="M660.5 448h-3m-3.97 0h-5.97m-3.98 0h-5.97m-3.97 0h-5.97m-4 0h-5.96m-3.98 0h-5.97m-3.98 0h-5.97m-3.98 0h-5.97m-3.98 0h-5.98m-4 0h-5.96m-3.98 0H558m-4 0h-5.96m-3.98 0h-5.98m-3.98 0h-5.97m-3.98 0h-5.97m-3.98 0h-5.97m-3.98 0h-5.97m-4 0h-5.96m-3.98 0h-5.97m-3.98 0h-5.98m-3.98 0h-5.97m-3.98 0h-6m-3.97 0h-5.97m-3.98 0h-5.97m-3.97 0h-5.97m-3.98 0h-5.98m-3.98 0h-5.97m-3.98 0h-5.97m-3.98 0h-5.97m-3.98 0h-5.97m-4 0h-5.96m-3.98 0H349m-4 0h-5.96m-3.98 0h-5.97m-4 0h-5.97m-3.98 0h-5.97m-3.98 0h-5.97m-3.98 0h-5.97m-3.98 0h-5.98m-3.98 0h-5.97m-3.98 0h-5.98m-3.98 0h-5.97m-3.98 0h-6m-3.97 0h-5.97m-3.98 0h-5.97m-3.97 0h-5.97m-3.98 0h-5.97m-3.98 0h-5.97m-3.98 0h-5.97m-3.98 0h-5.97m-3.98 0h-5.97m-3.98 0h-5.98m-3.98 0H140m-4 0h-5.96m-3.98 0h-5.97m-4 0h-5.97m-3.98 0h-5.97m-3.98 0h-5.97m-3.98 0h-5.97m-3.98 0h-5.97m-4 0H62v-1.63m0-3.98v-5.98m0-3.98v-5.97m0-3.98v-3" stroke="#666" stroke-width="2" fill="none"/><path d="M675.76 450l-14.26 4.64v-9.28zM60 404.24l4.64 14.26h-9.28z" stroke="#666" stroke-width="2" fill="#666"/><use xlink:href="#m" transform="matrix(1,0,0,1,345.28805934955545,454) translate(0 14.508000000000001)"/><use xlink:href="#n" transform="matrix(1,0,0,1,345.28805934955545,454) translate(48.492 14.508000000000001)"/><path d="M680 420h90.5v60H680z" stroke="#999" stroke-width="2" fill="#e5e5e5"/><use xlink:href="#o" transform="matrix(1,0,0,1,685.0000000000007,424.99999999999994) translate(11.310666666666666 22.051111111111112)"/><use xlink:href="#l" transform="matrix(1,0,0,1,685.0000000000007,424.99999999999994) translate(27.04222222222222 39.82888888888889)"/><path d="M100 78.9h100.8V120H100z" fill="#fff" fill-opacity="0"/><use xlink:href="#p" transform="matrix(1,0,0,1,105.00000000000007,83.88888888888889) translate(10.5 13.426666666666662)"/><use xlink:href="#q" transform="matrix(1,0,0,1,105.00000000000007,83.88888888888889) translate(18.215555555555557 28.982222222222223)"/><path d="M100 160h100.8v41.1H100z" fill="#fff" fill-opacity="0"/><g><use xlink:href="#r" transform="matrix(1,0,0,1,105.00000000000013,164.99999999999994) translate(28.75444444444444 12.53777777777778)"/><use xlink:href="#q" transform="matrix(1,0,0,1,105.00000000000013,164.99999999999994) translate(18.215555555555557 28.09333333333334)"/></g><path d="M100 238.9h100.8V280H100z" fill="#fff" fill-opacity="0"/><g><use xlink:href="#p" transform="matrix(1,0,0,1,105.00000000000013,243.88888888888889) translate(10.5 13.426666666666662)"/><use xlink:href="#q" transform="matrix(1,0,0,1,105.00000000000013,243.88888888888889) translate(18.215555555555557 28.982222222222223)"/></g><path d="M100 320h100v41.1H100z" fill="#fff" fill-opacity="0"/><g><use xlink:href="#r" transform="matrix(1,0,0,1,105.00000000000013,325.00000000000006) translate(28.25444444444444 12.53777777777778)"/><use xlink:href="#q" transform="matrix(1,0,0,1,105.00000000000013,325.00000000000006) translate(17.715555555555557 28.09333333333334)"/></g><path d="M0 465.64h360.8v32H0z" fill="#fff" fill-opacity="0"/><g><use xlink:href="#s" transform="matrix(1,0,0,1,5,470.6377952755906) translate(0 10.746666666666668)"/><use xlink:href="#t" transform="matrix(1,0,0,1,5,470.6377952755906) translate(10.360000000000001 10.746666666666668)"/><use xlink:href="#u" transform="matrix(1,0,0,1,5,470.6377952755906) translate(64.85333333333334 10.746666666666668)"/><use xlink:href="#v" transform="matrix(1,0,0,1,5,470.6377952755906) translate(129.34666666666666 10.746666666666668)"/><use xlink:href="#w" transform="matrix(1,0,0,1,5,470.6377952755906) translate(139.70666666666668 10.746666666666668)"/><use xlink:href="#x" transform="matrix(1,0,0,1,5,470.6377952755906) translate(208.61333333333334 10.746666666666668)"/></g><defs><path d="M879 0c-92-4-195-4-287 0v-31h24c77 0 79-11 79-47-1-191 1-385-1-574L448-19c-4 11-7 19-18 19-10 0-15-9-20-22-81-207-160-416-242-622v539c0 27 0 74 103 74V0C193-3 115-3 37 0v-31c103 0 103-47 103-74v-500c0-36-2-47-79-47H37v-31h169c23 0 26 0 35 22l217 560 219-563c7-18 7-19 33-19h169v31h-24c-77 0-79 11-79 47v527c0 36 2 47 79 47h24V0" id="y"/><path d="M493-89c0 81-61 95-82 95-47 0-74-42-78-82-19 47-65 87-131 87C139 11 42-14 42-95c0-44 25-95 100-130 63-29 133-33 184-36 13-102-46-165-106-165-32 0-81 11-108 46 46 1 51 34 51 46 0 26-18 46-46 46-26 0-46-17-46-47 0-66 69-113 151-113 48 0 98 16 137 55 36 37 36 76 36 118v200c0 5 4 50 37 50 11 0 36-6 36-64v-56h25v56zm-167-51v-100c-165 6-207 89-207 144 0 50 41 85 90 85 45 0 117-34 117-129" id="z"/><path d="M535 0c-75-3-150-3-225 0v-31c67 0 78 0 78-45v-233c0-57-11-111-74-111-64 0-135 56-135 160v184c0 45 11 45 78 45V0C182-3 107-3 32 0v-31c67 0 78 0 78-45v-268c0-49-8-56-78-56v-31l141-11v105c28-62 75-105 148-105 58 0 90 21 105 37 53 55 23 235 31 344 2 30 26 30 78 30V0" id="A"/><path d="M332-181c6 95-8 192-99 192-36 0-129-12-129-135v-276H19v-22c98-4 128-111 129-193h25v184h143v31H173v278c0 17 0 108 67 108 37 0 67-38 67-112v-55h25" id="B"/><path d="M255 0C181-3 107-3 33 0v-31c67 0 78 0 78-45v-520c0-49-8-56-78-56v-31l144-11v618c0 45 11 45 78 45V0" id="C"/><path d="M415-119c0 19-45 130-167 130C133 11 28-86 28-220c0-125 92-228 208-228 125 0 179 97 179 196 0 21-3 21-25 21H111c0 36 0 102 30 150 23 37 63 67 113 67 10 0 100 0 135-103 0-16 26-21 26-2zm-66-133c0-39-10-174-113-174-34 0-118 25-124 174h237" id="D"/><g id="a"><use transform="matrix(0.02,0,0,0.02,0,0)" xlink:href="#y"/><use transform="matrix(0.02,0,0,0.02,18.34,0)" xlink:href="#z"/><use transform="matrix(0.02,0,0,0.02,28.34,0)" xlink:href="#A"/><use transform="matrix(0.02,0,0,0.02,38.900000000000006,0)" xlink:href="#B"/><use transform="matrix(0.02,0,0,0.02,46.68000000000001,0)" xlink:href="#C"/><use transform="matrix(0.02,0,0,0.02,52.24000000000001,0)" xlink:href="#D"/></g><path d="M231-487c51-7 72-24 119-24 31 0 37 21 37 34 0 5-2 33-37 33-38 0-85-22-119-24 0 39 25 138 24 179 0 14-4 39-34 39-11 0-33-4-33-39 1-62 20-110 24-179-51 7-72 24-119 24-31 0-37-21-37-34 0-5 2-33 37-33 38 0 85 22 119 24 0-39-25-138-24-179 0-36 23-39 33-39 34 0 34 32 34 39-1 62-20 110-24 179zm-10 692c-72-2-3-161-9-217-30-3-156 58-156-10 0-69 121-7 156-10-5-70-22-116-24-178 0-14 4-39 34-39 72 2 3 161 9 217 32-1 92-25 123-23 43 2 46 65-1 66-14 5-110-26-122-23 5 70 22 116 24 178 0 14-4 39-34 39" id="E"/><path d="M736 0c-82-2-175-5-258 0v-31c20 0 59 0 59-30 0-12-9-25-15-34L341-363 225-253v175c0 36 2 47 79 47h24V0C235-4 126-4 33 0v-31h24c77 0 79-11 79-47v-527c0-36-2-47-79-47H33v-31c93 4 202 4 295 0v31h-24c-77 0-79 11-79 47v318l313-299c23-21 34-61-28-66v-31c68 4 146 5 212 0v31c-81 1-134 52-142 60L400-419 631-79c30 44 51 48 105 48V0" id="F"/><path d="M364-381c0 61-82 56-86 1-2-32 40-40 12-40-76 0-118 89-118 188v154c0 36 2 47 76 47h21V0C189-6 108-2 28 0v-31c67 0 78 0 78-45v-268c0-49-8-56-78-56v-31l139-11v110c14-43 50-110 123-110 43 0 74 29 74 61" id="G"/><g id="b"><use transform="matrix(0.012444444444444444,0,0,0.012444444444444444,0,-5.015111111111111)" xlink:href="#E"/><use transform="matrix(0.02,0,0,0.02,5.525333333333333,0)" xlink:href="#F"/><use transform="matrix(0.02,0,0,0.02,21.085333333333335,0)" xlink:href="#D"/><use transform="matrix(0.02,0,0,0.02,29.965333333333334,0)" xlink:href="#G"/><use transform="matrix(0.02,0,0,0.02,37.80533333333334,0)" xlink:href="#A"/><use transform="matrix(0.02,0,0,0.02,48.92533333333334,0)" xlink:href="#D"/><use transform="matrix(0.02,0,0,0.02,57.80533333333335,0)" xlink:href="#C"/></g><path d="M732-88c0 28-17 110-95 110-30 0-85-5-126-42s-41-78-41-143c0-67 2-100-38-134-69-59-113-26-208-34v253c0 36 2 47 79 47h24V0C235-4 127-4 35 0v-31h24c77 0 79-11 79-47v-527c0-36-2-47-79-47H35v-31h314c147 0 261 84 261 180 0 78-78 139-175 163 55 19 111 50 122 116l13 80C584-51 592 0 641 0c25 0 60-18 66-89 1-7 1-16 12-16 13 0 13 11 13 17zM305-652c-45 0-81-10-81 40v259h111c148 0 172-81 172-150 0-145-112-149-202-149" id="H"/><path d="M415-119c0 10-32 130-166 130C133 11 34-88 34-216c0-124 92-232 217-232 77 0 153 39 153 107 0 30-20 47-46 47-28 0-46-20-46-46 0-13 6-43 47-46-35-36-98-37-107-37-53 0-135 42-135 205 0 161 88 204 141 204 37 0 102-12 131-105 1-11 26-17 26 0" id="I"/><path d="M471-214C471-87 370 11 249 11 132 11 28-85 28-214c0-125 97-234 222-234 121 0 221 106 221 234zm-83-8c0-38 0-96-26-139-54-86-173-89-227 2-26 43-24 98-24 137 0 36 0 97 25 141 52 95 186 84 230-7 21-44 22-98 22-134" id="J"/><path d="M527 0L380 11v-66c-25 32-70 66-134 66C132 11 34-88 34-215c0-129 105-227 223-227 54 0 97 26 126 62v-216c0-49-8-56-78-56v-31l144-11v607c0 49 8 56 78 56V0zM117-214c0 91 43 203 134 203 43 0 88-22 118-70 11-17 11-19 11-37v-205c0-18 0-20-11-37-31-45-73-60-108-60-106 0-144 115-144 206" id="K"/><path d="M651-183C651-89 561 0 428 0H36v-31h24c77 0 79-11 79-47v-527c0-36-2-47-79-47H36v-31h366c130 0 222 82 222 169 0 74-69 138-166 157 111 12 193 87 193 174zM527-514c0-53-35-138-132-138H271c-47 0-49 7-49 40v246h145c111 0 160-84 160-148zm24 330c0-67-42-160-141-160H222v273c0 33 2 40 49 40h125c103 0 155-82 155-153" id="L"/><path d="M535 0c-75-3-150-3-225 0v-31c67 0 78 0 78-45v-233c0-57-11-111-74-111-64 0-135 56-135 160v184c0 45 11 45 78 45V0C182-3 107-3 32 0v-31c67 0 78 0 78-45v-520c0-49-8-56-78-56v-31l144-11c1 116-1 234 1 348 16-36 60-96 144-96 58 0 90 21 105 37 53 55 23 235 31 344 2 30 26 30 78 30V0" id="M"/><g id="c"><use transform="matrix(0.02,0,0,0.02,0,0)" xlink:href="#H"/><use transform="matrix(0.02,0,0,0.02,14.72,0)" xlink:href="#D"/><use transform="matrix(0.02,0,0,0.02,23.6,0)" xlink:href="#I"/><use transform="matrix(0.02,0,0,0.02,32.480000000000004,0)" xlink:href="#J"/><use transform="matrix(0.02,0,0,0.02,42.480000000000004,0)" xlink:href="#G"/><use transform="matrix(0.02,0,0,0.02,50.32000000000001,0)" xlink:href="#K"/><use transform="matrix(0.02,0,0,0.02,61.44000000000001,0)" xlink:href="#L"/><use transform="matrix(0.02,0,0,0.02,75.60000000000001,0)" xlink:href="#z"/><use transform="matrix(0.02,0,0,0.02,85.60000000000001,0)" xlink:href="#B"/><use transform="matrix(0.02,0,0,0.02,93.38,0)" xlink:href="#I"/><use transform="matrix(0.02,0,0,0.02,101.7,0)" xlink:href="#M"/><use transform="matrix(0.02,0,0,0.02,112.82000000000001,0)" xlink:href="#H"/><use transform="matrix(0.02,0,0,0.02,127.54,0)" xlink:href="#D"/><use transform="matrix(0.02,0,0,0.02,136.42000000000002,0)" xlink:href="#z"/><use transform="matrix(0.02,0,0,0.02,146.42000000000002,0)" xlink:href="#K"/><use transform="matrix(0.02,0,0,0.02,157.54000000000002,0)" xlink:href="#D"/><use transform="matrix(0.02,0,0,0.02,166.42000000000002,0)" xlink:href="#G"/></g><path d="M717 0c-89-2-185-6-275 0v-31c32 1 95 0 80-44l-53-153H222c-15 49-37 93-48 146 0 26 25 51 75 51V0C177-3 104-4 32 0v-31c54-1 94-16 112-67l207-598c5-14 8-20 24-20s18 7 23 20L614-71c6 38 42 41 103 40V0zM458-259L345-584 233-259h225" id="N"/><path d="M508-400c-16 0-67 1-93 64L239 91c-24 57-65 114-128 114-50 0-92-36-92-81 0-59 85-55 84-1 0 16-8 38-39 42C176 233 213 83 250 0L100-365c-14-35-33-35-81-35v-31c71 5 136 2 206 0v31c-27-4-74 10-50 44L286-87l101-246c16-33 0-67-41-67v-31c54 2 108 5 162 0v31" id="O"/><g id="d"><use transform="matrix(0.02,0,0,0.02,0,0)" xlink:href="#N"/><use transform="matrix(0.02,0,0,0.02,15,0)" xlink:href="#G"/><use transform="matrix(0.02,0,0,0.02,22.84,0)" xlink:href="#G"/><use transform="matrix(0.02,0,0,0.02,30.68,0)" xlink:href="#z"/><use transform="matrix(0.02,0,0,0.02,40.120000000000005,0)" xlink:href="#O"/></g><g id="e"><use transform="matrix(0.02,0,0,0.02,0,0)" xlink:href="#H"/><use transform="matrix(0.02,0,0,0.02,14.72,0)" xlink:href="#D"/><use transform="matrix(0.02,0,0,0.02,23.6,0)" xlink:href="#z"/><use transform="matrix(0.02,0,0,0.02,33.6,0)" xlink:href="#K"/><use transform="matrix(0.02,0,0,0.02,44.72,0)" xlink:href="#D"/><use transform="matrix(0.02,0,0,0.02,53.6,0)" xlink:href="#G"/></g><path d="M1009-652c-39 0-82 10-100 67L718 2c-4 13-6 20-20 20-13 0-16-10-19-19L513-506 348 2c-4 13-6 20-20 20-13 0-16-10-19-19L109-610c-12-37-16-42-91-42v-31c85 2 178 5 264 0v31c-30 0-96 0-82 43l161 492 139-429-22-70c-12-36-33-36-90-36v-31c85 2 178 5 264 0v31c-31-1-96 0-81 45l160 490c51-161 106-319 155-482 0-19-20-52-87-53v-31c70 1 140 5 210 0v31" id="P"/><path d="M247 0C177-4 104-3 33 0v-31c67 0 78 0 78-45v-269c0-49-9-55-74-55v-31l140-11v367c0 39 4 44 70 44V0zM139-657c67 0 72 105-1 106-67 0-72-105 1-106" id="Q"/><g id="f"><use transform="matrix(0.02,0,0,0.02,0,0)" xlink:href="#H"/><use transform="matrix(0.02,0,0,0.02,14.72,0)" xlink:href="#D"/><use transform="matrix(0.02,0,0,0.02,23.6,0)" xlink:href="#I"/><use transform="matrix(0.02,0,0,0.02,32.480000000000004,0)" xlink:href="#J"/><use transform="matrix(0.02,0,0,0.02,42.480000000000004,0)" xlink:href="#G"/><use transform="matrix(0.02,0,0,0.02,50.32000000000001,0)" xlink:href="#K"/><use transform="matrix(0.02,0,0,0.02,61.44000000000001,0)" xlink:href="#L"/><use transform="matrix(0.02,0,0,0.02,75.60000000000001,0)" xlink:href="#z"/><use transform="matrix(0.02,0,0,0.02,85.60000000000001,0)" xlink:href="#B"/><use transform="matrix(0.02,0,0,0.02,93.38,0)" xlink:href="#I"/><use transform="matrix(0.02,0,0,0.02,101.7,0)" xlink:href="#M"/><use transform="matrix(0.02,0,0,0.02,111.16,0)" xlink:href="#P"/><use transform="matrix(0.02,0,0,0.02,130.06,0)" xlink:href="#G"/><use transform="matrix(0.02,0,0,0.02,137.9,0)" xlink:href="#Q"/><use transform="matrix(0.02,0,0,0.02,143.46,0)" xlink:href="#B"/><use transform="matrix(0.02,0,0,0.02,151.24,0)" xlink:href="#D"/><use transform="matrix(0.02,0,0,0.02,160.12,0)" xlink:href="#G"/></g><g id="g"><use transform="matrix(0.02,0,0,0.02,0,0)" xlink:href="#P"/><use transform="matrix(0.02,0,0,0.02,18.9,0)" xlink:href="#G"/><use transform="matrix(0.02,0,0,0.02,26.740000000000002,0)" xlink:href="#Q"/><use transform="matrix(0.02,0,0,0.02,32.3,0)" xlink:href="#B"/><use transform="matrix(0.02,0,0,0.02,40.08,0)" xlink:href="#D"/><use transform="matrix(0.02,0,0,0.02,48.96,0)" xlink:href="#G"/></g><g id="h"><use transform="matrix(0.02,0,0,0.02,0,0)" xlink:href="#H"/><use transform="matrix(0.02,0,0,0.02,14.72,0)" xlink:href="#D"/><use transform="matrix(0.02,0,0,0.02,23.6,0)" xlink:href="#z"/><use transform="matrix(0.02,0,0,0.02,33.6,0)" xlink:href="#K"/></g><path d="M333 0C238-4 124-4 28 0v-31h26c79 0 82-11 82-47v-527c0-36-3-47-82-47H28v-31c95 4 209 4 305 0v31h-26c-79 0-82 11-82 47v527c0 36 3 47 82 47h26V0" id="R"/><path d="M192-53c0 29-24 53-53 53S86-24 86-53s24-53 53-53 53 24 53 53" id="S"/><g id="i"><use transform="matrix(0.02,0,0,0.02,0,0)" xlink:href="#R"/><use transform="matrix(0.02,0,0,0.02,7.22,0)" xlink:href="#A"/><use transform="matrix(0.02,0,0,0.02,17.78,0)" xlink:href="#B"/><use transform="matrix(0.02,0,0,0.02,25.560000000000002,0)" xlink:href="#D"/><use transform="matrix(0.02,0,0,0.02,34.440000000000005,0)" xlink:href="#G"/><use transform="matrix(0.02,0,0,0.02,42.28,0)" xlink:href="#I"/><use transform="matrix(0.02,0,0,0.02,51.160000000000004,0)" xlink:href="#J"/><use transform="matrix(0.02,0,0,0.02,61.160000000000004,0)" xlink:href="#A"/><use transform="matrix(0.02,0,0,0.02,72.28,0)" xlink:href="#S"/></g><g id="j"><use transform="matrix(0.02,0,0,0.02,0,0)" xlink:href="#P"/><use transform="matrix(0.02,0,0,0.02,18.9,0)" xlink:href="#G"/><use transform="matrix(0.02,0,0,0.02,26.740000000000002,0)" xlink:href="#Q"/><use transform="matrix(0.02,0,0,0.02,32.3,0)" xlink:href="#B"/><use transform="matrix(0.02,0,0,0.02,40.08,0)" xlink:href="#D"/></g><path d="M231-440c51-7 72-24 119-24 31 0 37 21 37 34 0 5-2 33-37 33-38 0-85-22-119-24 5 69 26 145 24 203-7 170-7 274-20 416-2 13-2 18-14 18-11 0-12-6-13-20-9-95-20-263-20-414 0-55 19-137 24-203-51 7-72 24-119 24-31 0-37-21-37-34 0-5 2-33 37-33 38 0 85 22 119 24 0-64-22-148-24-224 0-9 0-41 34-41 33 0 33 33 33 41 1 57-26 190-24 224" id="T"/><path d="M813 0c-75-3-150-3-225 0v-31c67 0 78 0 78-45v-233c0-57-11-111-74-111-64 0-135 56-135 160v184c0 45 11 45 78 45V0c-75-3-150-3-225 0v-31c67 0 78 0 78-45v-233c0-57-11-111-74-111-64 0-135 56-135 160v184c0 45 11 45 78 45V0C182-3 107-3 32 0v-31c67 0 78 0 78-45v-268c0-49-8-56-78-56v-31l141-11v105c28-62 75-105 148-105 45 0 119 11 133 98 17-38 61-98 145-98 58 0 90 21 105 37 53 55 23 235 31 344 2 30 26 30 78 30V0" id="U"/><g id="k"><use transform="matrix(0.012444444444444444,0,0,0.012444444444444444,0,-5.015111111111111)" xlink:href="#T"/><use transform="matrix(0.017777777777777778,0,0,0.017777777777777778,5.525333333333333,0)" xlink:href="#y"/><use transform="matrix(0.017777777777777778,0,0,0.017777777777777778,21.827555555555556,0)" xlink:href="#D"/><use transform="matrix(0.017777777777777778,0,0,0.017777777777777778,29.720888888888886,0)" xlink:href="#U"/><use transform="matrix(0.017777777777777778,0,0,0.017777777777777778,44.52977777777778,0)" xlink:href="#J"/><use transform="matrix(0.017777777777777778,0,0,0.017777777777777778,53.41866666666667,0)" xlink:href="#G"/><use transform="matrix(0.017777777777777778,0,0,0.017777777777777778,60.38755555555556,0)" xlink:href="#O"/></g><path d="M423-750c18 5 24 14 15 38L97 230c1 24-42 27-41 0C169-92 287-410 402-730c3-10 7-20 21-20" id="V"/><path d="M610-455h-25c-16-138-41-194-191-194H274c-47 0-49 7-49 40v253h86c96 0 106-33 106-117h25v265h-25c0-85-10-117-106-117h-86v246c0 35 0 48 95 48h33V0C254-4 132-5 33 0v-31h24c77 0 79-11 79-47v-524c0-36-2-47-79-47H33v-31h549" id="W"/><g id="l"><use transform="matrix(0.017777777777777778,0,0,0.017777777777777778,0,0)" xlink:href="#R"/><use transform="matrix(0.017777777777777778,0,0,0.017777777777777778,6.417777777777777,0)" xlink:href="#V"/><use transform="matrix(0.017777777777777778,0,0,0.017777777777777778,15.306666666666667,0)" xlink:href="#W"/></g><path d="M726 0c-89-2-187-5-276 0v-31c49-4 75-18 60-41L352-311 210-101c-24 33-5 64 53 70V0C184-5 102-2 24 0v-31c101 0 131-46 145-66l164-242-184-278c-17-32-53-36-112-35v-31c89 2 187 5 276 0v31c-51 5-76 18-58 45l129 193 114-169c24-34-3-67-53-69v-31c80 5 160 2 239 0v31c-89 1-123 33-145 65L402-386 613-67c21 36 55 37 113 36V0" id="X"/><path d="M471-165H371v87c0 36 2 47 76 47h21V0c-89-4-182-4-271 0v-31h21c74 0 76-11 76-47v-87H28v-31l307-469c11-20 42-18 36 14v455h100v31zm-171-31v-373L56-196h244" id="Y"/><g id="m"><use transform="matrix(0.018,0,0,0.018,0,0)" xlink:href="#N"/><use transform="matrix(0.018,0,0,0.018,13.499999999999998,0)" xlink:href="#X"/><use transform="matrix(0.018,0,0,0.018,26.999999999999996,0)" xlink:href="#R"/><use transform="matrix(0.018,0,0,0.018,33.498,0)" xlink:href="#Y"/></g><g id="n"><use transform="matrix(0.018,0,0,0.018,0,0)" xlink:href="#C"/><use transform="matrix(0.018,0,0,0.018,5.004,0)" xlink:href="#Q"/><use transform="matrix(0.018,0,0,0.018,10.008,0)" xlink:href="#B"/><use transform="matrix(0.018,0,0,0.018,17.009999999999998,0)" xlink:href="#D"/></g><path d="M721-339c0 202-151 361-333 361C210 22 56-134 56-339c0-206 153-366 332-366 182 0 333 162 333 366zm-103-14c0-256-143-327-230-327-83 0-229 68-229 327C159-92 293-4 389-4c92 0 229-84 229-349" id="Z"/><g id="o"><use transform="matrix(0.012444444444444444,0,0,0.012444444444444444,0,-5.015111111111111)" xlink:href="#T"/><use transform="matrix(0.017777777777777778,0,0,0.017777777777777778,5.525333333333333,0)" xlink:href="#y"/><use transform="matrix(0.017777777777777778,0,0,0.017777777777777778,21.827555555555556,0)" xlink:href="#y"/><use transform="matrix(0.017777777777777778,0,0,0.017777777777777778,38.129777777777775,0)" xlink:href="#R"/><use transform="matrix(0.017777777777777778,0,0,0.017777777777777778,44.54755555555555,0)" xlink:href="#Z"/></g><path d="M665-233c0 116-98 255-261 255C218 22 56-135 56-342c0-204 161-363 348-363 96 0 147 50 184 86l50-74c13-20 27-17 27 12v237c0 21 0 24-16 24-14 0-14-3-16-17-20-146-109-237-218-237-61 0-256 34-256 333C159-43 355-9 416-9c109 0 216-82 224-225 1-10 1-16 12-16 13 0 13 7 13 17" id="aa"/><g id="p"><use transform="matrix(0.015555555555555557,0,0,0.015555555555555557,0,0)" xlink:href="#aa"/><use transform="matrix(0.015555555555555557,0,0,0.015555555555555557,11.231111111111112,0)" xlink:href="#J"/><use transform="matrix(0.015555555555555557,0,0,0.015555555555555557,19.00888888888889,0)" xlink:href="#U"/><use transform="matrix(0.015555555555555557,0,0,0.015555555555555557,31.96666666666667,0)" xlink:href="#U"/><use transform="matrix(0.015555555555555557,0,0,0.015555555555555557,44.92444444444445,0)" xlink:href="#z"/><use transform="matrix(0.015555555555555557,0,0,0.015555555555555557,52.702222222222225,0)" xlink:href="#A"/><use transform="matrix(0.015555555555555557,0,0,0.015555555555555557,61.351111111111116,0)" xlink:href="#K"/></g><path d="M499-186c0 110-80 208-197 208-89 0-153-36-184-70C85 5 82 9 82 9c-7 11-8 13-15 13-11 0-11-7-11-24v-200c0-18 0-25 13-25 3 0 11 0 12 10 1 36 4 100 62 154C196-14 272-9 301-9c121-1 172-148 103-235-32-63-188-65-217-84-78-27-131-100-131-183 0-106 84-194 195-194 89 0 130 41 160 70l35-57c7-12 8-13 15-13 11 0 11 7 11 24v201c9 30-23 29-25 12-4-45-28-209-195-209-78 0-132 61-132 131 0 58 39 112 101 127l128 31c84 20 150 102 150 202" id="ab"/><path d="M287-420c8-5 30-32 37-28 11 0 11 7 11 24v101c0 19 0 24-13 24 0 0-11 0-12-9-2-31-7-121-117-121-86 0-112 41-112 76 0 58 67 71 123 82 42 8 81 16 114 48 12 12 42 42 42 95 0 72-46 139-161 139-21 0-66-1-110-43C68-9 56 7 44 11c-11 0-11-7-11-24v-132c0-18 0-25 13-25 10 0 11 4 14 17C79-68 115-11 199-11c78 0 113-40 113-91 0-72-82-88-104-92-72-14-100-20-132-46-27-22-43-50-43-85 0-56 38-123 160-123 15 0 56 0 94 28" id="ac"/><g id="q"><use transform="matrix(0.015555555555555557,0,0,0.015555555555555557,0,0)" xlink:href="#ab"/><use transform="matrix(0.015555555555555557,0,0,0.015555555555555557,8.648888888888889,0)" xlink:href="#B"/><use transform="matrix(0.015555555555555557,0,0,0.015555555555555557,14.700000000000001,0)" xlink:href="#G"/><use transform="matrix(0.015555555555555557,0,0,0.015555555555555557,20.797777777777778,0)" xlink:href="#D"/><use transform="matrix(0.015555555555555557,0,0,0.015555555555555557,27.704444444444444,0)" xlink:href="#z"/><use transform="matrix(0.015555555555555557,0,0,0.015555555555555557,35.48222222222222,0)" xlink:href="#U"/><use transform="matrix(0.015555555555555557,0,0,0.015555555555555557,48.44,0)" xlink:href="#ac"/></g><path d="M707-336C707-148 569 0 401 0H35v-31h24c77 0 79-11 79-47v-527c0-36-2-47-79-47H35v-31h366c171 0 306 157 306 347zM552-116c68-84 82-339 3-443-77-102-146-96-282-93-47 0-49 7-49 40v541c0 33 2 40 49 40h101c101 0 157-59 178-85" id="ad"/><g id="r"><use transform="matrix(0.015555555555555557,0,0,0.015555555555555557,0,0)" xlink:href="#ad"/><use transform="matrix(0.015555555555555557,0,0,0.015555555555555557,11.884444444444446,0)" xlink:href="#z"/><use transform="matrix(0.015555555555555557,0,0,0.015555555555555557,19.662222222222226,0)" xlink:href="#B"/><use transform="matrix(0.015555555555555557,0,0,0.015555555555555557,25.71333333333334,0)" xlink:href="#z"/></g><use transform="matrix(0.013333333333333334,0,0,0.013333333333333334,0,0)" xlink:href="#T" id="s"/><path d="M521-216C521-87 417 11 298 11c-76 0-118-54-123-70v177c0 45 11 45 78 45v31c-75-3-150-3-225 0v-31c67 0 78 0 78-45v-468c0-44-7-50-78-50v-31l144-11v66c20-22 62-66 140-66 112 0 209 99 209 226zm-83 0c0-113-61-201-134-201-51 0-100 29-129 80v223c0 20 0 21 14 42 94 131 249 35 249-144" id="ae"/><path d="M357-635c0 24-15 44-44 44-27 0-43-20-43-43 0-25 18-38 30-42-72-26-125 27-125 129v116h117v31H178v322c0 36 2 47 76 47h21V0C195-6 114-2 34 0v-31c67 0 78 0 78-45v-324H33v-31h79v-115c0-106 85-159 155-159 53 0 90 33 90 70" id="af"/><g id="t"><use transform="matrix(0.013333333333333334,0,0,0.013333333333333334,0,0)" xlink:href="#ae"/><use transform="matrix(0.013333333333333334,0,0,0.013333333333333334,7.413333333333334,0)" xlink:href="#C"/><use transform="matrix(0.013333333333333334,0,0,0.013333333333333334,11.120000000000001,0)" xlink:href="#z"/><use transform="matrix(0.013333333333333334,0,0,0.013333333333333334,17.78666666666667,0)" xlink:href="#B"/><use transform="matrix(0.013333333333333334,0,0,0.013333333333333334,22.973333333333336,0)" xlink:href="#af"/><use transform="matrix(0.013333333333333334,0,0,0.013333333333333334,27.053333333333335,0)" xlink:href="#J"/><use transform="matrix(0.013333333333333334,0,0,0.013333333333333334,33.72,0)" xlink:href="#G"/><use transform="matrix(0.013333333333333334,0,0,0.013333333333333334,38.946666666666665,0)" xlink:href="#U"/></g><g id="u"><use transform="matrix(0.013333333333333334,0,0,0.013333333333333334,0,0)" xlink:href="#ac"/><use transform="matrix(0.013333333333333334,0,0,0.013333333333333334,5.253333333333334,0)" xlink:href="#ae"/><use transform="matrix(0.013333333333333334,0,0,0.013333333333333334,13.040000000000001,0)" xlink:href="#D"/><use transform="matrix(0.013333333333333334,0,0,0.013333333333333334,18.96,0)" xlink:href="#I"/><use transform="matrix(0.013333333333333334,0,0,0.013333333333333334,24.880000000000003,0)" xlink:href="#Q"/><use transform="matrix(0.013333333333333334,0,0,0.013333333333333334,28.58666666666667,0)" xlink:href="#af"/><use transform="matrix(0.013333333333333334,0,0,0.013333333333333334,32.66666666666667,0)" xlink:href="#Q"/><use transform="matrix(0.013333333333333334,0,0,0.013333333333333334,36.373333333333335,0)" xlink:href="#I"/></g><use transform="matrix(0.013333333333333334,0,0,0.013333333333333334,0,0)" xlink:href="#E" id="v"/><g id="w"><use transform="matrix(0.013333333333333334,0,0,0.013333333333333334,0,0)" xlink:href="#z"/><use transform="matrix(0.013333333333333334,0,0,0.013333333333333334,6.666666666666667,0)" xlink:href="#ae"/><use transform="matrix(0.013333333333333334,0,0,0.013333333333333334,14.08,0)" xlink:href="#ae"/><use transform="matrix(0.013333333333333334,0,0,0.013333333333333334,21.493333333333336,0)" xlink:href="#C"/><use transform="matrix(0.013333333333333334,0,0,0.013333333333333334,25.200000000000003,0)" xlink:href="#Q"/><use transform="matrix(0.013333333333333334,0,0,0.013333333333333334,28.90666666666667,0)" xlink:href="#I"/><use transform="matrix(0.013333333333333334,0,0,0.013333333333333334,34.82666666666667,0)" xlink:href="#z"/><use transform="matrix(0.013333333333333334,0,0,0.013333333333333334,41.49333333333333,0)" xlink:href="#B"/><use transform="matrix(0.013333333333333334,0,0,0.013333333333333334,46.68,0)" xlink:href="#Q"/><use transform="matrix(0.013333333333333334,0,0,0.013333333333333334,50.38666666666667,0)" xlink:href="#J"/><use transform="matrix(0.013333333333333334,0,0,0.013333333333333334,57.053333333333335,0)" xlink:href="#A"/></g><g id="x"><use transform="matrix(0.013333333333333334,0,0,0.013333333333333334,0,0)" xlink:href="#ac"/><use transform="matrix(0.013333333333333334,0,0,0.013333333333333334,5.253333333333334,0)" xlink:href="#ae"/><use transform="matrix(0.013333333333333334,0,0,0.013333333333333334,13.040000000000001,0)" xlink:href="#D"/><use transform="matrix(0.013333333333333334,0,0,0.013333333333333334,18.96,0)" xlink:href="#I"/><use transform="matrix(0.013333333333333334,0,0,0.013333333333333334,24.880000000000003,0)" xlink:href="#Q"/><use transform="matrix(0.013333333333333334,0,0,0.013333333333333334,28.58666666666667,0)" xlink:href="#af"/><use transform="matrix(0.013333333333333334,0,0,0.013333333333333334,32.66666666666667,0)" xlink:href="#Q"/><use transform="matrix(0.013333333333333334,0,0,0.013333333333333334,36.373333333333335,0)" xlink:href="#I"/></g></defs></g></svg>