<svg xmlns="http://www.w3.org/2000/svg" xmlns:xlink="http://www.w3.org/1999/xlink" xmlns:lucid="lucid" width="858.38" height="581"><g transform="translate(0 0)" lucid:page-tab-id="vgstE~WU~EkL"><path d="M0 0h860v580H0z" fill="#fff"/><path d="M20 20h687.88v520H20z" stroke="#c0a140" stroke-width="2" fill="#ffe081"/><use xlink:href="#a" transform="matrix(1,0,0,1,25,25.00000000000003) translate(616.88 16.12)"/><path d="M308.68 200h200v160h-200z" stroke="#7fc040" stroke-width="2" fill="#bfff81"/><path d="M288.68 220h200v160h-200zM309.68 41h200v160h-200z" stroke="#7fc040" stroke-width="2" fill="#bfff81"/><path d="M289.68 61h200v160h-200z" stroke="#7fc040" stroke-width="2" fill="#bfff81"/><path d="M32 41h168v479H32z" stroke="#b340c0" stroke-width="2" fill="#f281ff"/><use xlink:href="#b" transform="matrix(1,0,0,1,37,46.00009177840198) translate(0 16.12)"/><path d="M60 80h107.88v240H60z" stroke="#999" stroke-width="2" fill="#e5e5e5"/><use xlink:href="#c" transform="matrix(1,0,0,1,65,85) translate(17.317333333333327 98.28666666666666)"/><use xlink:href="#d" transform="matrix(1,0,0,1,65,85) translate(49 118.28666666666666)"/><use xlink:href="#e" transform="matrix(1,0,0,1,65,85) translate(11.22666666666666 132.91333333333333)"/><use xlink:href="#f" transform="matrix(1,0,0,1,65,85) translate(27.83333333333333 146.24666666666667)"/><use xlink:href="#g" transform="matrix(1,0,0,1,65,85) translate(46.35333333333333 146.24666666666667)"/><path d="M267.88 80h200v160h-200z" stroke="#7fc040" stroke-width="2" fill="#bfff81"/><use xlink:href="#h" transform="matrix(1,0,0,1,272.87716846375275,85) translate(7.86999999999999 16.12)"/><path d="M328.68 120h120v60h-120z" stroke="#408fc0" stroke-width="2" fill="#81ceff"/><path d="M308.68 140h120v60h-120z" stroke="#408fc0" stroke-width="2" fill="#81ceff"/><path d="M288.68 160h120v60h-120z" stroke="#408fc0" stroke-width="2" fill="#81ceff"/><use xlink:href="#i" transform="matrix(1,0,0,1,293.67716846375254,164.99999999999997) translate(29.659999999999997 21.619999999999997)"/><use xlink:href="#j" transform="matrix(1,0,0,1,293.67716846375254,164.99999999999997) translate(24.28 41.62)"/><path d="M268.68 240h200v160h-200z" stroke="#7fc040" stroke-width="2" fill="#bfff81"/><use xlink:href="#k" transform="matrix(1,0,0,1,273.6771684637527,244.99999999999997) translate(11.019999999999996 16.12)"/><path d="M328.68 280h120v60h-120z" stroke="#408fc0" stroke-width="2" fill="#81ceff"/><path d="M308.68 300h120v60h-120z" stroke="#408fc0" stroke-width="2" fill="#81ceff"/><path d="M288.68 320h120v60h-120z" stroke="#408fc0" stroke-width="2" fill="#81ceff"/><use xlink:href="#i" transform="matrix(1,0,0,1,293.67716846375254,324.9999999999999) translate(29.659999999999997 21.619999999999997)"/><use xlink:href="#l" transform="matrix(1,0,0,1,293.67716846375254,324.9999999999999) translate(26.6 41.62)"/><path d="M265.88 142.63h-78.5M265.88 138.63h-78.5" stroke="#000" stroke-width="2" fill="none"/><path d="M266.88 143.63h-1.03v-2h1.03zM266.88 139.63h-1.03v-2h1.03z"/><path d="M172.1 140.63L186.4 136v9.27z" stroke="#000" stroke-width="2"/><path d="M249.17 307.53h-79.3M249.17 303.53h-79.3" stroke="#000" stroke-width="2" fill="none"/><path d="M264.44 305.53l-14.27 4.63v-9.27z" stroke="#000" stroke-width="2"/><path d="M169.9 308.53h-1.02v-2h1.02zM169.9 304.53h-1.02v-2h1.02z"/><path d="M169.88 108.22h78.5" fill="none"/><path d="M169.88 108.22h2.94m3.93 0h5.88m3.93 0h5.9m3.9 0h5.9m3.92 0h5.9m3.92 0h5.88m3.93 0h5.9m3.92 0h5.9m3.9 0h2.96" stroke="#666" stroke-width="2" fill="none"/><path d="M169.88 112.22h78.5" fill="none"/><path d="M169.88 112.22h2.94m3.93 0h5.88m3.93 0h5.9m3.9 0h5.9m3.92 0h5.9m3.92 0h5.88m3.93 0h5.9m3.92 0h5.9m3.9 0h2.96" stroke="#666" stroke-width="2" fill="none"/><path d="M169.9 109.22h-1.02v-2h1.02zM169.9 113.22h-1.02v-2h1.02z" fill="#666"/><path d="M263.64 110.22l-14.26 4.64v-9.27z" stroke="#666" stroke-width="2" fill="#666"/><path d="M169.88 279.56h79.3" fill="none"/><path d="M169.88 279.56h2.97m3.97 0h5.94m3.97 0h5.95m3.96 0h5.95m3.95 0h5.95m3.97 0h5.94m3.98 0h5.94m3.97 0h5.94m3.96 0h2.98" stroke="#666" stroke-width="2" fill="none"/><path d="M169.88 283.56h79.3" fill="none"/><path d="M169.88 283.56h2.97m3.97 0h5.94m3.97 0h5.95m3.96 0h5.95m3.95 0h5.95m3.97 0h5.94m3.98 0h5.94m3.97 0h5.94m3.96 0h2.98" stroke="#666" stroke-width="2" fill="none"/><path d="M169.9 280.56h-1.02v-2h1.02zM169.9 284.56h-1.02v-2h1.02z" fill="#666"/><path d="M264.44 281.56l-14.26 4.64v-9.27z" stroke="#666" stroke-width="2" fill="#666"/><path d="M511.68 119h36.7" fill="none"/><path d="M511.68 119h2.75m3.67 0h5.5m3.67 0h5.5m3.68 0h5.5m3.67 0h2.76" stroke="#666" stroke-width="2" fill="none"/><path d="M511.68 123h36.7" fill="none"/><path d="M511.68 123h2.75m3.67 0h5.5m3.67 0h5.5m3.68 0h5.5m3.67 0h2.76" stroke="#666" stroke-width="2" fill="none"/><path d="M511.7 120h-1.02v-2h1.02zM511.7 124h-1.02v-2h1.02z" fill="#666"/><path d="M563.64 121l-14.26 4.64v-9.28z" stroke="#666" stroke-width="2" fill="#666"/><path d="M565.88 173.9h-36.7M565.88 169.9h-36.7" stroke="#000" stroke-width="2" fill="none"/><path d="M566.88 174.9h-1.03v-2h1.03zM566.88 170.9h-1.03v-2h1.03z"/><path d="M513.9 171.9l14.28-4.64v9.27z" stroke="#000" stroke-width="2"/><path d="M510.68 278l37.7.13" fill="none"/><path d="M510.68 278h2.83m3.78.03l5.66.02m3.77 0l5.66.03m3.77 0l5.66.03m3.75.02h2.83" stroke="#666" stroke-width="2" fill="none"/><path d="M510.67 282l37.7.13" fill="none"/><path d="M510.67 282h2.83m3.77.03l5.65.02m3.77 0l5.65.03m3.77 0l5.65.03m3.77.02h2.83" stroke="#666" stroke-width="2" fill="none"/><path d="M510.7 277v2h-1.02v-2zM510.7 281v2h-1.02v-2z" fill="#666"/><path d="M563.64 280.18l-14.28 4.6.03-9.28z" stroke="#666" stroke-width="2" fill="#666"/><path d="M510.68 315.5h37.7M510.68 319.5h37.7" stroke="#000" stroke-width="2" fill="none"/><path d="M510.7 314.5v2h-1.02v-2zM510.7 318.5v2h-1.02v-2z"/><path d="M563.64 317.5l-14.27 4.63v-9.27z" stroke="#000" stroke-width="2"/><path d="M567.88 80h100v160h-100z" stroke="#c04040" stroke-width="2" fill="#ff8181"/><use xlink:href="#m" transform="matrix(1,0,0,1,572.8771684637528,85) translate(23.14 71.62)"/><use xlink:href="#n" transform="matrix(1,0,0,1,572.8771684637528,85) translate(6.579999999999998 91.62)"/><path d="M567.88 240h100v160h-100z" stroke="#c04040" stroke-width="2" fill="#ff8181"/><use xlink:href="#o" transform="matrix(1,0,0,1,572.8771684637527,244.99999999999997) translate(21.02 71.62)"/><use xlink:href="#n" transform="matrix(1,0,0,1,572.8771684637527,244.99999999999997) translate(6.579999999999998 91.62)"/><path d="M669.88 118.5h58.5" fill="none"/><path d="M669.88 118.5h2.92m3.9 0h5.85m3.9 0h5.85m3.9 0h5.85m3.9 0h5.85m3.9 0h5.85m3.9 0h2.93" stroke="#666" stroke-width="2" fill="none"/><path d="M669.9 119.5h-1.02v-2h1.02z" fill="#666"/><path d="M743.64 118.5l-14.26 4.65v-9.27z" stroke="#666" stroke-width="2" fill="#666"/><path d="M745.88 173.02h-58.5" stroke="#000" stroke-width="2" fill="none"/><path d="M746.88 174.02h-1.03v-2h1.03z"/><path d="M672.1 173.02l14.28-4.64v9.27z" stroke="#000" stroke-width="2"/><path d="M669.88 280h58.5" fill="none"/><path d="M669.88 280h2.92m3.9 0h5.85m3.9 0h5.85m3.9 0h5.85m3.9 0h5.85m3.9 0h5.85m3.9 0h2.93" stroke="#666" stroke-width="2" fill="none"/><path d="M669.9 281h-1.02v-2h1.02z" fill="#666"/><path d="M743.64 280l-14.26 4.62v-9.27z" stroke="#666" stroke-width="2" fill="#666"/><path d="M747.88 20h90.5v380h-90.5z" stroke="#999" stroke-width="2" fill="#e5e5e5"/><use xlink:href="#p" transform="matrix(1,0,0,1,752.8771684637534,25) translate(5.6128888888888895 181.5511111111111)"/><use xlink:href="#q" transform="matrix(1,0,0,1,752.8771684637534,25) translate(27.04222222222222 199.32888888888888)"/><path d="M728.37 320h-58.5" stroke="#000" stroke-width="2" fill="none"/><path d="M743.64 320l-14.27 4.64v-9.28z" stroke="#000" stroke-width="2"/><path d="M669.9 321h-1.02v-2h1.02z"/><path d="M747.88 400h90.5v140h-90.5z" stroke="#999" stroke-width="2" fill="#e5e5e5"/><use xlink:href="#r" transform="matrix(1,0,0,1,752.8771684637534,405) translate(11.310666666666666 61.55111111111111)"/><use xlink:href="#q" transform="matrix(1,0,0,1,752.8771684637534,405) translate(27.04222222222222 79.32888888888888)"/><path d="M728.38 455.8h-541" fill="none"/><path d="M728.38 455.8h-3m-4.02 0h-6m-4.02 0h-6m-4 0h-6.03m-4 0h-6m-4 0h-6.02m-4 0h-6.02m-4 0h-6.02m-4 0h-6.02m-4 0h-6.02m-4 0h-6m-4.02 0h-6m-4.02 0h-6m-4.02 0h-6m-4.02 0h-6m-4.02 0h-6m-4 0h-6.03m-4 0h-6m-4.02 0h-6m-4.02 0h-6m-4.02 0h-6m-4 0h-6.02m-4 0h-6.02m-4 0h-6m-4.02 0h-6m-4.02 0h-6m-4.02 0h-6m-4.02 0h-6m-4.02 0h-6m-4 0h-6.03m-4 0h-6m-4.02 0h-6m-4 0h-6.02m-4 0h-6.02m-4 0h-6.02m-4 0h-6.02m-4 0h-6m-4.02 0h-6m-4.02 0h-6m-4.02 0h-6m-4.02 0h-6m-4.02 0h-6m-4 0h-6.03m-4 0h-6.02m-4 0h-6.02m-4 0h-6.02m-4 0h-6.02m-4 0h-6.02m-4 0h-6.02m-4 0h-6m-4.02 0h-6m-4.02 0h-6m-4.02 0h-6m-4.02 0h-6m-4.02 0h-3" stroke="#666" stroke-width="2" fill="none"/><path d="M728.38 451.8h-541" fill="none"/><path d="M728.38 451.8h-3m-4.02 0h-6m-4.02 0h-6m-4 0h-6.03m-4 0h-6m-4 0h-6.02m-4 0h-6.02m-4 0h-6.02m-4 0h-6.02m-4 0h-6.02m-4 0h-6m-4.02 0h-6m-4.02 0h-6m-4.02 0h-6m-4.02 0h-6m-4.02 0h-6m-4 0h-6.03m-4 0h-6m-4.02 0h-6m-4.02 0h-6m-4.02 0h-6m-4 0h-6.02m-4 0h-6.02m-4 0h-6m-4.02 0h-6m-4.02 0h-6m-4.02 0h-6m-4.02 0h-6m-4.02 0h-6m-4 0h-6.03m-4 0h-6m-4.02 0h-6m-4 0h-6.02m-4 0h-6.02m-4 0h-6.02m-4 0h-6.02m-4 0h-6m-4.02 0h-6m-4.02 0h-6m-4.02 0h-6m-4.02 0h-6m-4.02 0h-6m-4 0h-6.03m-4 0h-6.02m-4 0h-6.02m-4 0h-6.02m-4 0h-6.02m-4 0h-6.02m-4 0h-6.02m-4 0h-6m-4.02 0h-6m-4.02 0h-6m-4.02 0h-6m-4.02 0h-6m-4.02 0h-3" stroke="#666" stroke-width="2" fill="none"/><path d="M743.64 453.8l-14.26 4.65v-9.27zM172.1 453.8l14.28-4.62v9.27z" stroke="#666" stroke-width="2" fill="#666"/><use xlink:href="#s" transform="matrix(1,0,0,1,470.36050170320976,457.8104798612204) translate(0 14.508000000000001)"/><use xlink:href="#t" transform="matrix(1,0,0,1,470.36050170320976,457.8104798612204) translate(48.492 14.508000000000001)"/><path d="M178.4 61h76.55v40H178.4z" fill="#fff" fill-opacity=".33"/><use xlink:href="#u" transform="matrix(1,0,0,1,183.4058860007782,66.00009177840192) translate(-1.5 12.426666666666662)"/><use xlink:href="#v" transform="matrix(1,0,0,1,183.4058860007782,66.00009177840192) translate(6.215555555555557 27.98222222222222)"/><path d="M178.4 150h81.35v40H178.4z" fill="#fff" fill-opacity=".33"/><use xlink:href="#w" transform="matrix(1,0,0,1,183.4058860007782,155) translate(19.25444444444444 12.53777777777778)"/><use xlink:href="#v" transform="matrix(1,0,0,1,183.4058860007782,155) translate(8.715555555555557 28.09333333333334)"/><path d="M178.4 229.17h81.35v41.1H178.4z" fill="#fff" fill-opacity=".33"/><g><use xlink:href="#u" transform="matrix(1,0,0,1,183.4058860007782,234.16666666666666) translate(1 13.426666666666662)"/><use xlink:href="#v" transform="matrix(1,0,0,1,183.4058860007782,234.16666666666666) translate(8.715555555555557 28.982222222222223)"/></g><path d="M20 540h360.8v20H20z" fill="#fff" fill-opacity="0"/><g><use xlink:href="#x" transform="matrix(1,0,0,1,25,545) translate(0 10.746666666666668)"/><use xlink:href="#y" transform="matrix(1,0,0,1,25,545) translate(10.360000000000001 10.746666666666668)"/><use xlink:href="#z" transform="matrix(1,0,0,1,25,545) translate(64.85333333333334 10.746666666666668)"/><use xlink:href="#A" transform="matrix(1,0,0,1,25,545) translate(129.34666666666666 10.746666666666668)"/><use xlink:href="#B" transform="matrix(1,0,0,1,25,545) translate(139.70666666666668 10.746666666666668)"/><use xlink:href="#C" transform="matrix(1,0,0,1,25,545) translate(208.61333333333334 10.746666666666668)"/></g><path d="M178.4 318.9h81.35V360H178.4z" fill="#fff" fill-opacity=".33"/><g><use xlink:href="#w" transform="matrix(1,0,0,1,183.4058860007782,323.8888888888889) translate(19.25444444444444 12.53777777777778)"/><use xlink:href="#v" transform="matrix(1,0,0,1,183.4058860007782,323.8888888888889) translate(8.715555555555557 28.09333333333334)"/></g><path d="M60 408.93h107.88V500H60z" stroke="#999" stroke-width="2" fill="#e5e5e5"/><g><use xlink:href="#D" transform="matrix(1,0,0,1,65,413.934198795141) translate(19.27 27.119999999999997)"/><use xlink:href="#E" transform="matrix(1,0,0,1,65,413.934198795141) translate(49 41.74666666666666)"/><use xlink:href="#F" transform="matrix(1,0,0,1,65,413.934198795141) translate(18.93333333333333 55.08)"/><use xlink:href="#G" transform="matrix(1,0,0,1,65,413.934198795141) translate(12.513333333333328 68.41333333333334)"/><use xlink:href="#H" transform="matrix(1,0,0,1,65,413.934198795141) translate(31.03333333333333 68.41333333333334)"/></g><path d="M113.94 389.43V339.5" stroke="#000" stroke-width="2" fill="none"/><path d="M113.94 404.7l-4.64-14.27h9.27zM113.94 324.24l4.63 14.26h-9.27z" stroke="#000" stroke-width="2"/><path d="M46.33 324.58h53.84v56.62H46.33z" fill="#fff" fill-opacity=".33"/><g><use xlink:href="#I" transform="matrix(1,0,0,1,48.33044846064084,326.57797010262385) translate(0 10.746666666666668)"/><use xlink:href="#J" transform="matrix(1,0,0,1,48.33044846064084,326.57797010262385) translate(0 24.080000000000005)"/><use xlink:href="#K" transform="matrix(1,0,0,1,48.33044846064084,326.57797010262385) translate(39.400000000000006 24.080000000000005)"/><use xlink:href="#L" transform="matrix(1,0,0,1,48.33044846064084,326.57797010262385) translate(0 37.41333333333334)"/><use xlink:href="#M" transform="matrix(1,0,0,1,48.33044846064084,326.57797010262385) translate(0 50.74666666666668)"/></g><defs><path d="M879 0c-92-4-195-4-287 0v-31h24c77 0 79-11 79-47-1-191 1-385-1-574L448-19c-4 11-7 19-18 19-10 0-15-9-20-22-81-207-160-416-242-622v539c0 27 0 74 103 74V0C193-3 115-3 37 0v-31c103 0 103-47 103-74v-500c0-36-2-47-79-47H37v-31h169c23 0 26 0 35 22l217 560 219-563c7-18 7-19 33-19h169v31h-24c-77 0-79 11-79 47v527c0 36 2 47 79 47h24V0" id="N"/><path d="M493-89c0 81-61 95-82 95-47 0-74-42-78-82-19 47-65 87-131 87C139 11 42-14 42-95c0-44 25-95 100-130 63-29 133-33 184-36 13-102-46-165-106-165-32 0-81 11-108 46 46 1 51 34 51 46 0 26-18 46-46 46-26 0-46-17-46-47 0-66 69-113 151-113 48 0 98 16 137 55 36 37 36 76 36 118v200c0 5 4 50 37 50 11 0 36-6 36-64v-56h25v56zm-167-51v-100c-165 6-207 89-207 144 0 50 41 85 90 85 45 0 117-34 117-129" id="O"/><path d="M535 0c-75-3-150-3-225 0v-31c67 0 78 0 78-45v-233c0-57-11-111-74-111-64 0-135 56-135 160v184c0 45 11 45 78 45V0C182-3 107-3 32 0v-31c67 0 78 0 78-45v-268c0-49-8-56-78-56v-31l141-11v105c28-62 75-105 148-105 58 0 90 21 105 37 53 55 23 235 31 344 2 30 26 30 78 30V0" id="P"/><path d="M332-181c6 95-8 192-99 192-36 0-129-12-129-135v-276H19v-22c98-4 128-111 129-193h25v184h143v31H173v278c0 17 0 108 67 108 37 0 67-38 67-112v-55h25" id="Q"/><path d="M255 0C181-3 107-3 33 0v-31c67 0 78 0 78-45v-520c0-49-8-56-78-56v-31l144-11v618c0 45 11 45 78 45V0" id="R"/><path d="M415-119c0 19-45 130-167 130C133 11 28-86 28-220c0-125 92-228 208-228 125 0 179 97 179 196 0 21-3 21-25 21H111c0 36 0 102 30 150 23 37 63 67 113 67 10 0 100 0 135-103 0-16 26-21 26-2zm-66-133c0-39-10-174-113-174-34 0-118 25-124 174h237" id="S"/><g id="a"><use transform="matrix(0.02,0,0,0.02,0,0)" xlink:href="#N"/><use transform="matrix(0.02,0,0,0.02,18.34,0)" xlink:href="#O"/><use transform="matrix(0.02,0,0,0.02,28.34,0)" xlink:href="#P"/><use transform="matrix(0.02,0,0,0.02,38.900000000000006,0)" xlink:href="#Q"/><use transform="matrix(0.02,0,0,0.02,46.68000000000001,0)" xlink:href="#R"/><use transform="matrix(0.02,0,0,0.02,52.24000000000001,0)" xlink:href="#S"/></g><path d="M136-627c8-34-48-25-74-25H33v-31h170c19 0 20 1 29 13l353 519v-427c0-27 0-74-103-74v-31c78 3 156 3 234 0v31c-103 0-103 47-103 74v552c4 31-17 33-31 13-138-205-276-410-418-612v520c0 27 0 74 103 74V0C189-3 111-3 33 0v-31c103 0 103-47 103-74v-522" id="T"/><path d="M535 0L391 11v-90c-29 62-73 90-129 90-152 0-152-91-152-169v-150c0-89 0-92-78-92v-31l147-11v332c0 52 4 99 88 99 73 0 121-68 121-155v-178c0-49-8-56-78-56v-31l147-11v355c0 49 8 56 78 56V0" id="U"/><path d="M415-119c0 10-32 130-166 130C133 11 34-88 34-216c0-124 92-232 217-232 77 0 153 39 153 107 0 30-20 47-46 47-28 0-46-20-46-46 0-13 6-43 47-46-35-36-98-37-107-37-53 0-135 42-135 205 0 161 88 204 141 204 37 0 102-12 131-105 1-11 26-17 26 0" id="V"/><path d="M287-420c8-5 30-32 37-28 11 0 11 7 11 24v101c0 19 0 24-13 24 0 0-11 0-12-9-2-31-7-121-117-121-86 0-112 41-112 76 0 58 67 71 123 82 42 8 81 16 114 48 12 12 42 42 42 95 0 72-46 139-161 139-21 0-66-1-110-43C68-9 56 7 44 11c-11 0-11-7-11-24v-132c0-18 0-25 13-25 10 0 11 4 14 17C79-68 115-11 199-11c78 0 113-40 113-91 0-72-82-88-104-92-72-14-100-20-132-46-27-22-43-50-43-85 0-56 38-123 160-123 15 0 56 0 94 28" id="W"/><g id="b"><use transform="matrix(0.02,0,0,0.02,0,0)" xlink:href="#T"/><use transform="matrix(0.02,0,0,0.02,15,0)" xlink:href="#U"/><use transform="matrix(0.02,0,0,0.02,26.12,0)" xlink:href="#V"/><use transform="matrix(0.02,0,0,0.02,35,0)" xlink:href="#R"/><use transform="matrix(0.02,0,0,0.02,40.56,0)" xlink:href="#S"/><use transform="matrix(0.02,0,0,0.02,49.44,0)" xlink:href="#U"/><use transform="matrix(0.02,0,0,0.02,60.56,0)" xlink:href="#W"/></g><path d="M231-487c51-7 72-24 119-24 31 0 37 21 37 34 0 5-2 33-37 33-38 0-85-22-119-24 0 39 25 138 24 179 0 14-4 39-34 39-11 0-33-4-33-39 1-62 20-110 24-179-51 7-72 24-119 24-31 0-37-21-37-34 0-5 2-33 37-33 38 0 85 22 119 24 0-39-25-138-24-179 0-36 23-39 33-39 34 0 34 32 34 39-1 62-20 110-24 179zm-10 692c-72-2-3-161-9-217-30-3-156 58-156-10 0-69 121-7 156-10-5-70-22-116-24-178 0-14 4-39 34-39 72 2 3 161 9 217 32-1 92-25 123-23 43 2 46 65-1 66-14 5-110-26-122-23 5 70 22 116 24 178 0 14-4 39-34 39" id="X"/><path d="M736 0c-82-2-175-5-258 0v-31c20 0 59 0 59-30 0-12-9-25-15-34L341-363 225-253v175c0 36 2 47 79 47h24V0C235-4 126-4 33 0v-31h24c77 0 79-11 79-47v-527c0-36-2-47-79-47H33v-31c93 4 202 4 295 0v31h-24c-77 0-79 11-79 47v318l313-299c23-21 34-61-28-66v-31c68 4 146 5 212 0v31c-81 1-134 52-142 60L400-419 631-79c30 44 51 48 105 48V0" id="Y"/><path d="M364-381c0 61-82 56-86 1-2-32 40-40 12-40-76 0-118 89-118 188v154c0 36 2 47 76 47h21V0C189-6 108-2 28 0v-31c67 0 78 0 78-45v-268c0-49-8-56-78-56v-31l139-11v110c14-43 50-110 123-110 43 0 74 29 74 61" id="Z"/><g id="c"><use transform="matrix(0.012444444444444444,0,0,0.012444444444444444,0,-5.015111111111111)" xlink:href="#X"/><use transform="matrix(0.02,0,0,0.02,5.525333333333333,0)" xlink:href="#Y"/><use transform="matrix(0.02,0,0,0.02,21.085333333333335,0)" xlink:href="#S"/><use transform="matrix(0.02,0,0,0.02,29.965333333333334,0)" xlink:href="#Z"/><use transform="matrix(0.02,0,0,0.02,37.80533333333334,0)" xlink:href="#P"/><use transform="matrix(0.02,0,0,0.02,48.92533333333334,0)" xlink:href="#S"/><use transform="matrix(0.02,0,0,0.02,57.80533333333335,0)" xlink:href="#R"/></g><path d="M333 0C238-4 124-4 28 0v-31h26c79 0 82-11 82-47v-527c0-36-3-47-82-47H28v-31c95 4 209 4 305 0v31h-26c-79 0-82 11-82 47v527c0 36 3 47 82 47h26V0" id="aa"/><path d="M813 0c-75-3-150-3-225 0v-31c67 0 78 0 78-45v-233c0-57-11-111-74-111-64 0-135 56-135 160v184c0 45 11 45 78 45V0c-75-3-150-3-225 0v-31c67 0 78 0 78-45v-233c0-57-11-111-74-111-64 0-135 56-135 160v184c0 45 11 45 78 45V0C182-3 107-3 32 0v-31c67 0 78 0 78-45v-268c0-49-8-56-78-56v-31l141-11v105c28-62 75-105 148-105 45 0 119 11 133 98 17-38 61-98 145-98 58 0 90 21 105 37 53 55 23 235 31 344 2 30 26 30 78 30V0" id="ab"/><path d="M521-216C521-87 417 11 298 11c-76 0-118-54-123-70v177c0 45 11 45 78 45v31c-75-3-150-3-225 0v-31c67 0 78 0 78-45v-468c0-44-7-50-78-50v-31l144-11v66c20-22 62-66 140-66 112 0 209 99 209 226zm-83 0c0-113-61-201-134-201-51 0-100 29-129 80v223c0 20 0 21 14 42 94 131 249 35 249-144" id="ac"/><path d="M527 0L380 11v-66c-25 32-70 66-134 66C132 11 34-88 34-215c0-129 105-227 223-227 54 0 97 26 126 62v-216c0-49-8-56-78-56v-31l144-11v607c0 49 8 56 78 56V0zM117-214c0 91 43 203 134 203 43 0 88-22 118-70 11-17 11-19 11-37v-205c0-18 0-20-11-37-31-45-73-60-108-60-106 0-144 115-144 206" id="ad"/><g id="e"><use transform="matrix(0.013333333333333334,0,0,0.013333333333333334,0,0)" xlink:href="#aa"/><use transform="matrix(0.013333333333333334,0,0,0.013333333333333334,4.8133333333333335,0)" xlink:href="#ab"/><use transform="matrix(0.013333333333333334,0,0,0.013333333333333334,15.920000000000002,0)" xlink:href="#ac"/><use transform="matrix(0.013333333333333334,0,0,0.013333333333333334,23.333333333333336,0)" xlink:href="#R"/><use transform="matrix(0.013333333333333334,0,0,0.013333333333333334,27.040000000000003,0)" xlink:href="#S"/><use transform="matrix(0.013333333333333334,0,0,0.013333333333333334,32.96,0)" xlink:href="#ab"/><use transform="matrix(0.013333333333333334,0,0,0.013333333333333334,44.06666666666667,0)" xlink:href="#S"/><use transform="matrix(0.013333333333333334,0,0,0.013333333333333334,49.98666666666667,0)" xlink:href="#P"/><use transform="matrix(0.013333333333333334,0,0,0.013333333333333334,57.02666666666667,0)" xlink:href="#Q"/><use transform="matrix(0.013333333333333334,0,0,0.013333333333333334,62.21333333333334,0)" xlink:href="#S"/><use transform="matrix(0.013333333333333334,0,0,0.013333333333333334,68.13333333333334,0)" xlink:href="#ad"/></g><path d="M521-216C521-87 417 11 298 11c-74 0-116-50-131-73L131 0h-25v-596c0-49-8-56-78-56v-31l144-11v317c16-18 59-65 137-65 114 0 212 99 212 226zM294-11c106 0 144-115 144-206s-43-203-134-203c-24 0-79 8-118 64-11 16-11 17-11 36v206c0 18 0 21 14 42 24 37 60 61 105 61" id="ae"/><path d="M508-400c-16 0-67 1-93 64L239 91c-24 57-65 114-128 114-50 0-92-36-92-81 0-59 85-55 84-1 0 16-8 38-39 42C176 233 213 83 250 0L100-365c-14-35-33-35-81-35v-31c71 5 136 2 206 0v31c-27-4-74 10-50 44L286-87l101-246c16-33 0-67-41-67v-31c54 2 108 5 162 0v31" id="af"/><g id="f"><use transform="matrix(0.013333333333333334,0,0,0.013333333333333334,0,0)" xlink:href="#ae"/><use transform="matrix(0.013333333333333334,0,0,0.013333333333333334,7.04,0)" xlink:href="#af"/></g><g id="g"><use transform="matrix(0.013333333333333334,0,0,0.013333333333333334,0,0)" xlink:href="#U"/><use transform="matrix(0.013333333333333334,0,0,0.013333333333333334,7.413333333333334,0)" xlink:href="#W"/><use transform="matrix(0.013333333333333334,0,0,0.013333333333333334,12.666666666666668,0)" xlink:href="#S"/><use transform="matrix(0.013333333333333334,0,0,0.013333333333333334,18.58666666666667,0)" xlink:href="#Z"/></g><path d="M732-88c0 28-17 110-95 110-30 0-85-5-126-42s-41-78-41-143c0-67 2-100-38-134-69-59-113-26-208-34v253c0 36 2 47 79 47h24V0C235-4 127-4 35 0v-31h24c77 0 79-11 79-47v-527c0-36-2-47-79-47H35v-31h314c147 0 261 84 261 180 0 78-78 139-175 163 55 19 111 50 122 116l13 80C584-51 592 0 641 0c25 0 60-18 66-89 1-7 1-16 12-16 13 0 13 11 13 17zM305-652c-45 0-81-10-81 40v259h111c148 0 172-81 172-150 0-145-112-149-202-149" id="ag"/><path d="M471-214C471-87 370 11 249 11 132 11 28-85 28-214c0-125 97-234 222-234 121 0 221 106 221 234zm-83-8c0-38 0-96-26-139-54-86-173-89-227 2-26 43-24 98-24 137 0 36 0 97 25 141 52 95 186 84 230-7 21-44 22-98 22-134" id="ah"/><path d="M651-183C651-89 561 0 428 0H36v-31h24c77 0 79-11 79-47v-527c0-36-2-47-79-47H36v-31h366c130 0 222 82 222 169 0 74-69 138-166 157 111 12 193 87 193 174zM527-514c0-53-35-138-132-138H271c-47 0-49 7-49 40v246h145c111 0 160-84 160-148zm24 330c0-67-42-160-141-160H222v273c0 33 2 40 49 40h125c103 0 155-82 155-153" id="ai"/><path d="M535 0c-75-3-150-3-225 0v-31c67 0 78 0 78-45v-233c0-57-11-111-74-111-64 0-135 56-135 160v184c0 45 11 45 78 45V0C182-3 107-3 32 0v-31c67 0 78 0 78-45v-520c0-49-8-56-78-56v-31l144-11c1 116-1 234 1 348 16-36 60-96 144-96 58 0 90 21 105 37 53 55 23 235 31 344 2 30 26 30 78 30V0" id="aj"/><g id="h"><use transform="matrix(0.02,0,0,0.02,0,0)" xlink:href="#ag"/><use transform="matrix(0.02,0,0,0.02,14.72,0)" xlink:href="#S"/><use transform="matrix(0.02,0,0,0.02,23.6,0)" xlink:href="#V"/><use transform="matrix(0.02,0,0,0.02,32.480000000000004,0)" xlink:href="#ah"/><use transform="matrix(0.02,0,0,0.02,42.480000000000004,0)" xlink:href="#Z"/><use transform="matrix(0.02,0,0,0.02,50.32000000000001,0)" xlink:href="#ad"/><use transform="matrix(0.02,0,0,0.02,61.44000000000001,0)" xlink:href="#ai"/><use transform="matrix(0.02,0,0,0.02,75.60000000000001,0)" xlink:href="#O"/><use transform="matrix(0.02,0,0,0.02,85.60000000000001,0)" xlink:href="#Q"/><use transform="matrix(0.02,0,0,0.02,93.38,0)" xlink:href="#V"/><use transform="matrix(0.02,0,0,0.02,101.7,0)" xlink:href="#aj"/><use transform="matrix(0.02,0,0,0.02,112.82000000000001,0)" xlink:href="#ag"/><use transform="matrix(0.02,0,0,0.02,127.54,0)" xlink:href="#S"/><use transform="matrix(0.02,0,0,0.02,136.42000000000002,0)" xlink:href="#O"/><use transform="matrix(0.02,0,0,0.02,146.42000000000002,0)" xlink:href="#ad"/><use transform="matrix(0.02,0,0,0.02,157.54000000000002,0)" xlink:href="#S"/><use transform="matrix(0.02,0,0,0.02,166.42000000000002,0)" xlink:href="#Z"/></g><path d="M717 0c-89-2-185-6-275 0v-31c32 1 95 0 80-44l-53-153H222c-15 49-37 93-48 146 0 26 25 51 75 51V0C177-3 104-4 32 0v-31c54-1 94-16 112-67l207-598c5-14 8-20 24-20s18 7 23 20L614-71c6 38 42 41 103 40V0zM458-259L345-584 233-259h225" id="ak"/><g id="i"><use transform="matrix(0.02,0,0,0.02,0,0)" xlink:href="#ak"/><use transform="matrix(0.02,0,0,0.02,15,0)" xlink:href="#Z"/><use transform="matrix(0.02,0,0,0.02,22.84,0)" xlink:href="#Z"/><use transform="matrix(0.02,0,0,0.02,30.68,0)" xlink:href="#O"/><use transform="matrix(0.02,0,0,0.02,40.120000000000005,0)" xlink:href="#af"/></g><g id="j"><use transform="matrix(0.02,0,0,0.02,0,0)" xlink:href="#ag"/><use transform="matrix(0.02,0,0,0.02,14.72,0)" xlink:href="#S"/><use transform="matrix(0.02,0,0,0.02,23.6,0)" xlink:href="#O"/><use transform="matrix(0.02,0,0,0.02,33.6,0)" xlink:href="#ad"/><use transform="matrix(0.02,0,0,0.02,44.72,0)" xlink:href="#S"/><use transform="matrix(0.02,0,0,0.02,53.6,0)" xlink:href="#Z"/></g><path d="M1009-652c-39 0-82 10-100 67L718 2c-4 13-6 20-20 20-13 0-16-10-19-19L513-506 348 2c-4 13-6 20-20 20-13 0-16-10-19-19L109-610c-12-37-16-42-91-42v-31c85 2 178 5 264 0v31c-30 0-96 0-82 43l161 492 139-429-22-70c-12-36-33-36-90-36v-31c85 2 178 5 264 0v31c-31-1-96 0-81 45l160 490c51-161 106-319 155-482 0-19-20-52-87-53v-31c70 1 140 5 210 0v31" id="al"/><path d="M247 0C177-4 104-3 33 0v-31c67 0 78 0 78-45v-269c0-49-9-55-74-55v-31l140-11v367c0 39 4 44 70 44V0zM139-657c67 0 72 105-1 106-67 0-72-105 1-106" id="am"/><g id="k"><use transform="matrix(0.02,0,0,0.02,0,0)" xlink:href="#ag"/><use transform="matrix(0.02,0,0,0.02,14.72,0)" xlink:href="#S"/><use transform="matrix(0.02,0,0,0.02,23.6,0)" xlink:href="#V"/><use transform="matrix(0.02,0,0,0.02,32.480000000000004,0)" xlink:href="#ah"/><use transform="matrix(0.02,0,0,0.02,42.480000000000004,0)" xlink:href="#Z"/><use transform="matrix(0.02,0,0,0.02,50.32000000000001,0)" xlink:href="#ad"/><use transform="matrix(0.02,0,0,0.02,61.44000000000001,0)" xlink:href="#ai"/><use transform="matrix(0.02,0,0,0.02,75.60000000000001,0)" xlink:href="#O"/><use transform="matrix(0.02,0,0,0.02,85.60000000000001,0)" xlink:href="#Q"/><use transform="matrix(0.02,0,0,0.02,93.38,0)" xlink:href="#V"/><use transform="matrix(0.02,0,0,0.02,101.7,0)" xlink:href="#aj"/><use transform="matrix(0.02,0,0,0.02,111.16,0)" xlink:href="#al"/><use transform="matrix(0.02,0,0,0.02,130.06,0)" xlink:href="#Z"/><use transform="matrix(0.02,0,0,0.02,137.9,0)" xlink:href="#am"/><use transform="matrix(0.02,0,0,0.02,143.46,0)" xlink:href="#Q"/><use transform="matrix(0.02,0,0,0.02,151.24,0)" xlink:href="#S"/><use transform="matrix(0.02,0,0,0.02,160.12,0)" xlink:href="#Z"/></g><g id="l"><use transform="matrix(0.02,0,0,0.02,0,0)" xlink:href="#al"/><use transform="matrix(0.02,0,0,0.02,18.9,0)" xlink:href="#Z"/><use transform="matrix(0.02,0,0,0.02,26.740000000000002,0)" xlink:href="#am"/><use transform="matrix(0.02,0,0,0.02,32.3,0)" xlink:href="#Q"/><use transform="matrix(0.02,0,0,0.02,40.08,0)" xlink:href="#S"/><use transform="matrix(0.02,0,0,0.02,48.96,0)" xlink:href="#Z"/></g><g id="m"><use transform="matrix(0.02,0,0,0.02,0,0)" xlink:href="#ag"/><use transform="matrix(0.02,0,0,0.02,14.72,0)" xlink:href="#S"/><use transform="matrix(0.02,0,0,0.02,23.6,0)" xlink:href="#O"/><use transform="matrix(0.02,0,0,0.02,33.6,0)" xlink:href="#ad"/></g><path d="M192-53c0 29-24 53-53 53S86-24 86-53s24-53 53-53 53 24 53 53" id="an"/><g id="n"><use transform="matrix(0.02,0,0,0.02,0,0)" xlink:href="#aa"/><use transform="matrix(0.02,0,0,0.02,7.22,0)" xlink:href="#P"/><use transform="matrix(0.02,0,0,0.02,17.78,0)" xlink:href="#Q"/><use transform="matrix(0.02,0,0,0.02,25.560000000000002,0)" xlink:href="#S"/><use transform="matrix(0.02,0,0,0.02,34.440000000000005,0)" xlink:href="#Z"/><use transform="matrix(0.02,0,0,0.02,42.28,0)" xlink:href="#V"/><use transform="matrix(0.02,0,0,0.02,51.160000000000004,0)" xlink:href="#ah"/><use transform="matrix(0.02,0,0,0.02,61.160000000000004,0)" xlink:href="#P"/><use transform="matrix(0.02,0,0,0.02,72.28,0)" xlink:href="#an"/></g><g id="o"><use transform="matrix(0.02,0,0,0.02,0,0)" xlink:href="#al"/><use transform="matrix(0.02,0,0,0.02,18.9,0)" xlink:href="#Z"/><use transform="matrix(0.02,0,0,0.02,26.740000000000002,0)" xlink:href="#am"/><use transform="matrix(0.02,0,0,0.02,32.3,0)" xlink:href="#Q"/><use transform="matrix(0.02,0,0,0.02,40.08,0)" xlink:href="#S"/></g><path d="M231-440c51-7 72-24 119-24 31 0 37 21 37 34 0 5-2 33-37 33-38 0-85-22-119-24 5 69 26 145 24 203-7 170-7 274-20 416-2 13-2 18-14 18-11 0-12-6-13-20-9-95-20-263-20-414 0-55 19-137 24-203-51 7-72 24-119 24-31 0-37-21-37-34 0-5 2-33 37-33 38 0 85 22 119 24 0-64-22-148-24-224 0-9 0-41 34-41 33 0 33 33 33 41 1 57-26 190-24 224" id="ao"/><g id="p"><use transform="matrix(0.012444444444444444,0,0,0.012444444444444444,0,-5.015111111111111)" xlink:href="#ao"/><use transform="matrix(0.017777777777777778,0,0,0.017777777777777778,5.525333333333333,0)" xlink:href="#N"/><use transform="matrix(0.017777777777777778,0,0,0.017777777777777778,21.827555555555556,0)" xlink:href="#S"/><use transform="matrix(0.017777777777777778,0,0,0.017777777777777778,29.720888888888886,0)" xlink:href="#ab"/><use transform="matrix(0.017777777777777778,0,0,0.017777777777777778,44.52977777777778,0)" xlink:href="#ah"/><use transform="matrix(0.017777777777777778,0,0,0.017777777777777778,53.41866666666667,0)" xlink:href="#Z"/><use transform="matrix(0.017777777777777778,0,0,0.017777777777777778,60.38755555555556,0)" xlink:href="#af"/></g><path d="M423-750c18 5 24 14 15 38L97 230c1 24-42 27-41 0C169-92 287-410 402-730c3-10 7-20 21-20" id="ap"/><path d="M610-455h-25c-16-138-41-194-191-194H274c-47 0-49 7-49 40v253h86c96 0 106-33 106-117h25v265h-25c0-85-10-117-106-117h-86v246c0 35 0 48 95 48h33V0C254-4 132-5 33 0v-31h24c77 0 79-11 79-47v-524c0-36-2-47-79-47H33v-31h549" id="aq"/><g id="q"><use transform="matrix(0.017777777777777778,0,0,0.017777777777777778,0,0)" xlink:href="#aa"/><use transform="matrix(0.017777777777777778,0,0,0.017777777777777778,6.417777777777777,0)" xlink:href="#ap"/><use transform="matrix(0.017777777777777778,0,0,0.017777777777777778,15.306666666666667,0)" xlink:href="#aq"/></g><path d="M721-339c0 202-151 361-333 361C210 22 56-134 56-339c0-206 153-366 332-366 182 0 333 162 333 366zm-103-14c0-256-143-327-230-327-83 0-229 68-229 327C159-92 293-4 389-4c92 0 229-84 229-349" id="ar"/><g id="r"><use transform="matrix(0.012444444444444444,0,0,0.012444444444444444,0,-5.015111111111111)" xlink:href="#ao"/><use transform="matrix(0.017777777777777778,0,0,0.017777777777777778,5.525333333333333,0)" xlink:href="#N"/><use transform="matrix(0.017777777777777778,0,0,0.017777777777777778,21.827555555555556,0)" xlink:href="#N"/><use transform="matrix(0.017777777777777778,0,0,0.017777777777777778,38.129777777777775,0)" xlink:href="#aa"/><use transform="matrix(0.017777777777777778,0,0,0.017777777777777778,44.54755555555555,0)" xlink:href="#ar"/></g><path d="M726 0c-89-2-187-5-276 0v-31c49-4 75-18 60-41L352-311 210-101c-24 33-5 64 53 70V0C184-5 102-2 24 0v-31c101 0 131-46 145-66l164-242-184-278c-17-32-53-36-112-35v-31c89 2 187 5 276 0v31c-51 5-76 18-58 45l129 193 114-169c24-34-3-67-53-69v-31c80 5 160 2 239 0v31c-89 1-123 33-145 65L402-386 613-67c21 36 55 37 113 36V0" id="as"/><path d="M471-165H371v87c0 36 2 47 76 47h21V0c-89-4-182-4-271 0v-31h21c74 0 76-11 76-47v-87H28v-31l307-469c11-20 42-18 36 14v455h100v31zm-171-31v-373L56-196h244" id="at"/><g id="s"><use transform="matrix(0.018,0,0,0.018,0,0)" xlink:href="#ak"/><use transform="matrix(0.018,0,0,0.018,13.499999999999998,0)" xlink:href="#as"/><use transform="matrix(0.018,0,0,0.018,26.999999999999996,0)" xlink:href="#aa"/><use transform="matrix(0.018,0,0,0.018,33.498,0)" xlink:href="#at"/></g><g id="t"><use transform="matrix(0.018,0,0,0.018,0,0)" xlink:href="#R"/><use transform="matrix(0.018,0,0,0.018,5.004,0)" xlink:href="#am"/><use transform="matrix(0.018,0,0,0.018,10.008,0)" xlink:href="#Q"/><use transform="matrix(0.018,0,0,0.018,17.009999999999998,0)" xlink:href="#S"/></g><path d="M665-233c0 116-98 255-261 255C218 22 56-135 56-342c0-204 161-363 348-363 96 0 147 50 184 86l50-74c13-20 27-17 27 12v237c0 21 0 24-16 24-14 0-14-3-16-17-20-146-109-237-218-237-61 0-256 34-256 333C159-43 355-9 416-9c109 0 216-82 224-225 1-10 1-16 12-16 13 0 13 7 13 17" id="au"/><g id="u"><use transform="matrix(0.015555555555555557,0,0,0.015555555555555557,0,0)" xlink:href="#au"/><use transform="matrix(0.015555555555555557,0,0,0.015555555555555557,11.231111111111112,0)" xlink:href="#ah"/><use transform="matrix(0.015555555555555557,0,0,0.015555555555555557,19.00888888888889,0)" xlink:href="#ab"/><use transform="matrix(0.015555555555555557,0,0,0.015555555555555557,31.96666666666667,0)" xlink:href="#ab"/><use transform="matrix(0.015555555555555557,0,0,0.015555555555555557,44.92444444444445,0)" xlink:href="#O"/><use transform="matrix(0.015555555555555557,0,0,0.015555555555555557,52.702222222222225,0)" xlink:href="#P"/><use transform="matrix(0.015555555555555557,0,0,0.015555555555555557,61.351111111111116,0)" xlink:href="#ad"/></g><path d="M499-186c0 110-80 208-197 208-89 0-153-36-184-70C85 5 82 9 82 9c-7 11-8 13-15 13-11 0-11-7-11-24v-200c0-18 0-25 13-25 3 0 11 0 12 10 1 36 4 100 62 154C196-14 272-9 301-9c121-1 172-148 103-235-32-63-188-65-217-84-78-27-131-100-131-183 0-106 84-194 195-194 89 0 130 41 160 70l35-57c7-12 8-13 15-13 11 0 11 7 11 24v201c9 30-23 29-25 12-4-45-28-209-195-209-78 0-132 61-132 131 0 58 39 112 101 127l128 31c84 20 150 102 150 202" id="av"/><g id="v"><use transform="matrix(0.015555555555555557,0,0,0.015555555555555557,0,0)" xlink:href="#av"/><use transform="matrix(0.015555555555555557,0,0,0.015555555555555557,8.648888888888889,0)" xlink:href="#Q"/><use transform="matrix(0.015555555555555557,0,0,0.015555555555555557,14.700000000000001,0)" xlink:href="#Z"/><use transform="matrix(0.015555555555555557,0,0,0.015555555555555557,20.797777777777778,0)" xlink:href="#S"/><use transform="matrix(0.015555555555555557,0,0,0.015555555555555557,27.704444444444444,0)" xlink:href="#O"/><use transform="matrix(0.015555555555555557,0,0,0.015555555555555557,35.48222222222222,0)" xlink:href="#ab"/><use transform="matrix(0.015555555555555557,0,0,0.015555555555555557,48.44,0)" xlink:href="#W"/></g><path d="M707-336C707-148 569 0 401 0H35v-31h24c77 0 79-11 79-47v-527c0-36-2-47-79-47H35v-31h366c171 0 306 157 306 347zM552-116c68-84 82-339 3-443-77-102-146-96-282-93-47 0-49 7-49 40v541c0 33 2 40 49 40h101c101 0 157-59 178-85" id="aw"/><g id="w"><use transform="matrix(0.015555555555555557,0,0,0.015555555555555557,0,0)" xlink:href="#aw"/><use transform="matrix(0.015555555555555557,0,0,0.015555555555555557,11.884444444444446,0)" xlink:href="#O"/><use transform="matrix(0.015555555555555557,0,0,0.015555555555555557,19.662222222222226,0)" xlink:href="#Q"/><use transform="matrix(0.015555555555555557,0,0,0.015555555555555557,25.71333333333334,0)" xlink:href="#O"/></g><use transform="matrix(0.013333333333333334,0,0,0.013333333333333334,0,0)" xlink:href="#ao" id="x"/><path d="M357-635c0 24-15 44-44 44-27 0-43-20-43-43 0-25 18-38 30-42-72-26-125 27-125 129v116h117v31H178v322c0 36 2 47 76 47h21V0C195-6 114-2 34 0v-31c67 0 78 0 78-45v-324H33v-31h79v-115c0-106 85-159 155-159 53 0 90 33 90 70" id="ax"/><g id="y"><use transform="matrix(0.013333333333333334,0,0,0.013333333333333334,0,0)" xlink:href="#ac"/><use transform="matrix(0.013333333333333334,0,0,0.013333333333333334,7.413333333333334,0)" xlink:href="#R"/><use transform="matrix(0.013333333333333334,0,0,0.013333333333333334,11.120000000000001,0)" xlink:href="#O"/><use transform="matrix(0.013333333333333334,0,0,0.013333333333333334,17.78666666666667,0)" xlink:href="#Q"/><use transform="matrix(0.013333333333333334,0,0,0.013333333333333334,22.973333333333336,0)" xlink:href="#ax"/><use transform="matrix(0.013333333333333334,0,0,0.013333333333333334,27.053333333333335,0)" xlink:href="#ah"/><use transform="matrix(0.013333333333333334,0,0,0.013333333333333334,33.72,0)" xlink:href="#Z"/><use transform="matrix(0.013333333333333334,0,0,0.013333333333333334,38.946666666666665,0)" xlink:href="#ab"/></g><g id="z"><use transform="matrix(0.013333333333333334,0,0,0.013333333333333334,0,0)" xlink:href="#W"/><use transform="matrix(0.013333333333333334,0,0,0.013333333333333334,5.253333333333334,0)" xlink:href="#ac"/><use transform="matrix(0.013333333333333334,0,0,0.013333333333333334,13.040000000000001,0)" xlink:href="#S"/><use transform="matrix(0.013333333333333334,0,0,0.013333333333333334,18.96,0)" xlink:href="#V"/><use transform="matrix(0.013333333333333334,0,0,0.013333333333333334,24.880000000000003,0)" xlink:href="#am"/><use transform="matrix(0.013333333333333334,0,0,0.013333333333333334,28.58666666666667,0)" xlink:href="#ax"/><use transform="matrix(0.013333333333333334,0,0,0.013333333333333334,32.66666666666667,0)" xlink:href="#am"/><use transform="matrix(0.013333333333333334,0,0,0.013333333333333334,36.373333333333335,0)" xlink:href="#V"/></g><use transform="matrix(0.013333333333333334,0,0,0.013333333333333334,0,0)" xlink:href="#X" id="A"/><g id="B"><use transform="matrix(0.013333333333333334,0,0,0.013333333333333334,0,0)" xlink:href="#O"/><use transform="matrix(0.013333333333333334,0,0,0.013333333333333334,6.666666666666667,0)" xlink:href="#ac"/><use transform="matrix(0.013333333333333334,0,0,0.013333333333333334,14.08,0)" xlink:href="#ac"/><use transform="matrix(0.013333333333333334,0,0,0.013333333333333334,21.493333333333336,0)" xlink:href="#R"/><use transform="matrix(0.013333333333333334,0,0,0.013333333333333334,25.200000000000003,0)" xlink:href="#am"/><use transform="matrix(0.013333333333333334,0,0,0.013333333333333334,28.90666666666667,0)" xlink:href="#V"/><use transform="matrix(0.013333333333333334,0,0,0.013333333333333334,34.82666666666667,0)" xlink:href="#O"/><use transform="matrix(0.013333333333333334,0,0,0.013333333333333334,41.49333333333333,0)" xlink:href="#Q"/><use transform="matrix(0.013333333333333334,0,0,0.013333333333333334,46.68,0)" xlink:href="#am"/><use transform="matrix(0.013333333333333334,0,0,0.013333333333333334,50.38666666666667,0)" xlink:href="#ah"/><use transform="matrix(0.013333333333333334,0,0,0.013333333333333334,57.053333333333335,0)" xlink:href="#P"/></g><g id="C"><use transform="matrix(0.013333333333333334,0,0,0.013333333333333334,0,0)" xlink:href="#W"/><use transform="matrix(0.013333333333333334,0,0,0.013333333333333334,5.253333333333334,0)" xlink:href="#ac"/><use transform="matrix(0.013333333333333334,0,0,0.013333333333333334,13.040000000000001,0)" xlink:href="#S"/><use transform="matrix(0.013333333333333334,0,0,0.013333333333333334,18.96,0)" xlink:href="#V"/><use transform="matrix(0.013333333333333334,0,0,0.013333333333333334,24.880000000000003,0)" xlink:href="#am"/><use transform="matrix(0.013333333333333334,0,0,0.013333333333333334,28.58666666666667,0)" xlink:href="#ax"/><use transform="matrix(0.013333333333333334,0,0,0.013333333333333334,32.66666666666667,0)" xlink:href="#am"/><use transform="matrix(0.013333333333333334,0,0,0.013333333333333334,36.373333333333335,0)" xlink:href="#V"/></g><g id="D"><use transform="matrix(0.02,0,0,0.02,0,0)" xlink:href="#N"/><use transform="matrix(0.02,0,0,0.02,18.34,0)" xlink:href="#N"/><use transform="matrix(0.02,0,0,0.02,36.68,0)" xlink:href="#aa"/><use transform="matrix(0.02,0,0,0.02,43.9,0)" xlink:href="#ar"/></g><path d="M735-242c-65 0-69 5-69 44v174c0 15 0 23-9 23-11 0-51-40-64-62-34 59-114 85-187 85C216 22 56-137 56-342s162-363 348-363c99 0 153 54 185 86l50-74c13-20 27-17 27 12v237c0 21 0 24-16 24-14 0-14-3-16-17-20-147-111-237-218-237-60 0-257 33-257 332C159-44 357-9 422-9c28 0 155-9 155-121 0-81 35-117-93-112h-32v-31c89 5 194 3 283 0v31" id="ay"/><g id="F"><use transform="matrix(0.013333333333333334,0,0,0.013333333333333334,0,0)" xlink:href="#ay"/><use transform="matrix(0.013333333333333334,0,0,0.013333333333333334,10.466666666666667,0)" xlink:href="#S"/><use transform="matrix(0.013333333333333334,0,0,0.013333333333333334,16.386666666666667,0)" xlink:href="#P"/><use transform="matrix(0.013333333333333334,0,0,0.013333333333333334,23.8,0)" xlink:href="#S"/><use transform="matrix(0.013333333333333334,0,0,0.013333333333333334,29.720000000000002,0)" xlink:href="#Z"/><use transform="matrix(0.013333333333333334,0,0,0.013333333333333334,34.94666666666667,0)" xlink:href="#O"/><use transform="matrix(0.013333333333333334,0,0,0.013333333333333334,41.61333333333334,0)" xlink:href="#Q"/><use transform="matrix(0.013333333333333334,0,0,0.013333333333333334,46.800000000000004,0)" xlink:href="#S"/><use transform="matrix(0.013333333333333334,0,0,0.013333333333333334,52.720000000000006,0)" xlink:href="#ad"/></g><g id="G"><use transform="matrix(0.013333333333333334,0,0,0.013333333333333334,0,0)" xlink:href="#ae"/><use transform="matrix(0.013333333333333334,0,0,0.013333333333333334,7.04,0)" xlink:href="#af"/></g><path d="M508-400c-66 1-83 44-92 67L285-8c-4 10-8 19-21 19s-15-5-21-19L99-363c-13-31-17-37-80-37v-31c71 5 136 2 206 0v31c-25-3-76 8-51 43L286-78l102-255c14-33 6-63-42-67v-31c54 2 108 5 162 0v31" id="az"/><g id="H"><use transform="matrix(0.013333333333333334,0,0,0.013333333333333334,0,0)" xlink:href="#az"/><use transform="matrix(0.013333333333333334,0,0,0.013333333333333334,7.04,0)" xlink:href="#aj"/><use transform="matrix(0.013333333333333334,0,0,0.013333333333333334,14.453333333333335,0)" xlink:href="#ad"/><use transform="matrix(0.013333333333333334,0,0,0.013333333333333334,21.866666666666667,0)" xlink:href="#ab"/><use transform="matrix(0.013333333333333334,0,0,0.013333333333333334,32.973333333333336,0)" xlink:href="#ab"/><use transform="matrix(0.013333333333333334,0,0,0.013333333333333334,44.080000000000005,0)" xlink:href="#am"/><use transform="matrix(0.013333333333333334,0,0,0.013333333333333334,47.786666666666676,0)" xlink:href="#ah"/></g><path d="M203-1c0 115-79 194-91 194-10 0-15-15-3-22 44-47 72-108 70-187-31 35-93 8-93-37 0-26 18-53 53-53 40 0 64 41 64 105" id="aA"/><g id="I"><use transform="matrix(0.013333333333333334,0,0,0.013333333333333334,0,0)" xlink:href="#V"/><use transform="matrix(0.013333333333333334,0,0,0.013333333333333334,5.920000000000001,0)" xlink:href="#ah"/><use transform="matrix(0.013333333333333334,0,0,0.013333333333333334,12.586666666666668,0)" xlink:href="#P"/><use transform="matrix(0.013333333333333334,0,0,0.013333333333333334,19.62666666666667,0)" xlink:href="#Q"/><use transform="matrix(0.013333333333333334,0,0,0.013333333333333334,24.813333333333336,0)" xlink:href="#Z"/><use transform="matrix(0.013333333333333334,0,0,0.013333333333333334,30.040000000000003,0)" xlink:href="#ah"/><use transform="matrix(0.013333333333333334,0,0,0.013333333333333334,36.70666666666667,0)" xlink:href="#R"/><use transform="matrix(0.013333333333333334,0,0,0.013333333333333334,40.41333333333334,0)" xlink:href="#aA"/></g><g id="J"><use transform="matrix(0.013333333333333334,0,0,0.013333333333333334,0,0)" xlink:href="#W"/><use transform="matrix(0.013333333333333334,0,0,0.013333333333333334,5.253333333333334,0)" xlink:href="#Q"/><use transform="matrix(0.013333333333333334,0,0,0.013333333333333334,10.440000000000001,0)" xlink:href="#O"/><use transform="matrix(0.013333333333333334,0,0,0.013333333333333334,17.10666666666667,0)" xlink:href="#Q"/><use transform="matrix(0.013333333333333334,0,0,0.013333333333333334,22.293333333333337,0)" xlink:href="#U"/><use transform="matrix(0.013333333333333334,0,0,0.013333333333333334,29.706666666666667,0)" xlink:href="#W"/></g><path d="M727-400c-89 1-110 36-149 102-46 79-86 147-132 200 32 38 84 89 138 89 45 0 109-33 112-112h25c-2 86-65 143-141 143-48 0-107-16-176-76-37 33-96 76-181 76-99 0-181-63-181-150 0-54 27-80 71-127l91-97c-35-89-41-161-41-203 0-106 74-161 136-161 71 0 87 83 87 129 0 66-68 142-122 202 44 115 153 252 166 267 43-53 89-120 143-218 19-35-9-64-65-64v-31c86 4 144 3 219 0v31zM361-588s0-106-60-106c-35 0-75 32-75 116 0 31 3 89 30 169 24-26 105-113 105-179zm24 515c-73-79-133-173-172-256-54 52-88 88-88 169 0 54 23 151 106 151 28 0 90-7 154-64" id="aB"/><use transform="matrix(0.013333333333333334,0,0,0.013333333333333334,0,0)" xlink:href="#aB" id="K"/><g id="L"><use transform="matrix(0.013333333333333334,0,0,0.013333333333333334,0,0)" xlink:href="#V"/><use transform="matrix(0.013333333333333334,0,0,0.013333333333333334,5.920000000000001,0)" xlink:href="#U"/><use transform="matrix(0.013333333333333334,0,0,0.013333333333333334,13.333333333333336,0)" xlink:href="#W"/><use transform="matrix(0.013333333333333334,0,0,0.013333333333333334,18.58666666666667,0)" xlink:href="#Q"/><use transform="matrix(0.013333333333333334,0,0,0.013333333333333334,23.773333333333337,0)" xlink:href="#ah"/><use transform="matrix(0.013333333333333334,0,0,0.013333333333333334,30.44,0)" xlink:href="#ab"/><use transform="matrix(0.009333333333333334,0,0,0.009333333333333334,41.546666666666674,-3.761333333333334)" xlink:href="#X"/></g><path d="M106-133c5 63 46 68 128 68 61 0 119 0 172 28 51 28 65 79 65 114 0 78-104 129-222 129-122 0-221-55-221-127 0-40 32-83 92-100-60-35-51-132-13-172-25-21-47-59-47-103 0-115 158-199 268-110 42-41 86-47 106-47 60-1 66 75 22 79-30 3-40-46-13-56-30-3-57 2-100 38 92 89 17 248-121 243-19 0-60-3-99-31-17 20-17 43-17 47zm116-39c75 0 86-58 87-124 0-23 0-123-87-123-75 0-86 58-87 124 0 23 0 123 87 123zM419 79C419-25 266-7 162-7c-44 0-82 40-82 86 0 53 69 104 170 104 98 0 169-50 169-104" id="aC"/><g id="M"><use transform="matrix(0.013333333333333334,0,0,0.013333333333333334,0,0)" xlink:href="#Z"/><use transform="matrix(0.013333333333333334,0,0,0.013333333333333334,5.226666666666667,0)" xlink:href="#S"/><use transform="matrix(0.013333333333333334,0,0,0.013333333333333334,11.146666666666668,0)" xlink:href="#aC"/><use transform="matrix(0.013333333333333334,0,0,0.013333333333333334,17.813333333333336,0)" xlink:href="#W"/></g></defs></g></svg>