<?xml version="1.0" encoding="UTF-8" standalone="no"?>
<!-- Created with Inkscape (http://www.inkscape.org/) -->

<svg
   xmlns:dc="http://purl.org/dc/elements/1.1/"
   xmlns:cc="http://creativecommons.org/ns#"
   xmlns:rdf="http://www.w3.org/1999/02/22-rdf-syntax-ns#"
   xmlns:svg="http://www.w3.org/2000/svg"
   xmlns="http://www.w3.org/2000/svg"
   xmlns:sodipodi="http://sodipodi.sourceforge.net/DTD/sodipodi-0.dtd"
   xmlns:inkscape="http://www.inkscape.org/namespaces/inkscape"
   width="128"
   height="128"
   viewBox="0 0 32 32"
   version="1.1"
   id="svg8"
   inkscape:version="0.92.3 (2405546, 2018-03-11)"
   sodipodi:docname="fletcher_cpp_logo.svg"
   inkscape:export-filename="/home/jhpeltenburg/fletcher_logo.png"
   inkscape:export-xdpi="768.00006"
   inkscape:export-ydpi="768.00006">
  <defs
     id="defs2" />
  <sodipodi:namedview
     id="base"
     pagecolor="#ffffff"
     bordercolor="#666666"
     borderopacity="1.0"
     inkscape:pageopacity="0.0"
     inkscape:pageshadow="2"
     inkscape:zoom="2.9236885"
     inkscape:cx="32.529576"
     inkscape:cy="85.365543"
     inkscape:document-units="px"
     inkscape:current-layer="g852"
     showgrid="true"
     inkscape:window-width="1920"
     inkscape:window-height="1019"
     inkscape:window-x="0"
     inkscape:window-y="0"
     inkscape:window-maximized="1"
     units="px">
    <inkscape:grid
       type="axonomgrid"
       id="grid817"
       units="px"
       empspacing="6"
       spacingy="4.2333333"
       originx="8.75"
       originy="-5" />
  </sodipodi:namedview>
  <metadata
     id="metadata5">
    <rdf:RDF>
      <cc:Work
         rdf:about="">
        <dc:format>image/svg+xml</dc:format>
        <dc:type
           rdf:resource="http://purl.org/dc/dcmitype/StillImage" />
        <dc:title />
      </cc:Work>
    </rdf:RDF>
  </metadata>
  <g
     inkscape:label="Layer 1"
     inkscape:groupmode="layer"
     id="layer1"
     transform="translate(0,-263.13332)">
    <g
       id="g852"
       transform="translate(-0.08235055,-1.2297905)">
      <text
         id="text899"
         y="294.37289"
         x="0.77417415"
         style="font-style:normal;font-variant:normal;font-weight:normal;font-stretch:normal;font-size:6.66666651px;line-height:1.25;font-family:'URW Gothic L';-inkscape-font-specification:'URW Gothic L, Normal';font-variant-ligatures:normal;font-variant-caps:normal;font-variant-numeric:normal;font-feature-settings:normal;text-align:start;letter-spacing:0px;word-spacing:0px;writing-mode:lr-tb;text-anchor:start;fill:#000000;fill-opacity:1;stroke:none;stroke-width:0.26458332;stroke-opacity:0"
         xml:space="preserve"><tspan
           style="font-style:normal;font-variant:normal;font-weight:normal;font-stretch:normal;font-size:6.66666651px;font-family:'URW Gothic L';-inkscape-font-specification:'URW Gothic L, Normal';font-variant-ligatures:normal;font-variant-caps:normal;font-variant-numeric:normal;font-feature-settings:normal;text-align:start;writing-mode:lr-tb;text-anchor:start;stroke:none;stroke-width:0.26458332;stroke-opacity:0"
           y="294.37289"
           x="0.77417415"
           id="tspan897"
           sodipodi:role="line">FLETCHER</tspan></text>
      <path
         sodipodi:nodetypes="cccc"
         inkscape:connector-curvature="0"
         id="path913"
         d="m 12.416169,276.84999 3.666176,-6.35 14.6647,16.93333 -18.330876,-10.58333"
         style="fill:#004482;fill-opacity:1;stroke:none;stroke-width:0.26458332px;stroke-linecap:butt;stroke-linejoin:miter;stroke-opacity:1" />
      <path
         sodipodi:nodetypes="cccc"
         inkscape:connector-curvature="0"
         id="path915"
         d="m 12.416169,276.84999 -3.6661737,6.35 21.9970497,4.23333 z"
         style="fill:#003260;fill-opacity:1;stroke:none;stroke-width:0.26458332px;stroke-linecap:butt;stroke-linejoin:miter;stroke-opacity:1" />
      <path
         sodipodi:nodetypes="cccc"
         inkscape:connector-curvature="0"
         id="path911"
         d="M 12.416169,276.84999 1.4176553,278.96666 30.747045,287.43332 12.416169,276.84999"
         style="fill:#659ad2;fill-opacity:1;stroke:none;stroke-width:0.26458332px;stroke-linecap:butt;stroke-linejoin:miter;stroke-opacity:1" />
      <path
         sodipodi:nodetypes="cccc"
         inkscape:connector-curvature="0"
         id="path909"
         d="M 12.416169,276.84999 8.7499953,266.26666 30.747045,287.43332 Z"
         style="fill:#00599c;fill-opacity:1;stroke:none;stroke-width:0.26458332px;stroke-linecap:butt;stroke-linejoin:miter;stroke-opacity:1" />
    </g>
    <path
       inkscape:connector-curvature="0"
       style="fill:#00599c;stroke-width:0.02896315"
       d="m 30.119656,271.61488 c 0.06954,-0.12046 0.112754,-0.25618 0.112754,-0.37806 v -4.23062 c 0,-0.12187 -0.04316,-0.25756 -0.112725,-0.37802 l -4.318637,2.49335 z"
       id="path3751" />
    <path
       inkscape:connector-curvature="0"
       style="fill:#004482;stroke-width:0.02896315"
       d="m 26.184809,274.01682 3.663839,-2.11529 c 0.105542,-0.0609 0.201468,-0.16616 0.271008,-0.28665 l -4.318608,-2.49335 -4.318609,2.49338 c 0.06954,0.12046 0.165495,0.22571 0.271008,0.28662 l 3.663839,2.11529 c 0.211054,0.12188 0.556469,0.12188 0.767523,0 z"
       id="path3753" />
    <path
       inkscape:connector-curvature="0"
       style="fill:#659ad2;stroke-width:0.02896315"
       d="m 30.119685,266.62815 c -0.06957,-0.12049 -0.165524,-0.22571 -0.271037,-0.28665 l -3.663839,-2.11529 c -0.211054,-0.12188 -0.556469,-0.12188 -0.767523,0 l -3.663839,2.11529 c -0.211083,0.12185 -0.383762,0.42098 -0.383762,0.6647 v 4.23062 c 0,0.12188 0.04318,0.2576 0.112754,0.37806 l 4.318609,-2.49335 z"
       id="path3755" />
    <g
       id="g3759"
       transform="matrix(0.02896315,0,0,0.02896315,21.369685,264.1348)">
      <path
         style="fill:#ffffff"
         inkscape:connector-curvature="0"
         d="m 153,274.175 c -56.243,0 -102,-45.757 -102,-102 0,-56.243 45.757,-102 102,-102 36.292,0 70.139,19.53 88.331,50.968 l -44.143,25.544 C 188.083,130.951 171.15,121.175 153,121.175 c -28.122,0 -51,22.878 -51,51 0,28.121 22.878,51 51,51 18.152,0 35.085,-9.776 44.191,-25.515 l 44.143,25.543 c -18.192,31.441 -52.04,50.972 -88.334,50.972 z"
         id="path3757" />
    </g>
    <g
       id="g3763"
       transform="matrix(0.02896315,0,0,0.02896315,21.369685,264.1348)">
      <polygon
         style="fill:#ffffff"
         points="243.666,189.175 243.666,177.841 255,177.841 255,166.508 243.666,166.508 243.666,155.175 232.334,155.175 232.334,166.508 221,166.508 221,177.841 232.334,177.841 232.334,189.175 "
         id="polygon3761" />
    </g>
    <g
       id="g3767"
       transform="matrix(0.02896315,0,0,0.02896315,21.369685,264.1348)">
      <polygon
         style="fill:#ffffff"
         points="286.166,189.175 286.166,177.841 297.5,177.841 297.5,166.508 286.166,166.508 286.166,155.175 274.834,155.175 274.834,166.508 263.5,166.508 263.5,177.841 274.834,177.841 274.834,189.175 "
         id="polygon3765" />
    </g>
  </g>
</svg>
